G04 EAGLE Gerber RS-274X export*
G75*
%MOMM*%
%FSLAX34Y34*%
%LPD*%
%INBottom Copper*%
%IPPOS*%
%AMOC8*
5,1,8,0,0,1.08239X$1,22.5*%
G01*
G04 Define Apertures*
%ADD10C,1.879600*%
%ADD11R,1.270000X0.635000*%
%ADD12C,0.254000*%
%ADD13R,2.000000X2.000000*%
%ADD14C,0.756400*%
%ADD15C,1.016000*%
%ADD16C,0.609600*%
G36*
X366641Y-51143D02*
X343622Y-51530D01*
X342836Y-51483D01*
X320034Y-48309D01*
X319265Y-48140D01*
X297226Y-41480D01*
X296492Y-41195D01*
X275748Y-31210D01*
X275067Y-30815D01*
X256376Y-17925D01*
X255751Y-17416D01*
X251918Y-13755D01*
X251155Y-12829D01*
X250421Y-10945D01*
X250481Y-8924D01*
X251325Y-7086D01*
X252818Y-5723D01*
X254725Y-5050D01*
X256504Y-5160D01*
X263312Y-5160D01*
X269711Y-3445D01*
X275449Y-133D01*
X280133Y4551D01*
X283445Y10289D01*
X285160Y16688D01*
X285160Y23312D01*
X283445Y29711D01*
X280133Y35449D01*
X275449Y40133D01*
X269711Y43445D01*
X263312Y45160D01*
X256688Y45160D01*
X250289Y43445D01*
X244551Y40133D01*
X239867Y35449D01*
X236555Y29711D01*
X234840Y23312D01*
X234840Y16688D01*
X236555Y10289D01*
X238786Y6424D01*
X239466Y3921D01*
X239079Y1937D01*
X237948Y261D01*
X236253Y-841D01*
X234262Y-1195D01*
X232291Y-744D01*
X219761Y4930D01*
X202887Y9356D01*
X196530Y9916D01*
X195532Y10160D01*
X193976Y10160D01*
X193530Y10180D01*
X191981Y10316D01*
X190965Y10160D01*
X101649Y10160D01*
X99322Y10724D01*
X97745Y11989D01*
X96786Y13769D01*
X96598Y15782D01*
X97209Y17710D01*
X98524Y19245D01*
X100334Y20147D01*
X103432Y20977D01*
X110730Y25190D01*
X149630Y64091D01*
X152610Y67070D01*
X156823Y74368D01*
X159004Y82508D01*
X159004Y111391D01*
X159331Y113185D01*
X160407Y114896D01*
X162065Y116053D01*
X164044Y116471D01*
X166028Y116084D01*
X167497Y115476D01*
X186596Y115476D01*
X188427Y115134D01*
X190130Y114045D01*
X191274Y112377D01*
X191676Y110396D01*
X191676Y91297D01*
X191908Y90737D01*
X192337Y90308D01*
X192897Y90076D01*
X213503Y90076D01*
X213956Y90264D01*
X215860Y90650D01*
X217844Y90264D01*
X218297Y90076D01*
X238903Y90076D01*
X239463Y90308D01*
X239892Y90737D01*
X240124Y91297D01*
X240124Y110396D01*
X240466Y112227D01*
X241555Y113930D01*
X243223Y115074D01*
X245204Y115476D01*
X264303Y115476D01*
X264756Y115664D01*
X266660Y116050D01*
X268644Y115664D01*
X269097Y115476D01*
X289703Y115476D01*
X291172Y116084D01*
X292954Y116469D01*
X294947Y116130D01*
X296650Y115040D01*
X297794Y113372D01*
X298196Y111391D01*
X298196Y-1314D01*
X299201Y-3741D01*
X301059Y-5599D01*
X303486Y-6604D01*
X306114Y-6604D01*
X308541Y-5599D01*
X310399Y-3741D01*
X311404Y-1314D01*
X311404Y111391D01*
X311731Y113185D01*
X312807Y114896D01*
X314465Y116053D01*
X316444Y116471D01*
X318428Y116084D01*
X319897Y115476D01*
X340503Y115476D01*
X341063Y115708D01*
X341492Y116137D01*
X341724Y116697D01*
X341724Y137303D01*
X341536Y137756D01*
X341150Y139660D01*
X341536Y141644D01*
X341724Y142097D01*
X341724Y162703D01*
X341536Y163156D01*
X341150Y165060D01*
X341536Y167044D01*
X341724Y167497D01*
X341724Y188103D01*
X341536Y188556D01*
X341150Y190460D01*
X341536Y192444D01*
X341724Y192897D01*
X341724Y213503D01*
X341536Y213956D01*
X341150Y215860D01*
X341536Y217844D01*
X341724Y218297D01*
X341724Y238903D01*
X341536Y239356D01*
X341150Y241260D01*
X341536Y243244D01*
X341724Y243697D01*
X341724Y264303D01*
X341536Y264756D01*
X341150Y266660D01*
X341536Y268644D01*
X341724Y269097D01*
X341724Y289703D01*
X341492Y290263D01*
X341063Y290692D01*
X340503Y290924D01*
X319897Y290924D01*
X318428Y290316D01*
X316646Y289932D01*
X314653Y290270D01*
X312950Y291360D01*
X311806Y293028D01*
X311404Y295009D01*
X311404Y323892D01*
X309223Y332032D01*
X305010Y339330D01*
X302030Y342309D01*
X301101Y343238D01*
X298095Y344483D01*
X297420Y344615D01*
X295734Y345731D01*
X153310Y488156D01*
X153310Y488156D01*
X151953Y489513D01*
X151953Y489513D01*
X149523Y491942D01*
X143175Y494572D01*
X140274Y494572D01*
X138443Y494914D01*
X136740Y496003D01*
X135596Y497671D01*
X135194Y499652D01*
X135194Y503638D01*
X134962Y504198D01*
X134533Y504627D01*
X133973Y504859D01*
X119988Y504859D01*
X119350Y504732D01*
X115944Y504732D01*
X109596Y502103D01*
X104306Y496812D01*
X104062Y496432D01*
X102423Y495249D01*
X100451Y494799D01*
X98461Y495154D01*
X96767Y496257D01*
X96472Y496694D01*
X91064Y502103D01*
X84716Y504732D01*
X78770Y504732D01*
X78132Y504859D01*
X64147Y504859D01*
X63098Y504425D01*
X62581Y504064D01*
X60614Y503599D01*
X58621Y503938D01*
X56918Y505028D01*
X55774Y506695D01*
X55372Y508676D01*
X55372Y520020D01*
X55671Y521737D01*
X56720Y523466D01*
X58359Y524649D01*
X60330Y525098D01*
X62321Y524744D01*
X64015Y523640D01*
X64452Y522993D01*
X65337Y522108D01*
X65897Y521876D01*
X86503Y521876D01*
X86956Y522064D01*
X88860Y522450D01*
X90844Y522064D01*
X91297Y521876D01*
X111903Y521876D01*
X112356Y522064D01*
X114260Y522450D01*
X116244Y522064D01*
X116697Y521876D01*
X137303Y521876D01*
X137756Y522064D01*
X139660Y522450D01*
X141644Y522064D01*
X142097Y521876D01*
X162703Y521876D01*
X163263Y522108D01*
X163692Y522537D01*
X163924Y523097D01*
X163924Y543703D01*
X163736Y544156D01*
X163350Y546060D01*
X163736Y548044D01*
X163924Y548497D01*
X163924Y569103D01*
X163692Y569663D01*
X163263Y570092D01*
X162703Y570324D01*
X142097Y570324D01*
X141644Y570136D01*
X139741Y569750D01*
X137756Y570136D01*
X137303Y570324D01*
X116697Y570324D01*
X116244Y570136D01*
X114341Y569750D01*
X112356Y570136D01*
X111903Y570324D01*
X91297Y570324D01*
X90844Y570136D01*
X88941Y569750D01*
X86956Y570136D01*
X86503Y570324D01*
X65897Y570324D01*
X65329Y570089D01*
X63219Y568825D01*
X61206Y568637D01*
X59279Y569248D01*
X57743Y570563D01*
X56841Y572373D01*
X55223Y578412D01*
X51010Y585710D01*
X49674Y587046D01*
X49674Y587046D01*
X35458Y601262D01*
X34826Y602031D01*
X33371Y604209D01*
X32613Y606040D01*
X32102Y608609D01*
X32004Y609600D01*
X32004Y610965D01*
X32772Y613652D01*
X34162Y615120D01*
X36014Y615931D01*
X38035Y615955D01*
X39906Y615189D01*
X42640Y613363D01*
X43410Y612731D01*
X58114Y598026D01*
X58114Y598026D01*
X59450Y596690D01*
X66748Y592477D01*
X74888Y590296D01*
X229914Y590296D01*
X232848Y591511D01*
X234171Y591712D01*
X234125Y591930D01*
X234512Y593915D01*
X235204Y595586D01*
X235204Y598214D01*
X234199Y600641D01*
X232341Y602499D01*
X229914Y603504D01*
X79101Y603504D01*
X78110Y603602D01*
X72861Y604646D01*
X71030Y605404D01*
X66580Y608378D01*
X65810Y609009D01*
X52749Y622070D01*
X49770Y625050D01*
X44670Y627994D01*
X43705Y628717D01*
X42548Y630375D01*
X42130Y632353D01*
X42517Y634338D01*
X43463Y636622D01*
X44507Y638212D01*
X46175Y639356D01*
X48156Y639758D01*
X52973Y639758D01*
X56987Y641421D01*
X59908Y644342D01*
X61444Y645395D01*
X63419Y645829D01*
X65407Y645458D01*
X67092Y644342D01*
X70013Y641421D01*
X74027Y639758D01*
X78373Y639758D01*
X82387Y641421D01*
X85459Y644493D01*
X87122Y648507D01*
X87122Y652853D01*
X85459Y656867D01*
X82387Y659939D01*
X78373Y661602D01*
X74027Y661602D01*
X70013Y659939D01*
X67092Y657018D01*
X65556Y655965D01*
X63581Y655531D01*
X61593Y655902D01*
X59908Y657018D01*
X56987Y659939D01*
X52973Y661602D01*
X48628Y661602D01*
X47918Y661308D01*
X46136Y660924D01*
X44143Y661263D01*
X42440Y662353D01*
X41296Y664020D01*
X40894Y666001D01*
X40894Y671366D01*
X41265Y673273D01*
X42382Y674958D01*
X42598Y675174D01*
X43406Y677125D01*
X43406Y677460D01*
X43748Y679291D01*
X44837Y680994D01*
X46505Y682138D01*
X48486Y682540D01*
X53114Y682540D01*
X54945Y682198D01*
X56648Y681109D01*
X57792Y679441D01*
X58194Y677460D01*
X58194Y677125D01*
X59002Y675174D01*
X60494Y673682D01*
X62445Y672874D01*
X64555Y672874D01*
X66506Y673682D01*
X67998Y675174D01*
X68806Y677125D01*
X68806Y677460D01*
X69148Y679291D01*
X70237Y680994D01*
X71905Y682138D01*
X73886Y682540D01*
X149975Y682540D01*
X150006Y682534D01*
X152996Y682540D01*
X153022Y682540D01*
X153412Y682525D01*
X174779Y680879D01*
X175570Y680755D01*
X196413Y675770D01*
X197175Y675523D01*
X216975Y667323D01*
X217688Y666959D01*
X235953Y655749D01*
X236601Y655278D01*
X252876Y641336D01*
X253441Y640768D01*
X266741Y625123D01*
X267434Y624065D01*
X280096Y598183D01*
X280591Y595489D01*
X280010Y593552D01*
X278720Y591995D01*
X276925Y591065D01*
X274909Y590909D01*
X272992Y591551D01*
X269711Y593445D01*
X263312Y595160D01*
X256688Y595160D01*
X250289Y593445D01*
X244551Y590133D01*
X242797Y588379D01*
X241371Y587376D01*
X239772Y586984D01*
X239833Y586195D01*
X239191Y584278D01*
X236555Y579711D01*
X234840Y573312D01*
X234840Y566688D01*
X236555Y560289D01*
X239867Y554551D01*
X244551Y549867D01*
X250289Y546555D01*
X256688Y544840D01*
X263312Y544840D01*
X269711Y546555D01*
X275449Y549867D01*
X280133Y554551D01*
X283445Y560289D01*
X285310Y567248D01*
X286277Y569140D01*
X287840Y570423D01*
X289780Y570994D01*
X291788Y570764D01*
X293548Y569768D01*
X294780Y568165D01*
X482837Y183746D01*
X483135Y182784D01*
X483953Y181422D01*
X484160Y181041D01*
X485110Y179098D01*
X485326Y178817D01*
X494757Y159918D01*
X495053Y159188D01*
X502026Y137247D01*
X502206Y136481D01*
X505705Y113726D01*
X505764Y112941D01*
X505705Y89918D01*
X505642Y89133D01*
X502026Y66396D01*
X501842Y65631D01*
X494757Y43726D01*
X494457Y42998D01*
X484072Y22450D01*
X483663Y21777D01*
X470228Y3082D01*
X469720Y2480D01*
X453557Y-13915D01*
X452963Y-14431D01*
X434461Y-28132D01*
X433794Y-28550D01*
X413397Y-39227D01*
X412673Y-39537D01*
X390871Y-46935D01*
X390108Y-47129D01*
X367425Y-51069D01*
X366641Y-51143D01*
G37*
%LPC*%
G36*
X269097Y394876D02*
X289703Y394876D01*
X290263Y395108D01*
X290692Y395537D01*
X290924Y396097D01*
X290924Y416703D01*
X290736Y417156D01*
X290350Y419060D01*
X290736Y421044D01*
X290924Y421497D01*
X290924Y442103D01*
X290736Y442556D01*
X290350Y444460D01*
X290736Y446444D01*
X290924Y446897D01*
X290924Y467503D01*
X290736Y467956D01*
X290350Y469860D01*
X290736Y471844D01*
X290924Y472297D01*
X290924Y492903D01*
X290692Y493463D01*
X290263Y493892D01*
X289703Y494124D01*
X269097Y494124D01*
X268644Y493936D01*
X266741Y493550D01*
X264756Y493936D01*
X264303Y494124D01*
X243697Y494124D01*
X243244Y493936D01*
X241341Y493550D01*
X239356Y493936D01*
X238903Y494124D01*
X218297Y494124D01*
X217844Y493936D01*
X215941Y493550D01*
X213956Y493936D01*
X213503Y494124D01*
X192897Y494124D01*
X192337Y493892D01*
X191908Y493463D01*
X191676Y492903D01*
X191676Y472297D01*
X191908Y471737D01*
X192337Y471308D01*
X192897Y471076D01*
X211996Y471076D01*
X213827Y470734D01*
X215530Y469645D01*
X216674Y467977D01*
X217076Y465996D01*
X217076Y446897D01*
X217308Y446337D01*
X217737Y445908D01*
X218297Y445676D01*
X237396Y445676D01*
X239227Y445334D01*
X240930Y444245D01*
X242074Y442577D01*
X242476Y440596D01*
X242476Y421497D01*
X242708Y420937D01*
X243137Y420508D01*
X243697Y420276D01*
X262796Y420276D01*
X264627Y419934D01*
X266330Y418845D01*
X267474Y417177D01*
X267876Y415196D01*
X267876Y396097D01*
X268108Y395537D01*
X268537Y395108D01*
X269097Y394876D01*
G37*
G36*
X376482Y52555D02*
X384104Y52555D01*
X391146Y55472D01*
X396536Y60862D01*
X399453Y67904D01*
X399453Y75526D01*
X396536Y82568D01*
X391146Y87958D01*
X384104Y90875D01*
X376482Y90875D01*
X369439Y87958D01*
X364050Y82568D01*
X361133Y75526D01*
X361133Y67904D01*
X364050Y60862D01*
X369439Y55472D01*
X376482Y52555D01*
G37*
G36*
X419496Y10725D02*
X427118Y10725D01*
X434161Y13642D01*
X439550Y19032D01*
X442467Y26074D01*
X442467Y33696D01*
X439550Y40738D01*
X434161Y46128D01*
X427118Y49045D01*
X419496Y49045D01*
X412454Y46128D01*
X407064Y40738D01*
X404147Y33696D01*
X404147Y26074D01*
X407064Y19032D01*
X412454Y13642D01*
X419496Y10725D01*
G37*
%LPD*%
G36*
X42871Y520244D02*
X40871Y519950D01*
X38914Y520460D01*
X37312Y521693D01*
X36317Y523453D01*
X33703Y531498D01*
X27271Y540351D01*
X18418Y546783D01*
X8011Y550164D01*
X-161657Y550164D01*
X-162648Y550262D01*
X-163037Y550339D01*
X-164868Y551098D01*
X-165198Y551318D01*
X-165968Y551950D01*
X-170797Y556779D01*
X-173224Y557784D01*
X-175851Y557784D01*
X-178279Y556779D01*
X-180136Y554921D01*
X-181142Y552494D01*
X-181142Y549866D01*
X-180136Y547439D01*
X-173510Y540813D01*
X-169108Y538272D01*
X-165448Y537291D01*
X-163347Y536144D01*
X-162151Y534513D01*
X-161686Y532546D01*
X-162025Y530553D01*
X-163114Y528850D01*
X-164782Y527706D01*
X-166763Y527304D01*
X-243878Y527304D01*
X-245672Y527631D01*
X-247384Y528707D01*
X-248540Y530365D01*
X-248958Y532344D01*
X-248572Y534328D01*
X-247396Y537166D01*
X-247396Y540210D01*
X-247062Y542021D01*
X-245980Y543729D01*
X-244317Y544879D01*
X-239683Y546865D01*
X-237682Y547276D01*
X-218297Y547276D01*
X-217844Y547464D01*
X-215941Y547850D01*
X-213956Y547464D01*
X-213503Y547276D01*
X-192897Y547276D01*
X-192337Y547508D01*
X-191908Y547937D01*
X-191676Y548497D01*
X-191676Y569103D01*
X-191908Y569663D01*
X-192337Y570092D01*
X-192897Y570324D01*
X-213503Y570324D01*
X-213956Y570136D01*
X-215860Y569750D01*
X-217844Y570136D01*
X-218297Y570324D01*
X-238903Y570324D01*
X-239463Y570092D01*
X-239892Y569663D01*
X-240124Y569103D01*
X-240124Y564396D01*
X-240458Y562585D01*
X-241540Y560877D01*
X-243203Y559727D01*
X-250189Y556733D01*
X-252024Y554852D01*
X-253000Y552413D01*
X-252973Y550226D01*
X-253314Y548333D01*
X-254404Y546630D01*
X-256071Y545486D01*
X-258052Y545084D01*
X-268012Y545084D01*
X-269382Y544717D01*
X-270454Y544550D01*
X-272452Y544857D01*
X-274173Y545919D01*
X-275342Y547568D01*
X-275776Y549543D01*
X-275406Y551530D01*
X-274289Y553216D01*
X-273024Y554482D01*
X-270792Y559870D01*
X-270792Y565702D01*
X-271961Y568524D01*
X-272346Y570347D01*
X-271991Y572337D01*
X-270888Y574031D01*
X-269211Y575161D01*
X-263996Y577322D01*
X-259872Y581445D01*
X-257640Y586834D01*
X-257640Y592666D01*
X-259872Y598054D01*
X-263996Y602178D01*
X-269667Y604526D01*
X-271207Y604857D01*
X-272849Y606037D01*
X-273900Y607764D01*
X-274195Y609764D01*
X-273686Y611721D01*
X-267653Y624059D01*
X-266960Y625118D01*
X-253661Y640763D01*
X-253095Y641331D01*
X-236820Y655275D01*
X-236172Y655746D01*
X-217907Y666958D01*
X-217193Y667322D01*
X-197393Y675522D01*
X-196630Y675769D01*
X-175787Y680755D01*
X-174995Y680879D01*
X-153627Y682525D01*
X-153237Y682540D01*
X-153211Y682540D01*
X-150221Y682534D01*
X-150190Y682540D01*
X-73886Y682540D01*
X-72055Y682198D01*
X-70352Y681109D01*
X-69208Y679441D01*
X-68806Y677460D01*
X-68806Y677125D01*
X-67998Y675174D01*
X-66506Y673682D01*
X-64555Y672874D01*
X-62445Y672874D01*
X-60494Y673682D01*
X-59002Y675174D01*
X-58194Y677125D01*
X-58194Y677460D01*
X-57852Y679291D01*
X-56763Y680994D01*
X-55095Y682138D01*
X-53114Y682540D01*
X-48486Y682540D01*
X-46655Y682198D01*
X-44952Y681109D01*
X-43808Y679441D01*
X-43406Y677460D01*
X-43406Y677125D01*
X-42598Y675174D01*
X-41106Y673682D01*
X-39155Y672874D01*
X-37045Y672874D01*
X-35094Y673682D01*
X-33602Y675174D01*
X-32794Y677125D01*
X-32794Y677460D01*
X-32452Y679291D01*
X-31363Y680994D01*
X-29695Y682138D01*
X-27714Y682540D01*
X-23086Y682540D01*
X-21255Y682198D01*
X-19552Y681109D01*
X-18408Y679441D01*
X-18006Y677460D01*
X-18006Y677125D01*
X-17198Y675174D01*
X-15706Y673682D01*
X-13755Y672874D01*
X-11645Y672874D01*
X-9694Y673682D01*
X-8202Y675174D01*
X-7394Y677125D01*
X-7394Y677460D01*
X-7052Y679291D01*
X-5963Y680994D01*
X-4295Y682138D01*
X-2314Y682540D01*
X2314Y682540D01*
X4145Y682198D01*
X5848Y681109D01*
X6992Y679441D01*
X7394Y677460D01*
X7394Y677125D01*
X8202Y675174D01*
X9694Y673682D01*
X11645Y672874D01*
X13755Y672874D01*
X15706Y673682D01*
X17198Y675174D01*
X18006Y677125D01*
X18006Y677460D01*
X18348Y679291D01*
X19437Y680994D01*
X21105Y682138D01*
X23086Y682540D01*
X27714Y682540D01*
X29545Y682198D01*
X31248Y681109D01*
X32392Y679441D01*
X32794Y677460D01*
X32794Y677125D01*
X33602Y675174D01*
X33818Y674958D01*
X34904Y673347D01*
X35306Y671366D01*
X35306Y666001D01*
X34979Y664208D01*
X33903Y662496D01*
X32245Y661340D01*
X30266Y660922D01*
X28282Y661308D01*
X27572Y661602D01*
X23227Y661602D01*
X19213Y659939D01*
X16292Y657018D01*
X14756Y655965D01*
X12781Y655531D01*
X10793Y655902D01*
X9108Y657018D01*
X6187Y659939D01*
X2173Y661602D01*
X-2173Y661602D01*
X-6187Y659939D01*
X-9108Y657018D01*
X-10644Y655965D01*
X-12619Y655531D01*
X-14607Y655902D01*
X-16292Y657018D01*
X-19213Y659939D01*
X-23227Y661602D01*
X-27573Y661602D01*
X-31587Y659939D01*
X-34508Y657018D01*
X-36044Y655965D01*
X-38019Y655531D01*
X-40007Y655902D01*
X-41692Y657018D01*
X-44613Y659939D01*
X-48627Y661602D01*
X-52973Y661602D01*
X-56987Y659939D01*
X-59190Y657737D01*
X-60726Y656683D01*
X-62701Y656249D01*
X-64688Y656620D01*
X-66374Y657737D01*
X-69438Y660801D01*
X-73825Y662618D01*
X-75438Y662618D01*
X-75438Y638742D01*
X-73825Y638742D01*
X-69438Y640559D01*
X-66374Y643623D01*
X-64837Y644677D01*
X-62863Y645111D01*
X-60875Y644740D01*
X-59190Y643623D01*
X-56987Y641421D01*
X-52973Y639758D01*
X-51322Y639758D01*
X-49415Y639387D01*
X-47730Y638270D01*
X-35426Y625966D01*
X-35426Y625966D01*
X-34090Y624630D01*
X-26792Y620417D01*
X-18652Y618236D01*
X14226Y618236D01*
X16020Y617909D01*
X17732Y616833D01*
X18888Y615175D01*
X19306Y613196D01*
X18920Y611212D01*
X18796Y610914D01*
X18796Y606309D01*
X20500Y599950D01*
X23791Y594249D01*
X38691Y579350D01*
X39323Y578580D01*
X42296Y574130D01*
X43054Y572299D01*
X44098Y567050D01*
X44196Y566059D01*
X44196Y564745D01*
X45441Y561739D01*
X45826Y561169D01*
X46228Y559187D01*
X46228Y525023D01*
X45779Y522935D01*
X44598Y521294D01*
X42871Y520244D01*
G37*
%LPC*%
G36*
X-88138Y651442D02*
X-76962Y651442D01*
X-76962Y662618D01*
X-78575Y662618D01*
X-82962Y660801D01*
X-86321Y657442D01*
X-88138Y653055D01*
X-88138Y651442D01*
G37*
G36*
X-78575Y638742D02*
X-76962Y638742D01*
X-76962Y649918D01*
X-88138Y649918D01*
X-88138Y648305D01*
X-86321Y643918D01*
X-82962Y640559D01*
X-78575Y638742D01*
G37*
G36*
X-151638Y622460D02*
X-141895Y622460D01*
X-141644Y622564D01*
X-139741Y622950D01*
X-137756Y622564D01*
X-137505Y622460D01*
X-127762Y622460D01*
X-127762Y647540D01*
X-137505Y647540D01*
X-137756Y647436D01*
X-139659Y647050D01*
X-141644Y647436D01*
X-141895Y647540D01*
X-151638Y647540D01*
X-151638Y622460D01*
G37*
G36*
X-177038Y622460D02*
X-167295Y622460D01*
X-167044Y622564D01*
X-165141Y622950D01*
X-163156Y622564D01*
X-162905Y622460D01*
X-153162Y622460D01*
X-153162Y647540D01*
X-162905Y647540D01*
X-163156Y647436D01*
X-165059Y647050D01*
X-167044Y647436D01*
X-167295Y647540D01*
X-177038Y647540D01*
X-177038Y622460D01*
G37*
G36*
X-126238Y635762D02*
X-114460Y635762D01*
X-114460Y645505D01*
X-114847Y646439D01*
X-115561Y647153D01*
X-116495Y647540D01*
X-126238Y647540D01*
X-126238Y635762D01*
G37*
G36*
X-190340Y635762D02*
X-178562Y635762D01*
X-178562Y647540D01*
X-188305Y647540D01*
X-189239Y647153D01*
X-189953Y646439D01*
X-190340Y645505D01*
X-190340Y635762D01*
G37*
G36*
X-188305Y622460D02*
X-178562Y622460D01*
X-178562Y634238D01*
X-190340Y634238D01*
X-190340Y624495D01*
X-189953Y623561D01*
X-189239Y622847D01*
X-188305Y622460D01*
G37*
G36*
X-126238Y622460D02*
X-116495Y622460D01*
X-115561Y622847D01*
X-114847Y623561D01*
X-114460Y624495D01*
X-114460Y634238D01*
X-126238Y634238D01*
X-126238Y622460D01*
G37*
G36*
X8846Y569976D02*
X11474Y569976D01*
X13901Y570981D01*
X15759Y572839D01*
X16764Y575266D01*
X16764Y577894D01*
X15759Y580321D01*
X-591Y596670D01*
X-3570Y599650D01*
X-10868Y603863D01*
X-19008Y606044D01*
X-204514Y606044D01*
X-206941Y605039D01*
X-208799Y603181D01*
X-209804Y600754D01*
X-209804Y598126D01*
X-208799Y595699D01*
X-206941Y593841D01*
X-204514Y592836D01*
X-23221Y592836D01*
X-22230Y592738D01*
X-16981Y591694D01*
X-15150Y590936D01*
X-10700Y587963D01*
X-9930Y587331D01*
X6419Y570981D01*
X8846Y569976D01*
G37*
%LPD*%
G36*
X-297508Y-53885D02*
X-319296Y-57995D01*
X-321993Y-57771D01*
X-323713Y-56708D01*
X-324883Y-55059D01*
X-325317Y-53084D01*
X-324946Y-51097D01*
X-323830Y-49411D01*
X-319867Y-45449D01*
X-316555Y-39711D01*
X-314840Y-33312D01*
X-314840Y-26688D01*
X-316555Y-20289D01*
X-319867Y-14551D01*
X-324551Y-9867D01*
X-330289Y-6555D01*
X-336688Y-4840D01*
X-343312Y-4840D01*
X-349711Y-6555D01*
X-355449Y-9867D01*
X-360133Y-14551D01*
X-363445Y-20289D01*
X-365160Y-26688D01*
X-365160Y-33312D01*
X-363445Y-39711D01*
X-360133Y-45449D01*
X-356572Y-49009D01*
X-355325Y-51058D01*
X-355106Y-53068D01*
X-355689Y-55004D01*
X-356980Y-56559D01*
X-358776Y-57488D01*
X-360792Y-57642D01*
X-372175Y-56226D01*
X-372946Y-56069D01*
X-396571Y-49303D01*
X-397308Y-49028D01*
X-419604Y-38693D01*
X-420290Y-38307D01*
X-440721Y-24651D01*
X-441340Y-24164D01*
X-459415Y-7515D01*
X-459951Y-6938D01*
X-475236Y12304D01*
X-475677Y12956D01*
X-487805Y34329D01*
X-488140Y35042D01*
X-496820Y58032D01*
X-497040Y58788D01*
X-502064Y82844D01*
X-502165Y83625D01*
X-503411Y108167D01*
X-503390Y108954D01*
X-500829Y133395D01*
X-500687Y134169D01*
X-494380Y157921D01*
X-494120Y158664D01*
X-484326Y180911D01*
X-484241Y181096D01*
X-483998Y181592D01*
X-483911Y181761D01*
X-482812Y183812D01*
X-482671Y184306D01*
X-374226Y406096D01*
X-372913Y407768D01*
X-371133Y408727D01*
X-369120Y408916D01*
X-367193Y408304D01*
X-365657Y406989D01*
X-364756Y405179D01*
X-363445Y400289D01*
X-360133Y394551D01*
X-355449Y389867D01*
X-349711Y386555D01*
X-343312Y384840D01*
X-336688Y384840D01*
X-330289Y386555D01*
X-324551Y389867D01*
X-319867Y394551D01*
X-316555Y400289D01*
X-314840Y406688D01*
X-314840Y413312D01*
X-316555Y419711D01*
X-319867Y425449D01*
X-324551Y430133D01*
X-330289Y433445D01*
X-336688Y435160D01*
X-343312Y435160D01*
X-349711Y433445D01*
X-350821Y432805D01*
X-353474Y432125D01*
X-355446Y432571D01*
X-357088Y433752D01*
X-358139Y435478D01*
X-358434Y437479D01*
X-357925Y439435D01*
X-303553Y550638D01*
X-302694Y551882D01*
X-301045Y553052D01*
X-299070Y553486D01*
X-297082Y553115D01*
X-295397Y551998D01*
X-293756Y550358D01*
X-288368Y548126D01*
X-286065Y548126D01*
X-284986Y548010D01*
X-283135Y547196D01*
X-281749Y545725D01*
X-281046Y543829D01*
X-281138Y541809D01*
X-282010Y539986D01*
X-283252Y538887D01*
X-286429Y535710D01*
X-296054Y526086D01*
X-296054Y526086D01*
X-297390Y524750D01*
X-301603Y517452D01*
X-303784Y509312D01*
X-303784Y310288D01*
X-301603Y302148D01*
X-297390Y294850D01*
X-294410Y291871D01*
X-88610Y86070D01*
X-87524Y84460D01*
X-87122Y82478D01*
X-87122Y80827D01*
X-85459Y76813D01*
X-82387Y73741D01*
X-78373Y72078D01*
X-74027Y72078D01*
X-70013Y73741D01*
X-66941Y76813D01*
X-65278Y80827D01*
X-65278Y85173D01*
X-66941Y89187D01*
X-69143Y91390D01*
X-70197Y92926D01*
X-70631Y94901D01*
X-70260Y96888D01*
X-69143Y98574D01*
X-66079Y101638D01*
X-65269Y103596D01*
X-64280Y105127D01*
X-62631Y106297D01*
X-60656Y106731D01*
X-58669Y106360D01*
X-56983Y105244D01*
X21734Y26526D01*
X21734Y26526D01*
X23070Y25190D01*
X30368Y20977D01*
X33466Y20147D01*
X35567Y19000D01*
X36763Y17369D01*
X37229Y15402D01*
X36890Y13409D01*
X35800Y11706D01*
X34133Y10562D01*
X32151Y10160D01*
X-165565Y10160D01*
X-166581Y10316D01*
X-168130Y10180D01*
X-168576Y10160D01*
X-170132Y10160D01*
X-171130Y9916D01*
X-177487Y9356D01*
X-194361Y4930D01*
X-210253Y-2266D01*
X-224711Y-12028D01*
X-230708Y-17757D01*
X-231135Y-18122D01*
X-250610Y-32986D01*
X-251271Y-33414D01*
X-272875Y-45126D01*
X-273594Y-45446D01*
X-296748Y-53679D01*
X-297508Y-53885D01*
G37*
%LPC*%
G36*
X-391303Y115476D02*
X-370697Y115476D01*
X-370244Y115664D01*
X-368341Y116050D01*
X-366356Y115664D01*
X-365903Y115476D01*
X-345297Y115476D01*
X-344844Y115664D01*
X-342941Y116050D01*
X-340956Y115664D01*
X-340503Y115476D01*
X-319897Y115476D01*
X-319444Y115664D01*
X-317541Y116050D01*
X-315556Y115664D01*
X-315103Y115476D01*
X-294497Y115476D01*
X-294044Y115664D01*
X-292141Y116050D01*
X-290156Y115664D01*
X-289703Y115476D01*
X-269097Y115476D01*
X-268644Y115664D01*
X-266741Y116050D01*
X-264756Y115664D01*
X-264303Y115476D01*
X-243697Y115476D01*
X-243244Y115664D01*
X-241341Y116050D01*
X-239356Y115664D01*
X-238903Y115476D01*
X-218297Y115476D01*
X-217844Y115664D01*
X-215941Y116050D01*
X-213956Y115664D01*
X-213503Y115476D01*
X-192897Y115476D01*
X-192444Y115664D01*
X-190541Y116050D01*
X-188556Y115664D01*
X-188103Y115476D01*
X-167497Y115476D01*
X-166937Y115708D01*
X-166508Y116137D01*
X-166276Y116697D01*
X-166276Y137303D01*
X-166508Y137863D01*
X-166937Y138292D01*
X-167497Y138524D01*
X-186596Y138524D01*
X-188427Y138866D01*
X-190130Y139955D01*
X-191274Y141623D01*
X-191676Y143604D01*
X-191676Y162703D01*
X-191908Y163263D01*
X-192337Y163692D01*
X-192897Y163924D01*
X-211996Y163924D01*
X-213827Y164266D01*
X-215530Y165355D01*
X-216674Y167023D01*
X-217076Y169004D01*
X-217076Y188103D01*
X-217308Y188663D01*
X-217737Y189092D01*
X-218297Y189324D01*
X-237396Y189324D01*
X-239227Y189666D01*
X-240930Y190755D01*
X-242074Y192423D01*
X-242476Y194404D01*
X-242476Y213503D01*
X-242708Y214063D01*
X-243137Y214492D01*
X-243697Y214724D01*
X-262796Y214724D01*
X-264627Y215066D01*
X-266330Y216155D01*
X-267474Y217823D01*
X-267876Y219804D01*
X-267876Y238903D01*
X-268108Y239463D01*
X-268537Y239892D01*
X-269097Y240124D01*
X-288196Y240124D01*
X-290027Y240466D01*
X-291730Y241555D01*
X-292874Y243223D01*
X-293276Y245204D01*
X-293276Y264303D01*
X-293508Y264863D01*
X-293937Y265292D01*
X-294497Y265524D01*
X-313596Y265524D01*
X-315427Y265866D01*
X-317130Y266955D01*
X-318274Y268623D01*
X-318676Y270604D01*
X-318676Y289703D01*
X-318864Y290156D01*
X-319250Y292060D01*
X-318864Y294044D01*
X-318676Y294497D01*
X-318676Y315103D01*
X-318864Y315556D01*
X-319250Y317460D01*
X-318864Y319444D01*
X-318676Y319897D01*
X-318676Y340503D01*
X-318864Y340956D01*
X-319250Y342860D01*
X-318864Y344844D01*
X-318676Y345297D01*
X-318676Y365903D01*
X-318908Y366463D01*
X-319337Y366892D01*
X-319897Y367124D01*
X-340503Y367124D01*
X-340956Y366936D01*
X-342860Y366550D01*
X-344844Y366936D01*
X-345297Y367124D01*
X-365903Y367124D01*
X-366463Y366892D01*
X-366892Y366463D01*
X-367124Y365903D01*
X-367124Y345297D01*
X-366936Y344844D01*
X-366550Y342941D01*
X-366936Y340956D01*
X-367124Y340503D01*
X-367124Y321404D01*
X-367466Y319573D01*
X-368555Y317870D01*
X-370223Y316726D01*
X-372204Y316324D01*
X-391303Y316324D01*
X-391863Y316092D01*
X-392292Y315663D01*
X-392524Y315103D01*
X-392524Y294497D01*
X-392336Y294044D01*
X-391950Y292141D01*
X-392336Y290156D01*
X-392524Y289703D01*
X-392524Y269097D01*
X-392336Y268644D01*
X-391950Y266741D01*
X-392336Y264756D01*
X-392524Y264303D01*
X-392524Y243697D01*
X-392336Y243244D01*
X-391950Y241341D01*
X-392336Y239356D01*
X-392524Y238903D01*
X-392524Y219804D01*
X-392866Y217973D01*
X-393955Y216270D01*
X-395623Y215126D01*
X-397604Y214724D01*
X-416703Y214724D01*
X-417263Y214492D01*
X-417692Y214063D01*
X-417924Y213503D01*
X-417924Y192897D01*
X-417736Y192444D01*
X-417350Y190541D01*
X-417736Y188556D01*
X-417924Y188103D01*
X-417924Y167497D01*
X-417736Y167044D01*
X-417350Y165141D01*
X-417736Y163156D01*
X-417924Y162703D01*
X-417924Y142097D01*
X-417692Y141537D01*
X-417263Y141108D01*
X-416703Y140876D01*
X-397604Y140876D01*
X-395773Y140534D01*
X-394070Y139445D01*
X-392926Y137777D01*
X-392524Y135796D01*
X-392524Y116697D01*
X-392292Y116137D01*
X-391863Y115708D01*
X-391303Y115476D01*
G37*
%LPD*%
G36*
X63408Y211325D02*
X61434Y210892D01*
X59446Y211262D01*
X57761Y212379D01*
X21309Y248830D01*
X20678Y249600D01*
X17704Y254050D01*
X16946Y255881D01*
X15902Y261130D01*
X15804Y262121D01*
X15804Y458514D01*
X14559Y461520D01*
X14174Y462090D01*
X13772Y464072D01*
X13772Y470885D01*
X14128Y472754D01*
X15231Y474448D01*
X16019Y474979D01*
X16842Y475802D01*
X17074Y476362D01*
X17074Y480348D01*
X17416Y482179D01*
X18505Y483882D01*
X20173Y485026D01*
X20313Y485054D01*
X27564Y488058D01*
X32423Y492916D01*
X35052Y499264D01*
X35052Y508748D01*
X35423Y510655D01*
X35819Y511252D01*
X36455Y512787D01*
X37388Y514259D01*
X39019Y515455D01*
X40986Y515920D01*
X42979Y515582D01*
X44682Y514492D01*
X45826Y512824D01*
X46228Y510843D01*
X46228Y499264D01*
X48858Y492916D01*
X53716Y488058D01*
X59790Y485542D01*
X61380Y484497D01*
X62524Y482830D01*
X62926Y480848D01*
X62926Y476362D01*
X63158Y475802D01*
X63936Y475024D01*
X64682Y474534D01*
X65826Y472866D01*
X66228Y470885D01*
X66228Y438672D01*
X65857Y436765D01*
X64740Y435080D01*
X43544Y413884D01*
X43544Y413884D01*
X42208Y412548D01*
X37995Y405250D01*
X35814Y397110D01*
X35814Y326290D01*
X37995Y318150D01*
X42208Y310852D01*
X45188Y307873D01*
X63790Y289270D01*
X64876Y287660D01*
X65278Y285678D01*
X65278Y284027D01*
X66941Y280013D01*
X69862Y277092D01*
X70915Y275556D01*
X71349Y273581D01*
X70978Y271593D01*
X69862Y269908D01*
X66941Y266987D01*
X65278Y262973D01*
X65278Y258627D01*
X66941Y254613D01*
X69862Y251692D01*
X70915Y250156D01*
X71349Y248181D01*
X70978Y246193D01*
X69862Y244508D01*
X66941Y241587D01*
X65278Y237573D01*
X65278Y233227D01*
X66941Y229213D01*
X69862Y226292D01*
X70915Y224756D01*
X71349Y222781D01*
X70978Y220793D01*
X69862Y219108D01*
X66941Y216187D01*
X66046Y214027D01*
X65058Y212495D01*
X63408Y211325D01*
G37*
G36*
X-216068Y411385D02*
X-218090Y411377D01*
X-219239Y411606D01*
X-221070Y412364D01*
X-225520Y415337D01*
X-226290Y415969D01*
X-226651Y416330D01*
X-229630Y419310D01*
X-236928Y423523D01*
X-245068Y425704D01*
X-283254Y425704D01*
X-283552Y425580D01*
X-285334Y425196D01*
X-287327Y425535D01*
X-289030Y426625D01*
X-290174Y428292D01*
X-290576Y430274D01*
X-290576Y500112D01*
X-290263Y501868D01*
X-289201Y503588D01*
X-287552Y504758D01*
X-285577Y505192D01*
X-283589Y504821D01*
X-281904Y503704D01*
X-280601Y502401D01*
X-278174Y501396D01*
X-275546Y501396D01*
X-273119Y502401D01*
X-266930Y508591D01*
X-266160Y509223D01*
X-261710Y512196D01*
X-259879Y512954D01*
X-254630Y513998D01*
X-253639Y514096D01*
X-201026Y514096D01*
X-199947Y513980D01*
X-198097Y513166D01*
X-196710Y511695D01*
X-196007Y509799D01*
X-196099Y507780D01*
X-196971Y505956D01*
X-198486Y504617D01*
X-205212Y500733D01*
X-208191Y497754D01*
X-233804Y472141D01*
X-235267Y471121D01*
X-237234Y470656D01*
X-239227Y470995D01*
X-240930Y472085D01*
X-242074Y473752D01*
X-242476Y475734D01*
X-242476Y492903D01*
X-242708Y493463D01*
X-243137Y493892D01*
X-243697Y494124D01*
X-264303Y494124D01*
X-264863Y493892D01*
X-265292Y493463D01*
X-265524Y492903D01*
X-265524Y472297D01*
X-265336Y471844D01*
X-264950Y469941D01*
X-265336Y467956D01*
X-265524Y467503D01*
X-265524Y446897D01*
X-265292Y446337D01*
X-264863Y445908D01*
X-264303Y445676D01*
X-243697Y445676D01*
X-243137Y445908D01*
X-242708Y446337D01*
X-242476Y446897D01*
X-242476Y456272D01*
X-242163Y458028D01*
X-241101Y459748D01*
X-239452Y460918D01*
X-237477Y461352D01*
X-235489Y460981D01*
X-235078Y460709D01*
X-231917Y459399D01*
X-229289Y459399D01*
X-226862Y460404D01*
X-223396Y463870D01*
X-221933Y464890D01*
X-219966Y465356D01*
X-217973Y465017D01*
X-216270Y463927D01*
X-215126Y462260D01*
X-214724Y460278D01*
X-214724Y446897D01*
X-214536Y446444D01*
X-214150Y444541D01*
X-214536Y442556D01*
X-214724Y442103D01*
X-214724Y421497D01*
X-214492Y420937D01*
X-213507Y419952D01*
X-212160Y417548D01*
X-212088Y415528D01*
X-212809Y413639D01*
X-214210Y412181D01*
X-216068Y411385D01*
G37*
G36*
X-21292Y194426D02*
X-23267Y193992D01*
X-25254Y194363D01*
X-26940Y195479D01*
X-38691Y207230D01*
X-39323Y208000D01*
X-42296Y212450D01*
X-43054Y214281D01*
X-44098Y219530D01*
X-44196Y220521D01*
X-44196Y221835D01*
X-45441Y224841D01*
X-45826Y225411D01*
X-46228Y227393D01*
X-46228Y478975D01*
X-48858Y485323D01*
X-50638Y487104D01*
X-51724Y488715D01*
X-52126Y490696D01*
X-52126Y493834D01*
X-52371Y495040D01*
X-52126Y496296D01*
X-52126Y503638D01*
X-52358Y504198D01*
X-53228Y505069D01*
X-53524Y505256D01*
X-54720Y506887D01*
X-55185Y508854D01*
X-54847Y510847D01*
X-53757Y512550D01*
X-52089Y513694D01*
X-50108Y514096D01*
X-6368Y514096D01*
X-4650Y513797D01*
X-2922Y512748D01*
X-1739Y511109D01*
X-1289Y509137D01*
X-1644Y507147D01*
X-2747Y505453D01*
X-4424Y504323D01*
X-9784Y502103D01*
X-14643Y497244D01*
X-17272Y490896D01*
X-17272Y214693D01*
X-17643Y212786D01*
X-18039Y212189D01*
X-19304Y209135D01*
X-19304Y203608D01*
X-18441Y200386D01*
X-18274Y199314D01*
X-18581Y197316D01*
X-19643Y195596D01*
X-21292Y194426D01*
G37*
G36*
X-88992Y185925D02*
X-90966Y185492D01*
X-92954Y185862D01*
X-94639Y186979D01*
X-166864Y259204D01*
X-167884Y260667D01*
X-168350Y262634D01*
X-168184Y263611D01*
X-168923Y263448D01*
X-170911Y263819D01*
X-172596Y264936D01*
X-192264Y284604D01*
X-193284Y286067D01*
X-193750Y288034D01*
X-193584Y289011D01*
X-194323Y288848D01*
X-196311Y289219D01*
X-197996Y290336D01*
X-217664Y310004D01*
X-218684Y311467D01*
X-219150Y313434D01*
X-218984Y314411D01*
X-219723Y314248D01*
X-221711Y314619D01*
X-223396Y315736D01*
X-234271Y326610D01*
X-234903Y327380D01*
X-237876Y331830D01*
X-238634Y333661D01*
X-239678Y338910D01*
X-239776Y339901D01*
X-239776Y398966D01*
X-239174Y401364D01*
X-237884Y402921D01*
X-236089Y403851D01*
X-234073Y404008D01*
X-232156Y403365D01*
X-225352Y399437D01*
X-218348Y397560D01*
X-216158Y396330D01*
X-215002Y394672D01*
X-214583Y392694D01*
X-214724Y391972D01*
X-214724Y370697D01*
X-214536Y370244D01*
X-214150Y368341D01*
X-214536Y366356D01*
X-214724Y365903D01*
X-214724Y345297D01*
X-214536Y344844D01*
X-214150Y342941D01*
X-214536Y340956D01*
X-214724Y340503D01*
X-214724Y319328D01*
X-214869Y318514D01*
X-214072Y318676D01*
X-194404Y318676D01*
X-192573Y318334D01*
X-190870Y317245D01*
X-189726Y315577D01*
X-189324Y313596D01*
X-189324Y293928D01*
X-189469Y293114D01*
X-188672Y293276D01*
X-169004Y293276D01*
X-167173Y292934D01*
X-165470Y291845D01*
X-164326Y290177D01*
X-163924Y288196D01*
X-163924Y268528D01*
X-164069Y267714D01*
X-163272Y267876D01*
X-142097Y267876D01*
X-141537Y268108D01*
X-141108Y268537D01*
X-140876Y269097D01*
X-140876Y289703D01*
X-141064Y290156D01*
X-141450Y292060D01*
X-141064Y294044D01*
X-140876Y294497D01*
X-140876Y315103D01*
X-141064Y315556D01*
X-141450Y317460D01*
X-141064Y319444D01*
X-140876Y319897D01*
X-140876Y330136D01*
X-140577Y331854D01*
X-139528Y333582D01*
X-137889Y334765D01*
X-135917Y335215D01*
X-133927Y334860D01*
X-132233Y333757D01*
X-131103Y332080D01*
X-130879Y331539D01*
X-129021Y329681D01*
X-126594Y328676D01*
X-123966Y328676D01*
X-121539Y329681D01*
X-119681Y331539D01*
X-118676Y333966D01*
X-118676Y406917D01*
X-120566Y412733D01*
X-124160Y417680D01*
X-129107Y421274D01*
X-134923Y423164D01*
X-158794Y423164D01*
X-161221Y422159D01*
X-163079Y420301D01*
X-164084Y417874D01*
X-164084Y415544D01*
X-164426Y413713D01*
X-165515Y412010D01*
X-167183Y410866D01*
X-169164Y410464D01*
X-191046Y410464D01*
X-192764Y410763D01*
X-194492Y411812D01*
X-195675Y413451D01*
X-196125Y415423D01*
X-195770Y417413D01*
X-194667Y419107D01*
X-192990Y420237D01*
X-192337Y420508D01*
X-191908Y420937D01*
X-191676Y421497D01*
X-191676Y440596D01*
X-191334Y442427D01*
X-190245Y444130D01*
X-188577Y445274D01*
X-186596Y445676D01*
X-167497Y445676D01*
X-167044Y445864D01*
X-165141Y446250D01*
X-163156Y445864D01*
X-162703Y445676D01*
X-142097Y445676D01*
X-141644Y445864D01*
X-139741Y446250D01*
X-137756Y445864D01*
X-137303Y445676D01*
X-116697Y445676D01*
X-116244Y445864D01*
X-114341Y446250D01*
X-112356Y445864D01*
X-111903Y445676D01*
X-91297Y445676D01*
X-90737Y445908D01*
X-90308Y446337D01*
X-90076Y446897D01*
X-90076Y467503D01*
X-90308Y468063D01*
X-90737Y468492D01*
X-91297Y468724D01*
X-111903Y468724D01*
X-112356Y468536D01*
X-114260Y468150D01*
X-116244Y468536D01*
X-116697Y468724D01*
X-137303Y468724D01*
X-137756Y468536D01*
X-139660Y468150D01*
X-141644Y468536D01*
X-142097Y468724D01*
X-162703Y468724D01*
X-163156Y468536D01*
X-165060Y468150D01*
X-167044Y468536D01*
X-167497Y468724D01*
X-188103Y468724D01*
X-188556Y468536D01*
X-190460Y468150D01*
X-192444Y468536D01*
X-192897Y468724D01*
X-206278Y468724D01*
X-208034Y469037D01*
X-209754Y470099D01*
X-210924Y471748D01*
X-211358Y473723D01*
X-210987Y475711D01*
X-209870Y477396D01*
X-198852Y488415D01*
X-198082Y489046D01*
X-193632Y492020D01*
X-191801Y492778D01*
X-186552Y493822D01*
X-185561Y493920D01*
X-95206Y493920D01*
X-92779Y494925D01*
X-90921Y496783D01*
X-89916Y499210D01*
X-89916Y501837D01*
X-90921Y504265D01*
X-92081Y505424D01*
X-93101Y506887D01*
X-93566Y508854D01*
X-93227Y510847D01*
X-92137Y512550D01*
X-90470Y513694D01*
X-88489Y514096D01*
X-69892Y514096D01*
X-68175Y513797D01*
X-66446Y512748D01*
X-65263Y511109D01*
X-64813Y509138D01*
X-65168Y507147D01*
X-66271Y505453D01*
X-66628Y505212D01*
X-67642Y504198D01*
X-67874Y503638D01*
X-67874Y496326D01*
X-67629Y495120D01*
X-67874Y493864D01*
X-67874Y486522D01*
X-67642Y485962D01*
X-67213Y485533D01*
X-66653Y485301D01*
X-63871Y485301D01*
X-61964Y484930D01*
X-60279Y483813D01*
X-59110Y482644D01*
X-59110Y482644D01*
X-57753Y481287D01*
X-56651Y479639D01*
X-55759Y477484D01*
X-55372Y475540D01*
X-55372Y366196D01*
X-55671Y364479D01*
X-56720Y362750D01*
X-57178Y362419D01*
X-56918Y362253D01*
X-55774Y360585D01*
X-55372Y358604D01*
X-55372Y340796D01*
X-55671Y339079D01*
X-56720Y337350D01*
X-57178Y337019D01*
X-56918Y336853D01*
X-55774Y335185D01*
X-55372Y333204D01*
X-55372Y315396D01*
X-55671Y313679D01*
X-56720Y311950D01*
X-57178Y311619D01*
X-56918Y311453D01*
X-55774Y309785D01*
X-55372Y307804D01*
X-55372Y289996D01*
X-55671Y288279D01*
X-56720Y286550D01*
X-57178Y286219D01*
X-56918Y286053D01*
X-55774Y284385D01*
X-55372Y282404D01*
X-55372Y264596D01*
X-55671Y262879D01*
X-56720Y261150D01*
X-57178Y260819D01*
X-56918Y260653D01*
X-55774Y258985D01*
X-55372Y257004D01*
X-55372Y239196D01*
X-55671Y237479D01*
X-56720Y235750D01*
X-57178Y235419D01*
X-56918Y235253D01*
X-55774Y233585D01*
X-55372Y231604D01*
X-55372Y227393D01*
X-55743Y225486D01*
X-56139Y224889D01*
X-57404Y221835D01*
X-57404Y218702D01*
X-57703Y216985D01*
X-58752Y215256D01*
X-60391Y214073D01*
X-62363Y213623D01*
X-64353Y213978D01*
X-66047Y215081D01*
X-66486Y215732D01*
X-69862Y219108D01*
X-70915Y220644D01*
X-71349Y222619D01*
X-70978Y224607D01*
X-69862Y226292D01*
X-66941Y229213D01*
X-65145Y233548D01*
X-64212Y235020D01*
X-63718Y235382D01*
X-64015Y235576D01*
X-65145Y237252D01*
X-66941Y241587D01*
X-69862Y244508D01*
X-70915Y246044D01*
X-71349Y248019D01*
X-70978Y250007D01*
X-69862Y251692D01*
X-66941Y254613D01*
X-65145Y258948D01*
X-64212Y260420D01*
X-63718Y260782D01*
X-64015Y260976D01*
X-65145Y262652D01*
X-66941Y266987D01*
X-69862Y269908D01*
X-70915Y271444D01*
X-71349Y273419D01*
X-70978Y275407D01*
X-69862Y277092D01*
X-66941Y280013D01*
X-65145Y284348D01*
X-64212Y285820D01*
X-63718Y286182D01*
X-64015Y286376D01*
X-65145Y288052D01*
X-66941Y292387D01*
X-69862Y295308D01*
X-70915Y296844D01*
X-71349Y298819D01*
X-70978Y300807D01*
X-69862Y302492D01*
X-66941Y305413D01*
X-65145Y309748D01*
X-64212Y311220D01*
X-63718Y311582D01*
X-64015Y311776D01*
X-65145Y313452D01*
X-66941Y317787D01*
X-69862Y320708D01*
X-70915Y322244D01*
X-71349Y324219D01*
X-70978Y326207D01*
X-69862Y327892D01*
X-66941Y330813D01*
X-65145Y335148D01*
X-64212Y336620D01*
X-63718Y336982D01*
X-64015Y337176D01*
X-65145Y338852D01*
X-66941Y343187D01*
X-69862Y346108D01*
X-70915Y347644D01*
X-71349Y349619D01*
X-70978Y351607D01*
X-69862Y353292D01*
X-66941Y356213D01*
X-65145Y360548D01*
X-64212Y362020D01*
X-63718Y362382D01*
X-64015Y362576D01*
X-65145Y364252D01*
X-66941Y368587D01*
X-70013Y371659D01*
X-74027Y373322D01*
X-78373Y373322D01*
X-82387Y371659D01*
X-85459Y368587D01*
X-87122Y364573D01*
X-87122Y360227D01*
X-85459Y356213D01*
X-82538Y353292D01*
X-81485Y351756D01*
X-81051Y349781D01*
X-81422Y347793D01*
X-82538Y346108D01*
X-85459Y343187D01*
X-87122Y339173D01*
X-87122Y334827D01*
X-85459Y330813D01*
X-82538Y327892D01*
X-81485Y326356D01*
X-81051Y324381D01*
X-81422Y322393D01*
X-82538Y320708D01*
X-85459Y317787D01*
X-87122Y313773D01*
X-87122Y309427D01*
X-85459Y305413D01*
X-82538Y302492D01*
X-81485Y300956D01*
X-81051Y298981D01*
X-81422Y296993D01*
X-82538Y295308D01*
X-85459Y292387D01*
X-87122Y288373D01*
X-87122Y284027D01*
X-85459Y280013D01*
X-82538Y277092D01*
X-81485Y275556D01*
X-81051Y273581D01*
X-81422Y271593D01*
X-82538Y269908D01*
X-85459Y266987D01*
X-87122Y262973D01*
X-87122Y258627D01*
X-85459Y254613D01*
X-82538Y251692D01*
X-81485Y250156D01*
X-81051Y248181D01*
X-81422Y246193D01*
X-82538Y244508D01*
X-85459Y241587D01*
X-87122Y237573D01*
X-87122Y233227D01*
X-85459Y229213D01*
X-82538Y226292D01*
X-81485Y224756D01*
X-81051Y222781D01*
X-81422Y220793D01*
X-82538Y219108D01*
X-85459Y216187D01*
X-87122Y212173D01*
X-87122Y207827D01*
X-85459Y203813D01*
X-82538Y200892D01*
X-81485Y199356D01*
X-81051Y197381D01*
X-81422Y195393D01*
X-82538Y193708D01*
X-85459Y190787D01*
X-86354Y188627D01*
X-87342Y187095D01*
X-88992Y185925D01*
G37*
G36*
X92070Y32102D02*
X91079Y32004D01*
X42721Y32004D01*
X41730Y32102D01*
X36481Y33146D01*
X34650Y33904D01*
X30200Y36878D01*
X29430Y37509D01*
X-63790Y130730D01*
X-64876Y132340D01*
X-65278Y134322D01*
X-65278Y135973D01*
X-66941Y139987D01*
X-69862Y142908D01*
X-70915Y144444D01*
X-71349Y146419D01*
X-70978Y148407D01*
X-69862Y150092D01*
X-66941Y153013D01*
X-65278Y157027D01*
X-65278Y161373D01*
X-66941Y165387D01*
X-69862Y168308D01*
X-70915Y169844D01*
X-71349Y171819D01*
X-70978Y173807D01*
X-69862Y175492D01*
X-66941Y178413D01*
X-65278Y182427D01*
X-65278Y186773D01*
X-66941Y190787D01*
X-69862Y193708D01*
X-70915Y195244D01*
X-71349Y197219D01*
X-70978Y199207D01*
X-69862Y200892D01*
X-66941Y203813D01*
X-64891Y208761D01*
X-64878Y208756D01*
X-64714Y209434D01*
X-63449Y211011D01*
X-61669Y211970D01*
X-59656Y212158D01*
X-57728Y211547D01*
X-56193Y210232D01*
X-55291Y208422D01*
X-55223Y208168D01*
X-51010Y200870D01*
X-48030Y197891D01*
X63790Y86070D01*
X64876Y84460D01*
X65278Y82478D01*
X65278Y80827D01*
X66941Y76813D01*
X70013Y73741D01*
X74027Y72078D01*
X78373Y72078D01*
X82387Y73741D01*
X85459Y76813D01*
X87122Y80827D01*
X87122Y85173D01*
X85459Y89187D01*
X82538Y92108D01*
X81485Y93644D01*
X81051Y95619D01*
X81422Y97607D01*
X82538Y99292D01*
X85459Y102213D01*
X87122Y106227D01*
X87122Y110573D01*
X85459Y114587D01*
X83257Y116790D01*
X82203Y118326D01*
X81769Y120301D01*
X82140Y122288D01*
X83257Y123974D01*
X86321Y127038D01*
X88138Y131425D01*
X88138Y133038D01*
X75438Y133038D01*
X75438Y134562D01*
X88138Y134562D01*
X88138Y136175D01*
X86321Y140562D01*
X83975Y142908D01*
X82922Y144444D01*
X82488Y146419D01*
X82858Y148407D01*
X83975Y150092D01*
X86321Y152438D01*
X88138Y156825D01*
X88138Y158438D01*
X64262Y158438D01*
X64262Y156825D01*
X66079Y152438D01*
X68425Y150092D01*
X69478Y148556D01*
X69912Y146581D01*
X69542Y144593D01*
X68425Y142908D01*
X66079Y140562D01*
X65269Y138605D01*
X64280Y137073D01*
X62631Y135903D01*
X60656Y135469D01*
X58669Y135840D01*
X56983Y136956D01*
X-591Y194530D01*
X-1223Y195300D01*
X-4196Y199750D01*
X-4954Y201581D01*
X-5998Y206830D01*
X-6096Y207821D01*
X-6096Y209135D01*
X-7341Y212141D01*
X-7726Y212711D01*
X-8128Y214693D01*
X-8128Y473647D01*
X-7829Y475364D01*
X-6780Y477093D01*
X-5141Y478276D01*
X-3170Y478725D01*
X-1179Y478371D01*
X515Y477268D01*
X1390Y475970D01*
X2336Y475024D01*
X3082Y474534D01*
X4226Y472866D01*
X4628Y470885D01*
X4628Y464072D01*
X4257Y462165D01*
X3861Y461568D01*
X2596Y458514D01*
X2596Y257908D01*
X4777Y249768D01*
X8990Y242470D01*
X11970Y239491D01*
X63790Y187670D01*
X64876Y186060D01*
X65278Y184078D01*
X65278Y182427D01*
X66941Y178413D01*
X69143Y176211D01*
X70197Y174674D01*
X70631Y172699D01*
X70260Y170712D01*
X69143Y169026D01*
X66079Y165962D01*
X64262Y161575D01*
X64262Y159962D01*
X88138Y159962D01*
X88138Y161575D01*
X86321Y165962D01*
X83257Y169026D01*
X82203Y170563D01*
X81769Y172537D01*
X82140Y174525D01*
X83257Y176211D01*
X85459Y178413D01*
X87122Y182427D01*
X87122Y186773D01*
X85459Y190787D01*
X82538Y193708D01*
X81485Y195244D01*
X81051Y197219D01*
X81422Y199207D01*
X82538Y200892D01*
X85459Y203813D01*
X87122Y207827D01*
X87122Y212173D01*
X85459Y216187D01*
X82538Y219108D01*
X81485Y220644D01*
X81051Y222619D01*
X81422Y224607D01*
X82538Y226292D01*
X85459Y229213D01*
X87122Y233227D01*
X87122Y237573D01*
X85459Y241587D01*
X82538Y244508D01*
X81485Y246044D01*
X81051Y248019D01*
X81422Y250007D01*
X82538Y251692D01*
X85459Y254613D01*
X87122Y258627D01*
X87122Y262973D01*
X85459Y266987D01*
X82538Y269908D01*
X81485Y271444D01*
X81051Y273419D01*
X81422Y275407D01*
X82538Y277092D01*
X85459Y280013D01*
X87122Y284027D01*
X87122Y288373D01*
X85459Y292387D01*
X82538Y295308D01*
X81485Y296844D01*
X81051Y298819D01*
X81422Y300807D01*
X82538Y302492D01*
X85459Y305413D01*
X87122Y309427D01*
X87122Y313773D01*
X85459Y317787D01*
X82538Y320708D01*
X81485Y322244D01*
X81051Y324219D01*
X81422Y326207D01*
X82538Y327892D01*
X85459Y330813D01*
X87122Y334827D01*
X87122Y339173D01*
X85459Y343187D01*
X82538Y346108D01*
X81485Y347644D01*
X81051Y349619D01*
X81422Y351607D01*
X82538Y353292D01*
X85459Y356213D01*
X87122Y360227D01*
X87122Y364573D01*
X85459Y368587D01*
X82387Y371659D01*
X78373Y373322D01*
X74027Y373322D01*
X70013Y371659D01*
X66941Y368587D01*
X65278Y364573D01*
X65278Y360227D01*
X66941Y356213D01*
X69862Y353292D01*
X70915Y351756D01*
X71349Y349781D01*
X70978Y347793D01*
X69862Y346108D01*
X66941Y343187D01*
X65278Y339173D01*
X65278Y334827D01*
X66941Y330813D01*
X69862Y327892D01*
X70915Y326356D01*
X71349Y324381D01*
X70978Y322393D01*
X69862Y320708D01*
X66941Y317787D01*
X66046Y315627D01*
X65058Y314095D01*
X63408Y312925D01*
X61434Y312492D01*
X59446Y312862D01*
X57761Y313979D01*
X54527Y317212D01*
X53896Y317982D01*
X50922Y322432D01*
X50164Y324263D01*
X49120Y329512D01*
X49022Y330503D01*
X49022Y392897D01*
X49120Y393888D01*
X50164Y399137D01*
X50922Y400968D01*
X53896Y405418D01*
X54527Y406188D01*
X74080Y425740D01*
X75690Y426826D01*
X77672Y427228D01*
X97416Y427228D01*
X103764Y429858D01*
X108623Y434716D01*
X111252Y441064D01*
X111252Y470527D01*
X111565Y472282D01*
X112627Y474002D01*
X114276Y475172D01*
X116251Y475606D01*
X118239Y475235D01*
X118997Y474733D01*
X120465Y474125D01*
X126558Y474125D01*
X126558Y480602D01*
X136373Y480602D01*
X136537Y481499D01*
X137613Y483211D01*
X139271Y484368D01*
X141250Y484786D01*
X143234Y484399D01*
X143839Y484149D01*
X145487Y483047D01*
X146844Y481690D01*
X146844Y481690D01*
X289269Y339266D01*
X290354Y337655D01*
X290497Y336953D01*
X291762Y333899D01*
X292691Y332970D01*
X293323Y332200D01*
X296296Y327750D01*
X297054Y325919D01*
X297940Y321466D01*
X297711Y318681D01*
X296635Y316969D01*
X294976Y315813D01*
X292998Y315395D01*
X291014Y315781D01*
X289703Y316324D01*
X270604Y316324D01*
X268773Y316666D01*
X267070Y317755D01*
X265926Y319423D01*
X265524Y321404D01*
X265524Y340503D01*
X265292Y341063D01*
X264863Y341492D01*
X264303Y341724D01*
X245204Y341724D01*
X243373Y342066D01*
X241670Y343155D01*
X240526Y344823D01*
X240124Y346804D01*
X240124Y365903D01*
X239892Y366463D01*
X239463Y366892D01*
X238903Y367124D01*
X219804Y367124D01*
X217973Y367466D01*
X216270Y368555D01*
X215126Y370223D01*
X214724Y372204D01*
X214724Y391303D01*
X214492Y391863D01*
X214063Y392292D01*
X213503Y392524D01*
X194404Y392524D01*
X192573Y392866D01*
X190870Y393955D01*
X189726Y395623D01*
X189324Y397604D01*
X189324Y416703D01*
X189092Y417263D01*
X188663Y417692D01*
X188103Y417924D01*
X167497Y417924D01*
X166937Y417692D01*
X166508Y417263D01*
X166276Y416703D01*
X166276Y396097D01*
X166464Y395644D01*
X166850Y393741D01*
X166464Y391756D01*
X166276Y391303D01*
X166276Y370697D01*
X166464Y370244D01*
X166850Y368341D01*
X166464Y366356D01*
X166276Y365903D01*
X166276Y345297D01*
X166464Y344844D01*
X166850Y342941D01*
X166464Y340956D01*
X166276Y340503D01*
X166276Y339698D01*
X166160Y338619D01*
X165346Y336768D01*
X163875Y335382D01*
X161979Y334679D01*
X159960Y334771D01*
X158136Y335643D01*
X156797Y337158D01*
X152610Y344410D01*
X151274Y345746D01*
X151274Y345746D01*
X87561Y409459D01*
X85134Y410464D01*
X82506Y410464D01*
X80079Y409459D01*
X78221Y407601D01*
X77216Y405174D01*
X77216Y402546D01*
X78221Y400119D01*
X140291Y338050D01*
X140923Y337280D01*
X143896Y332830D01*
X144654Y330999D01*
X145698Y325750D01*
X145796Y324759D01*
X145796Y86721D01*
X145698Y85730D01*
X144654Y80481D01*
X143896Y78650D01*
X140923Y74200D01*
X140291Y73430D01*
X104370Y37509D01*
X103600Y36878D01*
X99150Y33904D01*
X97319Y33146D01*
X92070Y32102D01*
G37*
%LPC*%
G36*
X128082Y474125D02*
X134175Y474125D01*
X135109Y474512D01*
X135823Y475226D01*
X136210Y476160D01*
X136210Y479078D01*
X128082Y479078D01*
X128082Y474125D01*
G37*
%LPD*%
G36*
X-89769Y110503D02*
X-91744Y110069D01*
X-93731Y110440D01*
X-95417Y111556D01*
X-285071Y301210D01*
X-285703Y301980D01*
X-288676Y306430D01*
X-289434Y308261D01*
X-290478Y313510D01*
X-290576Y314501D01*
X-290576Y407926D01*
X-290249Y409720D01*
X-289173Y411432D01*
X-287515Y412588D01*
X-285536Y413006D01*
X-283552Y412620D01*
X-283254Y412496D01*
X-257554Y412496D01*
X-255760Y412169D01*
X-254049Y411093D01*
X-252892Y409435D01*
X-252474Y407456D01*
X-252860Y405472D01*
X-252984Y405174D01*
X-252984Y335688D01*
X-250803Y327548D01*
X-246590Y320250D01*
X-243610Y317271D01*
X-88610Y162270D01*
X-87524Y160660D01*
X-87122Y158678D01*
X-87122Y157027D01*
X-85459Y153013D01*
X-82538Y150092D01*
X-81485Y148556D01*
X-81051Y146581D01*
X-81422Y144593D01*
X-82538Y142908D01*
X-85459Y139987D01*
X-87122Y135973D01*
X-87122Y131627D01*
X-85459Y127613D01*
X-83257Y125411D01*
X-82203Y123874D01*
X-81769Y121899D01*
X-82140Y119912D01*
X-83257Y118226D01*
X-86321Y115162D01*
X-87132Y113205D01*
X-88120Y111673D01*
X-89769Y110503D01*
G37*
D10*
X76200Y83000D03*
X76200Y108400D03*
X76200Y133800D03*
X76200Y159200D03*
X76200Y184600D03*
X76200Y210000D03*
X76200Y235400D03*
X76200Y260800D03*
X76200Y286200D03*
X76200Y311600D03*
X76200Y337000D03*
X76200Y362400D03*
X-76200Y362400D03*
X-76200Y337000D03*
X-76200Y311600D03*
X-76200Y286200D03*
X-76200Y260800D03*
X-76200Y235400D03*
X-76200Y210000D03*
X-76200Y184600D03*
X-76200Y159200D03*
X-76200Y133800D03*
X-76200Y108400D03*
X-76200Y83000D03*
X-76200Y650680D03*
X-50800Y650680D03*
X-25400Y650680D03*
X0Y650680D03*
X25400Y650680D03*
X50800Y650680D03*
X76200Y650680D03*
D11*
X127320Y479840D03*
X127320Y490000D03*
D12*
X127320Y500160D01*
D11*
X127320Y500160D03*
D12*
X127320Y490000D01*
X127320Y500160D01*
D11*
X70800Y479840D03*
X70800Y490000D03*
D12*
X70800Y500160D01*
D11*
X70800Y500160D03*
D12*
X70800Y490000D01*
X70800Y500160D01*
D11*
X9200Y479840D03*
X9200Y490000D03*
D12*
X9200Y500160D01*
D11*
X9200Y500160D03*
D12*
X9200Y490000D01*
X9200Y500160D01*
D11*
X-60000Y500160D03*
D12*
X-60000Y490000D01*
D11*
X-60000Y490000D03*
D12*
X-60000Y500160D01*
X-60000Y490000D01*
D13*
X-228600Y558800D03*
X-203200Y558800D03*
X-152400Y381000D03*
X-152400Y355600D03*
X-152400Y330200D03*
X-152400Y304800D03*
X-152400Y279400D03*
X-177800Y381000D03*
X-177800Y304800D03*
X-177800Y355600D03*
X-406400Y152400D03*
X-177800Y330200D03*
X-203200Y381000D03*
X-406400Y203200D03*
X-203200Y355600D03*
X-406400Y177800D03*
X-203200Y330200D03*
X-330200Y355600D03*
X-355600Y355600D03*
X-304800Y254000D03*
X-330200Y330200D03*
X-355600Y330200D03*
X-304800Y228600D03*
X-330200Y304800D03*
X-355600Y304800D03*
X-381000Y304800D03*
X-330200Y279400D03*
X-355600Y279400D03*
X-381000Y279400D03*
X-330200Y254000D03*
X-355600Y254000D03*
X-381000Y254000D03*
X-330200Y228600D03*
X-355600Y228600D03*
X-381000Y228600D03*
X-330200Y203200D03*
X-355600Y203200D03*
X-381000Y203200D03*
X-330200Y177800D03*
X-355600Y177800D03*
X-381000Y177800D03*
X-330200Y152400D03*
X-355600Y152400D03*
X-381000Y152400D03*
X-330200Y127000D03*
X-355600Y127000D03*
X-381000Y127000D03*
X-177800Y457200D03*
X-203200Y457200D03*
X-203200Y431800D03*
X-152400Y457200D03*
X-127000Y457200D03*
X-304800Y127000D03*
X-228600Y127000D03*
X-254000Y127000D03*
X-279400Y127000D03*
X-203200Y152400D03*
X-177800Y127000D03*
X-203200Y127000D03*
X-228600Y152400D03*
X-254000Y152400D03*
X-279400Y152400D03*
X-304800Y203200D03*
X-304800Y177800D03*
X-304800Y152400D03*
X-279400Y177800D03*
X-279400Y203200D03*
X-279400Y228600D03*
X-228600Y177800D03*
X-254000Y177800D03*
X-254000Y203200D03*
X-177800Y635000D03*
X-254000Y457200D03*
X-254000Y482600D03*
X-101600Y457200D03*
X-127000Y635000D03*
X-152400Y635000D03*
X279400Y127000D03*
X254000Y127000D03*
X228600Y127000D03*
X203200Y127000D03*
X279400Y431800D03*
X279400Y457200D03*
X279400Y482600D03*
X254000Y457200D03*
X254000Y482600D03*
X228600Y482600D03*
X203200Y482600D03*
X330200Y177800D03*
X330200Y203200D03*
X330200Y228600D03*
X330200Y254000D03*
X330200Y279400D03*
X101600Y533400D03*
X76200Y533400D03*
X330200Y152400D03*
X152400Y558800D03*
X127000Y558800D03*
X101600Y558800D03*
X76200Y558800D03*
X254000Y330200D03*
X228600Y355600D03*
X203200Y381000D03*
X177800Y127000D03*
X279400Y406400D03*
X279400Y152400D03*
X254000Y152400D03*
X228600Y152400D03*
X203200Y152400D03*
X177800Y152400D03*
X279400Y177800D03*
X228600Y457200D03*
X254000Y431800D03*
X177800Y406400D03*
X330200Y127000D03*
X152400Y533400D03*
X127000Y533400D03*
X177800Y304800D03*
X203200Y330200D03*
X177800Y330200D03*
X228600Y330200D03*
X203200Y355600D03*
X177800Y355600D03*
X177800Y381000D03*
X228600Y279400D03*
X203200Y279400D03*
X177800Y279400D03*
X279400Y304800D03*
X254000Y304800D03*
X228600Y304800D03*
X203200Y304800D03*
X279400Y254000D03*
X254000Y254000D03*
X228600Y254000D03*
X203200Y254000D03*
X177800Y254000D03*
X279400Y279400D03*
X254000Y279400D03*
X203200Y203200D03*
X177800Y203200D03*
X279400Y228600D03*
X254000Y228600D03*
X228600Y228600D03*
X203200Y228600D03*
X203200Y101600D03*
X254000Y177800D03*
X228600Y177800D03*
X203200Y177800D03*
X228600Y101600D03*
X279400Y203200D03*
X254000Y203200D03*
X228600Y203200D03*
D14*
X-218440Y538480D03*
X38100Y535940D03*
X93980Y513080D03*
X96520Y642620D03*
X142240Y642620D03*
X-91440Y386080D03*
X-177800Y482600D03*
X-152400Y563880D03*
X-58420Y566420D03*
X27940Y309880D03*
X27940Y259080D03*
X-33020Y436880D03*
X-63500Y436880D03*
X381000Y177800D03*
X203200Y558800D03*
X-355600Y76200D03*
X-101600Y137160D03*
X-279400Y365760D03*
X-279400Y467360D03*
X228600Y596900D03*
D15*
X79101Y596900D01*
X78497Y596907D01*
X77892Y596929D01*
X77289Y596965D01*
X76687Y597015D01*
X76086Y597080D01*
X75486Y597159D01*
X74889Y597252D01*
X74294Y597359D01*
X73702Y597480D01*
X73113Y597616D01*
X72527Y597765D01*
X71945Y597929D01*
X71367Y598106D01*
X70793Y598297D01*
X70225Y598501D01*
X69661Y598719D01*
X69102Y598951D01*
X68549Y599195D01*
X68003Y599453D01*
X67462Y599724D01*
X66928Y600007D01*
X66401Y600303D01*
X65881Y600611D01*
X65369Y600932D01*
X64864Y601265D01*
X64368Y601610D01*
X63879Y601966D01*
X63400Y602334D01*
X62929Y602714D01*
X62468Y603104D01*
X62015Y603505D01*
X61573Y603917D01*
X61140Y604339D01*
X61141Y604340D02*
X48080Y617401D01*
X48080Y617400D02*
X47647Y617823D01*
X47205Y618235D01*
X46752Y618636D01*
X46291Y619026D01*
X45820Y619406D01*
X45341Y619774D01*
X44852Y620130D01*
X44356Y620475D01*
X43851Y620808D01*
X43339Y621129D01*
X42819Y621437D01*
X42292Y621733D01*
X41758Y622016D01*
X41217Y622287D01*
X40671Y622545D01*
X40118Y622789D01*
X39559Y623021D01*
X38995Y623239D01*
X38427Y623443D01*
X37853Y623634D01*
X37275Y623811D01*
X36693Y623975D01*
X36107Y624124D01*
X35518Y624260D01*
X34926Y624381D01*
X34331Y624488D01*
X33734Y624581D01*
X33134Y624660D01*
X32533Y624725D01*
X31931Y624775D01*
X31328Y624811D01*
X30723Y624833D01*
X30119Y624840D01*
X-14439Y624840D01*
X-15043Y624847D01*
X-15648Y624869D01*
X-16251Y624905D01*
X-16853Y624955D01*
X-17454Y625020D01*
X-18054Y625099D01*
X-18651Y625192D01*
X-19246Y625299D01*
X-19838Y625420D01*
X-20427Y625556D01*
X-21013Y625705D01*
X-21595Y625869D01*
X-22173Y626046D01*
X-22747Y626237D01*
X-23315Y626441D01*
X-23879Y626659D01*
X-24438Y626891D01*
X-24991Y627135D01*
X-25537Y627393D01*
X-26078Y627664D01*
X-26612Y627947D01*
X-27139Y628243D01*
X-27659Y628551D01*
X-28171Y628872D01*
X-28676Y629205D01*
X-29172Y629550D01*
X-29661Y629906D01*
X-30140Y630274D01*
X-30611Y630654D01*
X-31072Y631044D01*
X-31525Y631445D01*
X-31967Y631857D01*
X-32400Y632279D01*
X-32400Y632280D02*
X-50800Y650680D01*
D14*
X-246380Y403860D03*
D15*
X-246380Y339901D01*
X-246373Y339297D01*
X-246351Y338692D01*
X-246315Y338089D01*
X-246265Y337487D01*
X-246200Y336886D01*
X-246121Y336286D01*
X-246028Y335689D01*
X-245921Y335094D01*
X-245800Y334502D01*
X-245664Y333913D01*
X-245515Y333327D01*
X-245351Y332745D01*
X-245174Y332167D01*
X-244983Y331593D01*
X-244779Y331025D01*
X-244561Y330461D01*
X-244329Y329902D01*
X-244085Y329349D01*
X-243827Y328803D01*
X-243556Y328262D01*
X-243273Y327728D01*
X-242977Y327201D01*
X-242669Y326681D01*
X-242348Y326169D01*
X-242015Y325664D01*
X-241670Y325168D01*
X-241314Y324679D01*
X-240946Y324200D01*
X-240566Y323729D01*
X-240176Y323268D01*
X-239775Y322815D01*
X-239363Y322373D01*
X-238941Y321940D01*
X-238941Y321941D02*
X-76200Y159200D01*
D16*
X30480Y502700D02*
X30480Y515620D01*
X30480Y502700D02*
X30476Y502393D01*
X30465Y502086D01*
X30447Y501780D01*
X30421Y501474D01*
X30387Y501169D01*
X30347Y500865D01*
X30299Y500562D01*
X30243Y500260D01*
X30181Y499960D01*
X30111Y499661D01*
X30034Y499364D01*
X29950Y499068D01*
X29858Y498775D01*
X29760Y498485D01*
X29655Y498197D01*
X29542Y497911D01*
X29423Y497628D01*
X29297Y497348D01*
X29165Y497071D01*
X29025Y496798D01*
X28879Y496528D01*
X28727Y496262D01*
X28568Y495999D01*
X28403Y495740D01*
X28232Y495486D01*
X28055Y495235D01*
X27871Y494989D01*
X27682Y494747D01*
X27487Y494511D01*
X27286Y494278D01*
X27080Y494051D01*
X26868Y493829D01*
X26651Y493612D01*
X26429Y493400D01*
X26202Y493194D01*
X25969Y492993D01*
X25733Y492798D01*
X25491Y492609D01*
X25245Y492425D01*
X24994Y492248D01*
X24740Y492077D01*
X24481Y491912D01*
X24218Y491753D01*
X23952Y491601D01*
X23682Y491455D01*
X23409Y491315D01*
X23132Y491183D01*
X22852Y491057D01*
X22569Y490938D01*
X22283Y490825D01*
X21995Y490720D01*
X21705Y490622D01*
X21412Y490530D01*
X21116Y490446D01*
X20819Y490369D01*
X20520Y490299D01*
X20220Y490237D01*
X19918Y490181D01*
X19615Y490133D01*
X19311Y490093D01*
X19006Y490059D01*
X18700Y490033D01*
X18394Y490015D01*
X18087Y490004D01*
X17780Y490000D01*
X9200Y490000D01*
D15*
X30480Y515620D02*
X30472Y516306D01*
X30446Y516991D01*
X30404Y517675D01*
X30345Y518359D01*
X30270Y519040D01*
X30178Y519720D01*
X30069Y520397D01*
X29943Y521071D01*
X29801Y521742D01*
X29643Y522409D01*
X29468Y523072D01*
X29277Y523731D01*
X29070Y524384D01*
X28847Y525033D01*
X28608Y525675D01*
X28353Y526312D01*
X28083Y526942D01*
X27797Y527566D01*
X27497Y528182D01*
X27181Y528791D01*
X26850Y529392D01*
X26505Y529984D01*
X26145Y530568D01*
X25771Y531143D01*
X25383Y531708D01*
X24982Y532264D01*
X24566Y532810D01*
X24138Y533345D01*
X23696Y533870D01*
X23242Y534383D01*
X22775Y534886D01*
X22297Y535377D01*
X21806Y535855D01*
X21303Y536322D01*
X20790Y536776D01*
X20265Y537218D01*
X19730Y537646D01*
X19184Y538062D01*
X18628Y538463D01*
X18063Y538851D01*
X17488Y539225D01*
X16904Y539585D01*
X16312Y539930D01*
X15711Y540261D01*
X15102Y540577D01*
X14486Y540877D01*
X13862Y541163D01*
X13232Y541433D01*
X12595Y541688D01*
X11953Y541927D01*
X11304Y542150D01*
X10651Y542357D01*
X9992Y542548D01*
X9329Y542723D01*
X8662Y542881D01*
X7991Y543023D01*
X7317Y543149D01*
X6640Y543258D01*
X5960Y543350D01*
X5279Y543425D01*
X4595Y543484D01*
X3911Y543526D01*
X3226Y543552D01*
X2540Y543560D01*
D14*
X-174538Y551180D03*
D15*
X-161657Y543560D02*
X2540Y543560D01*
X-161657Y543560D02*
X-161959Y543564D01*
X-162261Y543574D01*
X-162563Y543592D01*
X-162864Y543618D01*
X-163165Y543650D01*
X-163464Y543689D01*
X-163763Y543736D01*
X-164061Y543790D01*
X-164357Y543850D01*
X-164651Y543918D01*
X-164944Y543993D01*
X-165235Y544074D01*
X-165524Y544163D01*
X-165811Y544258D01*
X-166095Y544361D01*
X-166377Y544470D01*
X-166656Y544585D01*
X-166933Y544708D01*
X-167206Y544837D01*
X-167476Y544972D01*
X-167743Y545113D01*
X-168007Y545261D01*
X-168267Y545416D01*
X-168523Y545576D01*
X-168775Y545743D01*
X-169024Y545915D01*
X-169268Y546093D01*
X-169508Y546277D01*
X-169743Y546467D01*
X-169974Y546662D01*
X-170200Y546863D01*
X-170421Y547069D01*
X-170637Y547280D01*
X-174538Y551180D01*
D14*
X-276860Y508000D03*
X-210820Y520700D03*
X2540Y520700D03*
D15*
X-60960Y520700D01*
X-210820Y520700D01*
X-253639Y520700D01*
X-254243Y520693D01*
X-254848Y520671D01*
X-255451Y520635D01*
X-256053Y520585D01*
X-256654Y520520D01*
X-257254Y520441D01*
X-257851Y520348D01*
X-258446Y520241D01*
X-259038Y520120D01*
X-259627Y519984D01*
X-260213Y519835D01*
X-260795Y519671D01*
X-261373Y519494D01*
X-261947Y519303D01*
X-262515Y519099D01*
X-263079Y518881D01*
X-263638Y518649D01*
X-264191Y518405D01*
X-264737Y518147D01*
X-265278Y517876D01*
X-265812Y517593D01*
X-266339Y517297D01*
X-266859Y516989D01*
X-267371Y516668D01*
X-267876Y516335D01*
X-268372Y515990D01*
X-268861Y515634D01*
X-269340Y515266D01*
X-269811Y514886D01*
X-270272Y514496D01*
X-270725Y514095D01*
X-271167Y513683D01*
X-271600Y513261D01*
X-276860Y508000D01*
D16*
X-60000Y500160D02*
X-60000Y520700D01*
X-60960Y520700D01*
D15*
X-281760Y531041D02*
X-289741Y523060D01*
X-289740Y523060D02*
X-290163Y522627D01*
X-290575Y522185D01*
X-290976Y521732D01*
X-291366Y521271D01*
X-291746Y520800D01*
X-292114Y520321D01*
X-292470Y519832D01*
X-292815Y519336D01*
X-293148Y518831D01*
X-293469Y518319D01*
X-293777Y517799D01*
X-294073Y517272D01*
X-294356Y516738D01*
X-294627Y516197D01*
X-294885Y515651D01*
X-295129Y515098D01*
X-295361Y514539D01*
X-295579Y513975D01*
X-295783Y513407D01*
X-295974Y512833D01*
X-296151Y512255D01*
X-296315Y511673D01*
X-296464Y511087D01*
X-296600Y510498D01*
X-296721Y509906D01*
X-296828Y509311D01*
X-296921Y508714D01*
X-297000Y508114D01*
X-297065Y507513D01*
X-297115Y506911D01*
X-297151Y506308D01*
X-297173Y505703D01*
X-297180Y505099D01*
X-289741Y296541D02*
X-76200Y83000D01*
X-289740Y296540D02*
X-290163Y296973D01*
X-290575Y297415D01*
X-290976Y297868D01*
X-291366Y298329D01*
X-291746Y298800D01*
X-292114Y299279D01*
X-292470Y299768D01*
X-292815Y300264D01*
X-293148Y300769D01*
X-293469Y301281D01*
X-293777Y301801D01*
X-294073Y302328D01*
X-294356Y302862D01*
X-294627Y303403D01*
X-294885Y303949D01*
X-295129Y304502D01*
X-295361Y305061D01*
X-295579Y305625D01*
X-295783Y306193D01*
X-295974Y306767D01*
X-296151Y307345D01*
X-296315Y307927D01*
X-296464Y308513D01*
X-296600Y309102D01*
X-296721Y309694D01*
X-296828Y310289D01*
X-296921Y310886D01*
X-297000Y311486D01*
X-297065Y312087D01*
X-297115Y312689D01*
X-297151Y313292D01*
X-297173Y313897D01*
X-297180Y314501D01*
X-297180Y505099D01*
X-263799Y538480D02*
X-254000Y538480D01*
X-263799Y538480D02*
X-264403Y538473D01*
X-265008Y538451D01*
X-265611Y538415D01*
X-266213Y538365D01*
X-266814Y538300D01*
X-267414Y538221D01*
X-268011Y538128D01*
X-268606Y538021D01*
X-269198Y537900D01*
X-269787Y537764D01*
X-270373Y537615D01*
X-270955Y537451D01*
X-271533Y537274D01*
X-272107Y537083D01*
X-272675Y536879D01*
X-273239Y536661D01*
X-273798Y536429D01*
X-274351Y536185D01*
X-274897Y535927D01*
X-275438Y535656D01*
X-275972Y535373D01*
X-276499Y535077D01*
X-277019Y534769D01*
X-277531Y534448D01*
X-278036Y534115D01*
X-278532Y533770D01*
X-279021Y533414D01*
X-279500Y533046D01*
X-279971Y532666D01*
X-280432Y532276D01*
X-280885Y531875D01*
X-281327Y531463D01*
X-281760Y531041D01*
D14*
X-254000Y538480D03*
D15*
X-76200Y133800D02*
X24761Y32840D01*
X24760Y32840D02*
X25193Y32417D01*
X25635Y32005D01*
X26088Y31604D01*
X26549Y31214D01*
X27020Y30834D01*
X27499Y30466D01*
X27988Y30110D01*
X28484Y29765D01*
X28989Y29432D01*
X29501Y29111D01*
X30021Y28803D01*
X30548Y28507D01*
X31082Y28224D01*
X31623Y27953D01*
X32169Y27695D01*
X32722Y27451D01*
X33281Y27219D01*
X33845Y27001D01*
X34413Y26797D01*
X34987Y26606D01*
X35565Y26429D01*
X36147Y26265D01*
X36733Y26116D01*
X37322Y25980D01*
X37914Y25859D01*
X38509Y25752D01*
X39106Y25659D01*
X39706Y25580D01*
X40307Y25515D01*
X40909Y25465D01*
X41512Y25429D01*
X42117Y25407D01*
X42721Y25400D01*
X91079Y25400D01*
X91683Y25407D01*
X92288Y25429D01*
X92891Y25465D01*
X93493Y25515D01*
X94094Y25580D01*
X94694Y25659D01*
X95291Y25752D01*
X95886Y25859D01*
X96478Y25980D01*
X97067Y26116D01*
X97653Y26265D01*
X98235Y26429D01*
X98813Y26606D01*
X99387Y26797D01*
X99955Y27001D01*
X100519Y27219D01*
X101078Y27451D01*
X101631Y27695D01*
X102177Y27953D01*
X102718Y28224D01*
X103252Y28507D01*
X103779Y28803D01*
X104299Y29111D01*
X104811Y29432D01*
X105316Y29765D01*
X105812Y30110D01*
X106301Y30466D01*
X106780Y30834D01*
X107251Y31214D01*
X107712Y31604D01*
X108165Y32005D01*
X108607Y32417D01*
X109040Y32839D01*
X109040Y32840D02*
X144961Y68761D01*
X144960Y68760D02*
X145383Y69193D01*
X145795Y69635D01*
X146196Y70088D01*
X146586Y70549D01*
X146966Y71020D01*
X147334Y71499D01*
X147690Y71988D01*
X148035Y72484D01*
X148368Y72989D01*
X148689Y73501D01*
X148997Y74021D01*
X149293Y74548D01*
X149576Y75082D01*
X149847Y75623D01*
X150105Y76169D01*
X150349Y76722D01*
X150581Y77281D01*
X150799Y77845D01*
X151003Y78413D01*
X151194Y78987D01*
X151371Y79565D01*
X151535Y80147D01*
X151684Y80733D01*
X151820Y81322D01*
X151941Y81914D01*
X152048Y82509D01*
X152141Y83106D01*
X152220Y83706D01*
X152285Y84307D01*
X152335Y84909D01*
X152371Y85512D01*
X152393Y86117D01*
X152400Y86721D01*
X152400Y248920D01*
D14*
X152400Y248920D03*
D15*
X152400Y324759D01*
X152393Y325363D01*
X152371Y325968D01*
X152335Y326571D01*
X152285Y327173D01*
X152220Y327774D01*
X152141Y328374D01*
X152048Y328971D01*
X151941Y329566D01*
X151820Y330158D01*
X151684Y330747D01*
X151535Y331333D01*
X151371Y331915D01*
X151194Y332493D01*
X151003Y333067D01*
X150799Y333635D01*
X150581Y334199D01*
X150349Y334758D01*
X150105Y335311D01*
X149847Y335857D01*
X149576Y336398D01*
X149293Y336932D01*
X148997Y337459D01*
X148689Y337979D01*
X148368Y338491D01*
X148035Y338996D01*
X147690Y339492D01*
X147334Y339981D01*
X146966Y340460D01*
X146586Y340931D01*
X146196Y341392D01*
X145795Y341845D01*
X145383Y342287D01*
X144961Y342720D01*
X83820Y403860D01*
D14*
X83820Y403860D03*
X-157480Y416560D03*
X-125280Y335280D03*
D15*
X-125280Y403860D01*
X-125284Y404167D01*
X-125295Y404474D01*
X-125313Y404780D01*
X-125339Y405086D01*
X-125373Y405391D01*
X-125413Y405695D01*
X-125461Y405998D01*
X-125517Y406300D01*
X-125579Y406600D01*
X-125649Y406899D01*
X-125726Y407196D01*
X-125810Y407492D01*
X-125902Y407785D01*
X-126000Y408075D01*
X-126105Y408363D01*
X-126218Y408649D01*
X-126337Y408932D01*
X-126463Y409212D01*
X-126595Y409489D01*
X-126735Y409762D01*
X-126881Y410032D01*
X-127033Y410298D01*
X-127192Y410561D01*
X-127357Y410820D01*
X-127528Y411074D01*
X-127705Y411325D01*
X-127889Y411571D01*
X-128078Y411813D01*
X-128273Y412049D01*
X-128474Y412282D01*
X-128680Y412509D01*
X-128892Y412731D01*
X-129109Y412948D01*
X-129331Y413160D01*
X-129558Y413366D01*
X-129791Y413567D01*
X-130027Y413762D01*
X-130269Y413951D01*
X-130515Y414135D01*
X-130766Y414312D01*
X-131020Y414483D01*
X-131279Y414648D01*
X-131542Y414807D01*
X-131808Y414959D01*
X-132078Y415105D01*
X-132351Y415245D01*
X-132628Y415377D01*
X-132908Y415503D01*
X-133191Y415622D01*
X-133477Y415735D01*
X-133765Y415840D01*
X-134055Y415938D01*
X-134348Y416030D01*
X-134644Y416114D01*
X-134941Y416191D01*
X-135240Y416261D01*
X-135540Y416323D01*
X-135842Y416379D01*
X-136145Y416427D01*
X-136449Y416467D01*
X-136754Y416501D01*
X-137060Y416527D01*
X-137366Y416545D01*
X-137673Y416556D01*
X-137980Y416560D01*
X-157480Y416560D01*
D14*
X38100Y637540D03*
D12*
X38100Y678180D01*
D14*
X-230603Y466003D03*
D15*
X-203522Y493084D01*
X-203089Y493507D01*
X-202647Y493919D01*
X-202194Y494320D01*
X-201733Y494710D01*
X-201262Y495090D01*
X-200783Y495458D01*
X-200294Y495814D01*
X-199798Y496159D01*
X-199293Y496492D01*
X-198781Y496813D01*
X-198261Y497121D01*
X-197734Y497417D01*
X-197200Y497700D01*
X-196659Y497971D01*
X-196113Y498229D01*
X-195560Y498473D01*
X-195001Y498705D01*
X-194437Y498923D01*
X-193869Y499127D01*
X-193295Y499318D01*
X-192717Y499495D01*
X-192135Y499659D01*
X-191549Y499808D01*
X-190960Y499944D01*
X-190368Y500065D01*
X-189773Y500172D01*
X-189176Y500265D01*
X-188576Y500344D01*
X-187975Y500409D01*
X-187373Y500459D01*
X-186770Y500495D01*
X-186165Y500517D01*
X-185561Y500524D01*
X-96520Y500524D01*
D14*
X-96520Y500524D03*
X-281940Y419100D03*
X-142240Y403860D03*
D15*
X-212999Y403860D01*
X-213603Y403867D01*
X-214208Y403889D01*
X-214811Y403925D01*
X-215413Y403975D01*
X-216014Y404040D01*
X-216614Y404119D01*
X-217211Y404212D01*
X-217806Y404319D01*
X-218398Y404440D01*
X-218987Y404576D01*
X-219573Y404725D01*
X-220155Y404889D01*
X-220733Y405066D01*
X-221307Y405257D01*
X-221875Y405461D01*
X-222439Y405679D01*
X-222998Y405911D01*
X-223551Y406155D01*
X-224097Y406413D01*
X-224638Y406684D01*
X-225172Y406967D01*
X-225699Y407263D01*
X-226219Y407571D01*
X-226731Y407892D01*
X-227236Y408225D01*
X-227732Y408570D01*
X-228221Y408926D01*
X-228700Y409294D01*
X-229171Y409674D01*
X-229632Y410064D01*
X-230085Y410465D01*
X-230527Y410877D01*
X-230960Y411299D01*
X-230960Y411300D02*
X-231321Y411661D01*
X-231320Y411660D02*
X-231753Y412083D01*
X-232195Y412495D01*
X-232648Y412896D01*
X-233109Y413286D01*
X-233580Y413666D01*
X-234059Y414034D01*
X-234548Y414390D01*
X-235044Y414735D01*
X-235549Y415068D01*
X-236061Y415389D01*
X-236581Y415697D01*
X-237108Y415993D01*
X-237642Y416276D01*
X-238183Y416547D01*
X-238729Y416805D01*
X-239282Y417049D01*
X-239841Y417281D01*
X-240405Y417499D01*
X-240973Y417703D01*
X-241547Y417894D01*
X-242125Y418071D01*
X-242707Y418235D01*
X-243293Y418384D01*
X-243882Y418520D01*
X-244474Y418641D01*
X-245069Y418748D01*
X-245666Y418841D01*
X-246266Y418920D01*
X-246867Y418985D01*
X-247469Y419035D01*
X-248072Y419071D01*
X-248677Y419093D01*
X-249281Y419100D01*
X-281940Y419100D01*
D14*
X10160Y576580D03*
X-203200Y599440D03*
D15*
X-5261Y592001D02*
X10160Y576580D01*
X-5260Y592000D02*
X-5693Y592423D01*
X-6135Y592835D01*
X-6588Y593236D01*
X-7049Y593626D01*
X-7520Y594006D01*
X-7999Y594374D01*
X-8488Y594730D01*
X-8984Y595075D01*
X-9489Y595408D01*
X-10001Y595729D01*
X-10521Y596037D01*
X-11048Y596333D01*
X-11582Y596616D01*
X-12123Y596887D01*
X-12669Y597145D01*
X-13222Y597389D01*
X-13781Y597621D01*
X-14345Y597839D01*
X-14913Y598043D01*
X-15487Y598234D01*
X-16065Y598411D01*
X-16647Y598575D01*
X-17233Y598724D01*
X-17822Y598860D01*
X-18414Y598981D01*
X-19009Y599088D01*
X-19606Y599181D01*
X-20206Y599260D01*
X-20807Y599325D01*
X-21409Y599375D01*
X-22012Y599411D01*
X-22617Y599433D01*
X-23221Y599440D01*
X-203200Y599440D01*
X-43361Y202561D02*
X76200Y83000D01*
X-43360Y202560D02*
X-43783Y202993D01*
X-44195Y203435D01*
X-44596Y203888D01*
X-44986Y204349D01*
X-45366Y204820D01*
X-45734Y205299D01*
X-46090Y205788D01*
X-46435Y206284D01*
X-46768Y206789D01*
X-47089Y207301D01*
X-47397Y207821D01*
X-47693Y208348D01*
X-47976Y208882D01*
X-48247Y209423D01*
X-48505Y209969D01*
X-48749Y210522D01*
X-48981Y211081D01*
X-49199Y211645D01*
X-49403Y212213D01*
X-49594Y212787D01*
X-49771Y213365D01*
X-49935Y213947D01*
X-50084Y214533D01*
X-50220Y215122D01*
X-50341Y215714D01*
X-50448Y216309D01*
X-50541Y216906D01*
X-50620Y217506D01*
X-50685Y218107D01*
X-50735Y218709D01*
X-50771Y219312D01*
X-50793Y219917D01*
X-50800Y220521D01*
D16*
X-50800Y475540D01*
X-50800Y475539D02*
X-50804Y475851D01*
X-50815Y476162D01*
X-50834Y476473D01*
X-50861Y476784D01*
X-50896Y477094D01*
X-50937Y477402D01*
X-50987Y477710D01*
X-51044Y478017D01*
X-51109Y478322D01*
X-51181Y478625D01*
X-51260Y478926D01*
X-51347Y479226D01*
X-51441Y479523D01*
X-51542Y479818D01*
X-51651Y480110D01*
X-51767Y480399D01*
X-51890Y480686D01*
X-52019Y480969D01*
X-52156Y481249D01*
X-52300Y481526D01*
X-52450Y481799D01*
X-52607Y482068D01*
X-52770Y482333D01*
X-52940Y482595D01*
X-53117Y482852D01*
X-53299Y483104D01*
X-53488Y483352D01*
X-53683Y483596D01*
X-53883Y483834D01*
X-54090Y484068D01*
X-54302Y484296D01*
X-54520Y484519D01*
X-54520Y484520D02*
X-60000Y490000D01*
D15*
X-5261Y189861D02*
X76200Y108400D01*
X-5260Y189860D02*
X-5683Y190293D01*
X-6095Y190735D01*
X-6496Y191188D01*
X-6886Y191649D01*
X-7266Y192120D01*
X-7634Y192599D01*
X-7990Y193088D01*
X-8335Y193584D01*
X-8668Y194089D01*
X-8989Y194601D01*
X-9297Y195121D01*
X-9593Y195648D01*
X-9876Y196182D01*
X-10147Y196723D01*
X-10405Y197269D01*
X-10649Y197822D01*
X-10881Y198381D01*
X-11099Y198945D01*
X-11303Y199513D01*
X-11494Y200087D01*
X-11671Y200665D01*
X-11835Y201247D01*
X-11984Y201833D01*
X-12120Y202422D01*
X-12241Y203014D01*
X-12348Y203609D01*
X-12441Y204206D01*
X-12520Y204806D01*
X-12585Y205407D01*
X-12635Y206009D01*
X-12671Y206612D01*
X-12693Y207217D01*
X-12700Y207821D01*
D16*
X0Y500160D02*
X9200Y500160D01*
X0Y500160D02*
X-307Y500156D01*
X-614Y500145D01*
X-920Y500127D01*
X-1226Y500101D01*
X-1531Y500067D01*
X-1835Y500027D01*
X-2138Y499979D01*
X-2440Y499923D01*
X-2740Y499861D01*
X-3039Y499791D01*
X-3336Y499714D01*
X-3632Y499630D01*
X-3925Y499538D01*
X-4215Y499440D01*
X-4503Y499335D01*
X-4789Y499222D01*
X-5072Y499103D01*
X-5352Y498977D01*
X-5629Y498845D01*
X-5902Y498705D01*
X-6172Y498559D01*
X-6438Y498407D01*
X-6701Y498248D01*
X-6960Y498083D01*
X-7214Y497912D01*
X-7465Y497735D01*
X-7711Y497551D01*
X-7953Y497362D01*
X-8189Y497167D01*
X-8422Y496966D01*
X-8649Y496760D01*
X-8871Y496548D01*
X-9088Y496331D01*
X-9300Y496109D01*
X-9506Y495882D01*
X-9707Y495649D01*
X-9902Y495413D01*
X-10091Y495171D01*
X-10275Y494925D01*
X-10452Y494674D01*
X-10623Y494420D01*
X-10788Y494161D01*
X-10947Y493898D01*
X-11099Y493632D01*
X-11245Y493362D01*
X-11385Y493089D01*
X-11517Y492812D01*
X-11643Y492532D01*
X-11762Y492249D01*
X-11875Y491963D01*
X-11980Y491675D01*
X-12078Y491385D01*
X-12170Y491092D01*
X-12254Y490796D01*
X-12331Y490499D01*
X-12401Y490200D01*
X-12463Y489900D01*
X-12519Y489598D01*
X-12567Y489295D01*
X-12607Y488991D01*
X-12641Y488686D01*
X-12667Y488380D01*
X-12685Y488074D01*
X-12696Y487767D01*
X-12700Y487460D01*
X-12700Y207821D01*
D15*
X16640Y244161D02*
X76200Y184600D01*
X16640Y244160D02*
X16217Y244593D01*
X15805Y245035D01*
X15404Y245488D01*
X15014Y245949D01*
X14634Y246420D01*
X14266Y246899D01*
X13910Y247388D01*
X13565Y247884D01*
X13232Y248389D01*
X12911Y248901D01*
X12603Y249421D01*
X12307Y249948D01*
X12024Y250482D01*
X11753Y251023D01*
X11495Y251569D01*
X11251Y252122D01*
X11019Y252681D01*
X10801Y253245D01*
X10597Y253813D01*
X10406Y254387D01*
X10229Y254965D01*
X10065Y255547D01*
X9916Y256133D01*
X9780Y256722D01*
X9659Y257314D01*
X9552Y257909D01*
X9459Y258506D01*
X9380Y259106D01*
X9315Y259707D01*
X9265Y260309D01*
X9229Y260912D01*
X9207Y261517D01*
X9200Y262121D01*
X9200Y457200D01*
D16*
X9200Y479840D01*
D14*
X9200Y457200D03*
X93980Y457200D03*
D16*
X93980Y487460D01*
X93976Y487767D01*
X93965Y488074D01*
X93947Y488380D01*
X93921Y488686D01*
X93887Y488991D01*
X93847Y489295D01*
X93799Y489598D01*
X93743Y489900D01*
X93681Y490200D01*
X93611Y490499D01*
X93534Y490796D01*
X93450Y491092D01*
X93358Y491385D01*
X93260Y491675D01*
X93155Y491963D01*
X93042Y492249D01*
X92923Y492532D01*
X92797Y492812D01*
X92665Y493089D01*
X92525Y493362D01*
X92379Y493632D01*
X92227Y493898D01*
X92068Y494161D01*
X91903Y494420D01*
X91732Y494674D01*
X91555Y494925D01*
X91371Y495171D01*
X91182Y495413D01*
X90987Y495649D01*
X90786Y495882D01*
X90580Y496109D01*
X90368Y496331D01*
X90151Y496548D01*
X89929Y496760D01*
X89702Y496966D01*
X89469Y497167D01*
X89233Y497362D01*
X88991Y497551D01*
X88745Y497735D01*
X88494Y497912D01*
X88240Y498083D01*
X87981Y498248D01*
X87718Y498407D01*
X87452Y498559D01*
X87182Y498705D01*
X86909Y498845D01*
X86632Y498977D01*
X86352Y499103D01*
X86069Y499222D01*
X85783Y499335D01*
X85495Y499440D01*
X85205Y499538D01*
X84912Y499630D01*
X84616Y499714D01*
X84319Y499791D01*
X84020Y499861D01*
X83720Y499923D01*
X83418Y499979D01*
X83115Y500027D01*
X82811Y500067D01*
X82506Y500101D01*
X82200Y500127D01*
X81894Y500145D01*
X81587Y500156D01*
X81280Y500160D01*
X70800Y500160D01*
X70800Y479840D02*
X70800Y431800D01*
D15*
X49858Y312543D02*
X76200Y286200D01*
X49858Y312542D02*
X49435Y312975D01*
X49023Y313417D01*
X48622Y313870D01*
X48232Y314331D01*
X47852Y314802D01*
X47484Y315281D01*
X47128Y315770D01*
X46783Y316266D01*
X46450Y316771D01*
X46129Y317283D01*
X45821Y317803D01*
X45525Y318330D01*
X45242Y318864D01*
X44971Y319405D01*
X44713Y319951D01*
X44469Y320504D01*
X44237Y321063D01*
X44019Y321627D01*
X43815Y322195D01*
X43624Y322769D01*
X43447Y323347D01*
X43283Y323929D01*
X43134Y324515D01*
X42998Y325104D01*
X42877Y325696D01*
X42770Y326291D01*
X42677Y326888D01*
X42598Y327488D01*
X42533Y328089D01*
X42483Y328691D01*
X42447Y329294D01*
X42425Y329899D01*
X42418Y330503D01*
X49858Y410858D02*
X70800Y431800D01*
X49858Y410858D02*
X49435Y410425D01*
X49023Y409983D01*
X48622Y409530D01*
X48232Y409069D01*
X47852Y408598D01*
X47484Y408119D01*
X47128Y407630D01*
X46783Y407134D01*
X46450Y406629D01*
X46129Y406117D01*
X45821Y405597D01*
X45525Y405070D01*
X45242Y404536D01*
X44971Y403995D01*
X44713Y403449D01*
X44469Y402896D01*
X44237Y402337D01*
X44019Y401773D01*
X43815Y401205D01*
X43624Y400631D01*
X43447Y400053D01*
X43283Y399471D01*
X43134Y398885D01*
X42998Y398296D01*
X42877Y397704D01*
X42770Y397109D01*
X42677Y396512D01*
X42598Y395912D01*
X42533Y395311D01*
X42483Y394709D01*
X42447Y394106D01*
X42425Y393501D01*
X42418Y392897D01*
X42418Y330503D01*
D16*
X70800Y431800D02*
X93980Y431800D01*
X94287Y431804D01*
X94594Y431815D01*
X94900Y431833D01*
X95206Y431859D01*
X95511Y431893D01*
X95815Y431933D01*
X96118Y431981D01*
X96420Y432037D01*
X96720Y432099D01*
X97019Y432169D01*
X97316Y432246D01*
X97612Y432330D01*
X97905Y432422D01*
X98195Y432520D01*
X98483Y432625D01*
X98769Y432738D01*
X99052Y432857D01*
X99332Y432983D01*
X99609Y433115D01*
X99882Y433255D01*
X100152Y433401D01*
X100418Y433553D01*
X100681Y433712D01*
X100940Y433877D01*
X101194Y434048D01*
X101445Y434225D01*
X101691Y434409D01*
X101933Y434598D01*
X102169Y434793D01*
X102402Y434994D01*
X102629Y435200D01*
X102851Y435412D01*
X103068Y435629D01*
X103280Y435851D01*
X103486Y436078D01*
X103687Y436311D01*
X103882Y436547D01*
X104071Y436789D01*
X104255Y437035D01*
X104432Y437286D01*
X104603Y437540D01*
X104768Y437799D01*
X104927Y438062D01*
X105079Y438328D01*
X105225Y438598D01*
X105365Y438871D01*
X105497Y439148D01*
X105623Y439428D01*
X105742Y439711D01*
X105855Y439997D01*
X105960Y440285D01*
X106058Y440575D01*
X106150Y440868D01*
X106234Y441164D01*
X106311Y441461D01*
X106381Y441760D01*
X106443Y442060D01*
X106499Y442362D01*
X106547Y442665D01*
X106587Y442969D01*
X106621Y443274D01*
X106647Y443580D01*
X106665Y443886D01*
X106676Y444193D01*
X106680Y444500D01*
X106680Y487460D01*
X106684Y487767D01*
X106695Y488074D01*
X106713Y488380D01*
X106739Y488686D01*
X106773Y488991D01*
X106813Y489295D01*
X106861Y489598D01*
X106917Y489900D01*
X106979Y490200D01*
X107049Y490499D01*
X107126Y490796D01*
X107210Y491092D01*
X107302Y491385D01*
X107400Y491675D01*
X107505Y491963D01*
X107618Y492249D01*
X107737Y492532D01*
X107863Y492812D01*
X107995Y493089D01*
X108135Y493362D01*
X108281Y493632D01*
X108433Y493898D01*
X108592Y494161D01*
X108757Y494420D01*
X108928Y494674D01*
X109105Y494925D01*
X109289Y495171D01*
X109478Y495413D01*
X109673Y495649D01*
X109874Y495882D01*
X110080Y496109D01*
X110292Y496331D01*
X110509Y496548D01*
X110731Y496760D01*
X110958Y496966D01*
X111191Y497167D01*
X111427Y497362D01*
X111669Y497551D01*
X111915Y497735D01*
X112166Y497912D01*
X112420Y498083D01*
X112679Y498248D01*
X112942Y498407D01*
X113208Y498559D01*
X113478Y498705D01*
X113751Y498845D01*
X114028Y498977D01*
X114308Y499103D01*
X114591Y499222D01*
X114877Y499335D01*
X115165Y499440D01*
X115455Y499538D01*
X115748Y499630D01*
X116044Y499714D01*
X116341Y499791D01*
X116640Y499861D01*
X116940Y499923D01*
X117242Y499979D01*
X117545Y500027D01*
X117849Y500067D01*
X118154Y500101D01*
X118460Y500127D01*
X118766Y500145D01*
X119073Y500156D01*
X119380Y500160D01*
X127320Y500160D01*
X70800Y490000D02*
X63500Y490000D01*
X63193Y490004D01*
X62886Y490015D01*
X62580Y490033D01*
X62274Y490059D01*
X61969Y490093D01*
X61665Y490133D01*
X61362Y490181D01*
X61060Y490237D01*
X60760Y490299D01*
X60461Y490369D01*
X60164Y490446D01*
X59868Y490530D01*
X59575Y490622D01*
X59285Y490720D01*
X58997Y490825D01*
X58711Y490938D01*
X58428Y491057D01*
X58148Y491183D01*
X57871Y491315D01*
X57598Y491455D01*
X57328Y491601D01*
X57062Y491753D01*
X56799Y491912D01*
X56540Y492077D01*
X56286Y492248D01*
X56035Y492425D01*
X55789Y492609D01*
X55547Y492798D01*
X55311Y492993D01*
X55078Y493194D01*
X54851Y493400D01*
X54629Y493612D01*
X54412Y493829D01*
X54200Y494051D01*
X53994Y494278D01*
X53793Y494511D01*
X53598Y494747D01*
X53409Y494989D01*
X53225Y495235D01*
X53048Y495486D01*
X52877Y495740D01*
X52712Y495999D01*
X52553Y496262D01*
X52401Y496528D01*
X52255Y496798D01*
X52115Y497071D01*
X51983Y497348D01*
X51857Y497628D01*
X51738Y497911D01*
X51625Y498197D01*
X51520Y498485D01*
X51422Y498775D01*
X51330Y499068D01*
X51246Y499364D01*
X51169Y499661D01*
X51099Y499960D01*
X51037Y500260D01*
X50981Y500562D01*
X50933Y500865D01*
X50893Y501169D01*
X50859Y501474D01*
X50833Y501780D01*
X50815Y502086D01*
X50804Y502393D01*
X50800Y502700D01*
X50800Y566059D01*
D15*
X50793Y566663D01*
X50771Y567268D01*
X50735Y567871D01*
X50685Y568473D01*
X50620Y569074D01*
X50541Y569674D01*
X50448Y570271D01*
X50341Y570866D01*
X50220Y571458D01*
X50084Y572047D01*
X49935Y572633D01*
X49771Y573215D01*
X49594Y573793D01*
X49403Y574367D01*
X49199Y574935D01*
X48981Y575499D01*
X48749Y576058D01*
X48505Y576611D01*
X48247Y577157D01*
X47976Y577698D01*
X47693Y578232D01*
X47397Y578759D01*
X47089Y579279D01*
X46768Y579791D01*
X46435Y580296D01*
X46090Y580792D01*
X45734Y581281D01*
X45366Y581760D01*
X44986Y582231D01*
X44596Y582692D01*
X44195Y583145D01*
X43783Y583587D01*
X43361Y584020D01*
X30788Y596592D01*
X30482Y596905D01*
X30184Y597226D01*
X29893Y597553D01*
X29610Y597887D01*
X29336Y598228D01*
X29069Y598576D01*
X28811Y598929D01*
X28561Y599289D01*
X28320Y599654D01*
X28088Y600025D01*
X27865Y600402D01*
X27650Y600784D01*
X27445Y601170D01*
X27249Y601562D01*
X27062Y601958D01*
X26885Y602358D01*
X26718Y602763D01*
X26560Y603171D01*
X26412Y603583D01*
X26274Y603999D01*
X26145Y604417D01*
X26027Y604839D01*
X25919Y605263D01*
X25820Y605690D01*
X25732Y606119D01*
X25655Y606549D01*
X25587Y606982D01*
X25530Y607416D01*
X25483Y607851D01*
X25447Y608288D01*
X25421Y608725D01*
X25405Y609162D01*
X25400Y609600D01*
D14*
X25400Y609600D03*
D16*
X127320Y490000D02*
X139740Y490000D01*
X139739Y490000D02*
X140051Y489996D01*
X140362Y489985D01*
X140673Y489966D01*
X140984Y489939D01*
X141294Y489904D01*
X141602Y489863D01*
X141910Y489813D01*
X142217Y489756D01*
X142522Y489691D01*
X142825Y489619D01*
X143126Y489540D01*
X143426Y489453D01*
X143723Y489359D01*
X144018Y489258D01*
X144310Y489149D01*
X144599Y489033D01*
X144886Y488910D01*
X145169Y488781D01*
X145449Y488644D01*
X145726Y488500D01*
X145999Y488350D01*
X146268Y488193D01*
X146533Y488030D01*
X146795Y487860D01*
X147052Y487683D01*
X147304Y487501D01*
X147552Y487312D01*
X147796Y487117D01*
X148034Y486917D01*
X148268Y486710D01*
X148496Y486498D01*
X148719Y486280D01*
X148720Y486280D02*
X297361Y337640D01*
D15*
X297360Y337640D02*
X297783Y337207D01*
X298195Y336765D01*
X298596Y336312D01*
X298986Y335851D01*
X299366Y335380D01*
X299734Y334901D01*
X300090Y334412D01*
X300435Y333916D01*
X300768Y333411D01*
X301089Y332899D01*
X301397Y332379D01*
X301693Y331852D01*
X301976Y331318D01*
X302247Y330777D01*
X302505Y330231D01*
X302749Y329678D01*
X302981Y329119D01*
X303199Y328555D01*
X303403Y327987D01*
X303594Y327413D01*
X303771Y326835D01*
X303935Y326253D01*
X304084Y325667D01*
X304220Y325078D01*
X304341Y324486D01*
X304448Y323891D01*
X304541Y323294D01*
X304620Y322694D01*
X304685Y322093D01*
X304735Y321491D01*
X304771Y320888D01*
X304793Y320283D01*
X304800Y319679D01*
X304800Y0D01*
D14*
X304800Y0D03*
X-246380Y551180D03*
D15*
X-228600Y558800D01*
X-203200Y558800D01*
D14*
X-63500Y678180D03*
X-38100Y678180D03*
X-12700Y678180D03*
X12700Y678180D03*
X38100Y678180D03*
X63500Y678180D03*
M02*
