G04 EAGLE Gerber RS-274X export*
G75*
%MOMM*%
%FSLAX34Y34*%
%LPD*%
%INTop Copper*%
%IPPOS*%
%AMOC8*
5,1,8,0,0,1.08239X$1,22.5*%
G01*
G04 Define Apertures*
%ADD10C,1.879600*%
%ADD11C,1.250000*%
%ADD12C,0.609600*%
%ADD13C,1.500000*%
%ADD14C,1.000000*%
%ADD15C,0.750000*%
%ADD16C,1.300000*%
%ADD17R,0.800000X0.900000*%
%ADD18R,1.100000X1.400000*%
%ADD19R,0.700000X1.500000*%
%ADD20R,1.000000X0.600000*%
%ADD21R,1.000000X0.800000*%
%ADD22R,1.500000X1.500000*%
%ADD23C,0.756400*%
%ADD24C,1.016000*%
%ADD25C,0.254000*%
G36*
X-237093Y555402D02*
X-239100Y555160D01*
X-241043Y555720D01*
X-241401Y556011D01*
X-264301Y568201D01*
X-265361Y568953D01*
X-266543Y570593D01*
X-266993Y572564D01*
X-266638Y574554D01*
X-265535Y576249D01*
X-264106Y577212D01*
X-259158Y582160D01*
X-259148Y582150D01*
X-258980Y582393D01*
X-257254Y583446D01*
X-255254Y583743D01*
X-253297Y583236D01*
X-248473Y580883D01*
X-247868Y580846D01*
X-247294Y581043D01*
X-246840Y581445D01*
X-243506Y588281D01*
X-243469Y588887D01*
X-243666Y589460D01*
X-244068Y589914D01*
X-247393Y591536D01*
X-248889Y592645D01*
X-249942Y594371D01*
X-250239Y596371D01*
X-249732Y598328D01*
X-245699Y606596D01*
X-245662Y607202D01*
X-245859Y607775D01*
X-246261Y608229D01*
X-253996Y612002D01*
X-254602Y612039D01*
X-255175Y611841D01*
X-255629Y611440D01*
X-258698Y605146D01*
X-259587Y603868D01*
X-261246Y602711D01*
X-263224Y602293D01*
X-265209Y602680D01*
X-265942Y602984D01*
X-267721Y604221D01*
X-268774Y605947D01*
X-269070Y607947D01*
X-268563Y609904D01*
X-265473Y616241D01*
X-265436Y616846D01*
X-265633Y617419D01*
X-266704Y618630D01*
X-266641Y618686D01*
X-267397Y619588D01*
X-267989Y621521D01*
X-267780Y623532D01*
X-266803Y625302D01*
X-253661Y640763D01*
X-253095Y641331D01*
X-236820Y655275D01*
X-236172Y655746D01*
X-217907Y666958D01*
X-217193Y667322D01*
X-197393Y675522D01*
X-196630Y675769D01*
X-175787Y680755D01*
X-174995Y680879D01*
X-153627Y682525D01*
X-153237Y682540D01*
X-153211Y682540D01*
X-150221Y682534D01*
X-150190Y682540D01*
X-78620Y682540D01*
X-76789Y682198D01*
X-75086Y681109D01*
X-73942Y679441D01*
X-73540Y677460D01*
X-73540Y670175D01*
X-73319Y669642D01*
X-72935Y667860D01*
X-73274Y665867D01*
X-74364Y664164D01*
X-76031Y663020D01*
X-76136Y662999D01*
X-75438Y662999D01*
X-75438Y649918D01*
X-88138Y649918D01*
X-88138Y648305D01*
X-86321Y643918D01*
X-82962Y640559D01*
X-81005Y639749D01*
X-79473Y638760D01*
X-78303Y637111D01*
X-77869Y635136D01*
X-78240Y633149D01*
X-79356Y631463D01*
X-114510Y596309D01*
X-115280Y595678D01*
X-119730Y592704D01*
X-121561Y591946D01*
X-126810Y590902D01*
X-127801Y590804D01*
X-174420Y590804D01*
X-182559Y588623D01*
X-189857Y584410D01*
X-192837Y581430D01*
X-200496Y573770D01*
X-200898Y573519D01*
X-200883Y573502D01*
X-202851Y571761D01*
X-202892Y571808D01*
X-204237Y570886D01*
X-206218Y570484D01*
X-212607Y570484D01*
X-221005Y568154D01*
X-228474Y563664D01*
X-234947Y556838D01*
X-234976Y556866D01*
X-235339Y556407D01*
X-237093Y555402D01*
G37*
%LPC*%
G36*
X-88138Y651442D02*
X-76962Y651442D01*
X-76962Y662831D01*
X-78013Y662618D01*
X-78575Y662618D01*
X-82962Y660801D01*
X-86321Y657442D01*
X-88138Y653055D01*
X-88138Y651442D01*
G37*
G36*
X-177038Y635762D02*
X-170260Y635762D01*
X-170260Y656500D01*
X-171408Y659271D01*
X-173529Y661392D01*
X-176300Y662540D01*
X-177038Y662540D01*
X-177038Y635762D01*
G37*
G36*
X-185340Y635762D02*
X-178562Y635762D01*
X-178562Y662540D01*
X-179300Y662540D01*
X-182071Y661392D01*
X-184192Y659271D01*
X-185340Y656500D01*
X-185340Y635762D01*
G37*
G36*
X-204514Y592836D02*
X-201886Y592836D01*
X-199459Y593841D01*
X-197601Y595699D01*
X-196596Y598126D01*
X-196596Y637115D01*
X-196676Y637517D01*
X-196676Y656298D01*
X-197669Y658696D01*
X-199504Y660531D01*
X-201902Y661524D01*
X-204498Y661524D01*
X-206896Y660531D01*
X-208731Y658696D01*
X-209724Y656298D01*
X-209724Y637517D01*
X-209804Y637115D01*
X-209804Y598126D01*
X-208799Y595699D01*
X-206941Y593841D01*
X-204514Y592836D01*
G37*
G36*
X-179300Y607460D02*
X-178562Y607460D01*
X-178562Y634238D01*
X-185340Y634238D01*
X-185340Y613500D01*
X-184192Y610729D01*
X-182071Y608608D01*
X-179300Y607460D01*
G37*
G36*
X-177038Y607460D02*
X-176300Y607460D01*
X-173529Y608608D01*
X-171408Y610729D01*
X-170260Y613500D01*
X-170260Y634238D01*
X-177038Y634238D01*
X-177038Y607460D01*
G37*
%LPD*%
G36*
X340967Y82902D02*
X339976Y82804D01*
X188321Y82804D01*
X187330Y82902D01*
X182081Y83946D01*
X180250Y84704D01*
X175800Y87678D01*
X175030Y88309D01*
X113709Y149630D01*
X113078Y150400D01*
X110104Y154850D01*
X109346Y156681D01*
X108302Y161930D01*
X108204Y162921D01*
X108204Y229092D01*
X106023Y237232D01*
X101810Y244530D01*
X100474Y245866D01*
X100474Y245866D01*
X88610Y257730D01*
X87524Y259340D01*
X87122Y261322D01*
X87122Y262973D01*
X85459Y266987D01*
X82538Y269908D01*
X81485Y271444D01*
X81051Y273419D01*
X81422Y275407D01*
X82538Y277092D01*
X85459Y280013D01*
X86354Y282173D01*
X87342Y283705D01*
X88992Y284875D01*
X90966Y285308D01*
X92954Y284938D01*
X94639Y283821D01*
X114891Y263570D01*
X115523Y262800D01*
X118496Y258350D01*
X119254Y256519D01*
X120298Y251270D01*
X120396Y250279D01*
X120396Y196246D01*
X122577Y188106D01*
X126790Y180809D01*
X129770Y177829D01*
X150448Y157151D01*
X151830Y154591D01*
X151838Y152569D01*
X151057Y150704D01*
X147940Y146117D01*
X147313Y143089D01*
X147892Y140051D01*
X149590Y137466D01*
X162486Y128701D01*
X165515Y128074D01*
X168553Y128654D01*
X171138Y130352D01*
X186647Y153173D01*
X187274Y156202D01*
X186695Y159239D01*
X186152Y160066D01*
X185423Y161824D01*
X185415Y163846D01*
X186196Y165710D01*
X197536Y182397D01*
X198882Y183743D01*
X200746Y184524D01*
X202768Y184516D01*
X203737Y184316D01*
X206774Y184895D01*
X209359Y186593D01*
X224869Y209415D01*
X225496Y212443D01*
X224916Y215481D01*
X223218Y218066D01*
X210322Y226830D01*
X207294Y227457D01*
X204256Y226878D01*
X201671Y225180D01*
X186161Y202359D01*
X185534Y199330D01*
X186114Y196292D01*
X186657Y195466D01*
X187385Y193708D01*
X187393Y191686D01*
X186612Y189821D01*
X175272Y173134D01*
X173927Y171789D01*
X172062Y171008D01*
X170040Y171015D01*
X169072Y171216D01*
X166034Y170636D01*
X163218Y168787D01*
X160510Y167953D01*
X158523Y168324D01*
X156837Y169441D01*
X139109Y187169D01*
X138478Y187939D01*
X135504Y192388D01*
X134746Y194220D01*
X133702Y199468D01*
X133604Y200460D01*
X133604Y254492D01*
X133097Y256385D01*
X133213Y259388D01*
X134251Y261123D01*
X135884Y262316D01*
X137852Y262777D01*
X139845Y262434D01*
X141545Y261341D01*
X144258Y258704D01*
X145394Y257043D01*
X145796Y255062D01*
X145796Y247606D01*
X146801Y245179D01*
X148659Y243321D01*
X151086Y242316D01*
X153714Y242316D01*
X156141Y243321D01*
X157999Y245179D01*
X159004Y247606D01*
X159004Y255514D01*
X159349Y257354D01*
X160442Y259055D01*
X173050Y272020D01*
X174231Y274986D01*
X174186Y278178D01*
X172923Y281110D01*
X161315Y292399D01*
X158349Y293579D01*
X155157Y293534D01*
X152225Y292272D01*
X136057Y275645D01*
X134765Y272400D01*
X133750Y270803D01*
X132101Y269633D01*
X130126Y269199D01*
X128139Y269570D01*
X126453Y270686D01*
X125874Y271266D01*
X125874Y271266D01*
X88610Y308530D01*
X87524Y310140D01*
X87122Y312122D01*
X87122Y313773D01*
X85459Y317787D01*
X82538Y320708D01*
X81485Y322244D01*
X81051Y324219D01*
X81422Y326207D01*
X82538Y327892D01*
X85459Y330813D01*
X87122Y334827D01*
X87122Y336478D01*
X87493Y338385D01*
X88610Y340070D01*
X97110Y348571D01*
X97880Y349203D01*
X102330Y352176D01*
X104161Y352934D01*
X109410Y353978D01*
X110401Y354076D01*
X198884Y354076D01*
X200573Y353787D01*
X202308Y352749D01*
X203501Y351116D01*
X203962Y349148D01*
X203619Y347155D01*
X202526Y345454D01*
X194837Y337547D01*
X217119Y315880D01*
X224813Y323791D01*
X226262Y327433D01*
X226460Y328592D01*
X227522Y330312D01*
X229171Y331482D01*
X231146Y331916D01*
X233134Y331545D01*
X234819Y330429D01*
X263719Y301529D01*
X264634Y300280D01*
X265191Y298336D01*
X264946Y296330D01*
X263937Y294577D01*
X263784Y294403D01*
X262782Y291477D01*
X262976Y288391D01*
X269836Y274388D01*
X272156Y272343D01*
X275082Y271341D01*
X278169Y271535D01*
X302948Y283674D01*
X304993Y285994D01*
X305995Y288920D01*
X305933Y289907D01*
X306171Y291795D01*
X307165Y293555D01*
X308768Y294788D01*
X326886Y303664D01*
X328721Y304166D01*
X330728Y303921D01*
X332480Y302913D01*
X333222Y302259D01*
X336148Y301257D01*
X339234Y301451D01*
X364013Y313590D01*
X366059Y315910D01*
X367060Y318836D01*
X366866Y321923D01*
X360006Y335925D01*
X357687Y337970D01*
X354761Y338972D01*
X351674Y338778D01*
X326895Y326639D01*
X324850Y324319D01*
X323848Y321393D01*
X323910Y320406D01*
X323672Y318518D01*
X322677Y316758D01*
X321075Y315525D01*
X302957Y306649D01*
X301122Y306147D01*
X299115Y306392D01*
X297363Y307401D01*
X296621Y308055D01*
X293695Y309056D01*
X290608Y308862D01*
X283435Y305348D01*
X281282Y304831D01*
X279294Y305202D01*
X277608Y306318D01*
X226016Y357910D01*
X223037Y360890D01*
X215739Y365103D01*
X207599Y367284D01*
X106188Y367284D01*
X102966Y366421D01*
X101894Y366254D01*
X99896Y366561D01*
X98176Y367623D01*
X97006Y369272D01*
X96572Y371247D01*
X96943Y373234D01*
X98059Y374920D01*
X175030Y451891D01*
X178010Y454870D01*
X182223Y462168D01*
X184404Y470308D01*
X184404Y637115D01*
X184324Y637517D01*
X184324Y656298D01*
X183331Y658696D01*
X181496Y660531D01*
X179098Y661524D01*
X176502Y661524D01*
X174104Y660531D01*
X172269Y658696D01*
X171276Y656298D01*
X171276Y637517D01*
X171196Y637115D01*
X171196Y474521D01*
X171098Y473530D01*
X170054Y468281D01*
X169296Y466450D01*
X166323Y462000D01*
X165691Y461230D01*
X79270Y374810D01*
X77660Y373724D01*
X75678Y373322D01*
X74027Y373322D01*
X70013Y371659D01*
X66941Y368587D01*
X65278Y364573D01*
X65278Y360227D01*
X66941Y356213D01*
X69862Y353292D01*
X70915Y351756D01*
X71349Y349781D01*
X70978Y347793D01*
X69862Y346108D01*
X66941Y343187D01*
X65278Y339173D01*
X65278Y334827D01*
X66941Y330813D01*
X69862Y327892D01*
X70915Y326356D01*
X71349Y324381D01*
X70978Y322393D01*
X69862Y320708D01*
X66941Y317787D01*
X65278Y313773D01*
X65278Y309427D01*
X66941Y305413D01*
X69862Y302492D01*
X70915Y300956D01*
X71349Y298981D01*
X70978Y296993D01*
X69862Y295308D01*
X66941Y292387D01*
X65278Y288373D01*
X65278Y284027D01*
X66941Y280013D01*
X69862Y277092D01*
X70915Y275556D01*
X71349Y273581D01*
X70978Y271593D01*
X69862Y269908D01*
X66941Y266987D01*
X66046Y264827D01*
X65058Y263295D01*
X63408Y262125D01*
X61434Y261692D01*
X59446Y262062D01*
X57761Y263179D01*
X-591Y321530D01*
X-1223Y322300D01*
X-4196Y326750D01*
X-4954Y328581D01*
X-5998Y333830D01*
X-6096Y334821D01*
X-6096Y451332D01*
X-5797Y453049D01*
X-4748Y454778D01*
X-3109Y455961D01*
X-1138Y456410D01*
X853Y456056D01*
X2547Y454952D01*
X3455Y453605D01*
X5459Y451601D01*
X7886Y450596D01*
X95294Y450596D01*
X98132Y451772D01*
X99914Y452156D01*
X101907Y451817D01*
X103610Y450727D01*
X104754Y449060D01*
X105156Y447078D01*
X105156Y442321D01*
X105058Y441330D01*
X104014Y436081D01*
X103256Y434250D01*
X100283Y429800D01*
X99651Y429030D01*
X78221Y407601D01*
X77216Y405174D01*
X77216Y402546D01*
X78221Y400119D01*
X80079Y398261D01*
X82506Y397256D01*
X85134Y397256D01*
X87561Y398261D01*
X108990Y419691D01*
X111970Y422670D01*
X116183Y429968D01*
X118364Y438108D01*
X118364Y643932D01*
X116183Y652072D01*
X111970Y659370D01*
X101009Y670330D01*
X97786Y673553D01*
X97585Y673700D01*
X96389Y675331D01*
X95924Y677298D01*
X96263Y679291D01*
X97352Y680994D01*
X99020Y682138D01*
X101001Y682540D01*
X149975Y682540D01*
X150006Y682534D01*
X152996Y682540D01*
X153022Y682540D01*
X153412Y682525D01*
X174779Y680879D01*
X175570Y680755D01*
X196413Y675770D01*
X197175Y675523D01*
X204925Y672313D01*
X206397Y671380D01*
X207593Y669749D01*
X208059Y667782D01*
X207740Y665907D01*
X208600Y667275D01*
X210258Y668432D01*
X212236Y668850D01*
X214221Y668464D01*
X216975Y667323D01*
X217688Y666959D01*
X221013Y664919D01*
X221860Y664267D01*
X223017Y662608D01*
X223435Y660630D01*
X223049Y658646D01*
X222076Y656298D01*
X222076Y637517D01*
X221996Y637115D01*
X221996Y595586D01*
X223001Y593159D01*
X224859Y591301D01*
X227286Y590296D01*
X229914Y590296D01*
X232848Y591511D01*
X234171Y591712D01*
X234125Y591930D01*
X234512Y593915D01*
X235204Y595586D01*
X235204Y637115D01*
X235124Y637517D01*
X235124Y645502D01*
X235316Y646885D01*
X236243Y648682D01*
X237797Y649975D01*
X239732Y650560D01*
X241742Y650343D01*
X243509Y649360D01*
X252876Y641336D01*
X253441Y640768D01*
X266741Y625123D01*
X267434Y624065D01*
X280096Y598183D01*
X280591Y595489D01*
X280010Y593552D01*
X278720Y591995D01*
X276925Y591065D01*
X274909Y590909D01*
X272992Y591551D01*
X269711Y593445D01*
X263312Y595160D01*
X256688Y595160D01*
X250289Y593445D01*
X244551Y590133D01*
X242797Y588379D01*
X241371Y587376D01*
X239772Y586984D01*
X239833Y586195D01*
X239191Y584278D01*
X236555Y579711D01*
X234840Y573312D01*
X234840Y566688D01*
X236555Y560289D01*
X239867Y554551D01*
X244551Y549867D01*
X250289Y546555D01*
X256688Y544840D01*
X263312Y544840D01*
X269711Y546555D01*
X275449Y549867D01*
X280133Y554551D01*
X283445Y560289D01*
X285310Y567248D01*
X286277Y569140D01*
X287840Y570423D01*
X289780Y570994D01*
X291788Y570764D01*
X293548Y569768D01*
X294780Y568165D01*
X320471Y515648D01*
X320982Y513658D01*
X320675Y511660D01*
X319613Y509940D01*
X317964Y508770D01*
X315989Y508336D01*
X314002Y508707D01*
X312316Y509823D01*
X301985Y520154D01*
X299006Y523134D01*
X291708Y527347D01*
X283568Y529528D01*
X236350Y529528D01*
X234781Y529776D01*
X233021Y530771D01*
X231788Y532373D01*
X228766Y538541D01*
X226074Y540915D01*
X222677Y542078D01*
X219094Y541852D01*
X202400Y533674D01*
X200026Y530981D01*
X198863Y527585D01*
X199088Y524002D01*
X207267Y507307D01*
X209960Y504933D01*
X213356Y503770D01*
X216939Y503996D01*
X233633Y512174D01*
X235771Y514600D01*
X237601Y515918D01*
X239582Y516320D01*
X279355Y516320D01*
X280346Y516223D01*
X285595Y515178D01*
X287426Y514420D01*
X291876Y511447D01*
X292646Y510815D01*
X324069Y479392D01*
X324610Y478752D01*
X327232Y475081D01*
X327662Y474361D01*
X328683Y472273D01*
X328683Y472273D01*
X360890Y406436D01*
X363108Y401902D01*
X363625Y399651D01*
X363215Y397671D01*
X362066Y396008D01*
X360359Y394925D01*
X358365Y394593D01*
X356399Y395066D01*
X354773Y396267D01*
X354498Y396572D01*
X346874Y401330D01*
X338235Y403804D01*
X297941Y403804D01*
X296373Y404053D01*
X294612Y405047D01*
X293379Y406649D01*
X290358Y412817D01*
X287665Y415191D01*
X284269Y416354D01*
X280686Y416128D01*
X263991Y407950D01*
X261617Y405257D01*
X260454Y401861D01*
X260680Y398278D01*
X268858Y381584D01*
X271551Y379209D01*
X274948Y378047D01*
X278531Y378272D01*
X295225Y386450D01*
X297363Y388876D01*
X299192Y390194D01*
X301174Y390596D01*
X333742Y390596D01*
X334682Y390509D01*
X339666Y389571D01*
X341417Y388888D01*
X345720Y386203D01*
X347102Y384931D01*
X350135Y380865D01*
X350626Y380060D01*
X351648Y377972D01*
X388414Y302815D01*
X388900Y301144D01*
X388719Y299130D01*
X387767Y297346D01*
X386194Y296076D01*
X384251Y295519D01*
X382244Y295764D01*
X380492Y296772D01*
X377564Y299353D01*
X374256Y300486D01*
X370766Y300266D01*
X358879Y294443D01*
X372113Y267430D01*
X383999Y273253D01*
X386312Y275877D01*
X387445Y279185D01*
X387201Y283051D01*
X387393Y284787D01*
X388332Y286578D01*
X389895Y287860D01*
X391834Y288432D01*
X393843Y288201D01*
X395602Y287206D01*
X396834Y285603D01*
X435477Y206611D01*
X435477Y206610D01*
X435984Y205574D01*
X436370Y204488D01*
X437765Y198460D01*
X437896Y197315D01*
X437896Y128886D01*
X437607Y127197D01*
X436569Y125462D01*
X434936Y124270D01*
X432968Y123808D01*
X430975Y124151D01*
X429274Y125244D01*
X424188Y130190D01*
X421777Y131150D01*
X419182Y131114D01*
X416798Y130087D01*
X405541Y118511D01*
X403880Y117375D01*
X401899Y116973D01*
X390974Y116973D01*
X382834Y114792D01*
X375536Y110578D01*
X372557Y107599D01*
X353267Y88309D01*
X352497Y87678D01*
X348047Y84704D01*
X346216Y83946D01*
X340967Y82902D01*
G37*
%LPC*%
G36*
X203962Y635762D02*
X210740Y635762D01*
X210740Y656500D01*
X209592Y659271D01*
X208685Y660178D01*
X207682Y661604D01*
X207201Y663568D01*
X207506Y665455D01*
X206630Y664086D01*
X204963Y662942D01*
X203962Y662739D01*
X203962Y635762D01*
G37*
G36*
X195660Y635762D02*
X202438Y635762D01*
X202438Y662540D01*
X201700Y662540D01*
X198929Y661392D01*
X196808Y659271D01*
X195660Y656500D01*
X195660Y635762D01*
G37*
G36*
X201700Y607460D02*
X202438Y607460D01*
X202438Y634238D01*
X195660Y634238D01*
X195660Y613500D01*
X196808Y610729D01*
X198929Y608608D01*
X201700Y607460D01*
G37*
G36*
X203962Y607460D02*
X204700Y607460D01*
X207471Y608608D01*
X209592Y610729D01*
X210740Y613500D01*
X210740Y634238D01*
X203962Y634238D01*
X203962Y607460D01*
G37*
G36*
X186223Y318302D02*
X191626Y313049D01*
X204369Y326152D01*
X193774Y336455D01*
X186080Y328543D01*
X184751Y325201D01*
X184801Y321606D01*
X186223Y318302D01*
G37*
G36*
X198122Y306732D02*
X201463Y305402D01*
X205059Y305453D01*
X208362Y306875D01*
X216056Y314787D01*
X205462Y325090D01*
X192719Y311986D01*
X198122Y306732D01*
G37*
G36*
X342398Y278528D02*
X345582Y272029D01*
X363792Y280950D01*
X357511Y293772D01*
X345624Y287949D01*
X343311Y285326D01*
X342179Y282018D01*
X342398Y278528D01*
G37*
G36*
X352059Y261850D02*
X355367Y260717D01*
X358857Y260937D01*
X370744Y266760D01*
X364463Y279582D01*
X346252Y270661D01*
X349436Y264162D01*
X352059Y261850D01*
G37*
G36*
X297813Y264527D02*
X304095Y251705D01*
X322305Y260626D01*
X319121Y267125D01*
X316498Y269437D01*
X313190Y270570D01*
X309700Y270350D01*
X297813Y264527D01*
G37*
G36*
X281332Y248612D02*
X284516Y242113D01*
X302726Y251035D01*
X296445Y263857D01*
X284558Y258033D01*
X282246Y255410D01*
X281113Y252102D01*
X281332Y248612D01*
G37*
G36*
X304765Y250336D02*
X311047Y237514D01*
X322933Y243338D01*
X325246Y245961D01*
X326379Y249269D01*
X326159Y252759D01*
X322975Y259257D01*
X304765Y250336D01*
G37*
G36*
X290993Y231934D02*
X294301Y230801D01*
X297791Y231021D01*
X309678Y236844D01*
X303397Y249666D01*
X285186Y240745D01*
X288370Y234246D01*
X290993Y231934D01*
G37*
G36*
X229896Y190239D02*
X241705Y182213D01*
X253103Y198985D01*
X247118Y203052D01*
X243693Y203762D01*
X240258Y203106D01*
X237336Y201186D01*
X229896Y190239D01*
G37*
G36*
X242965Y181357D02*
X254774Y173331D01*
X262214Y184279D01*
X262923Y187703D01*
X262268Y191138D01*
X260348Y194061D01*
X254363Y198128D01*
X242965Y181357D01*
G37*
G36*
X223465Y168249D02*
X229450Y164181D01*
X240848Y180953D01*
X229039Y188978D01*
X221599Y178031D01*
X220890Y174607D01*
X221545Y171172D01*
X223465Y168249D01*
G37*
G36*
X236696Y159257D02*
X240120Y158548D01*
X243555Y159203D01*
X246478Y161123D01*
X253918Y172071D01*
X242109Y180096D01*
X230711Y163325D01*
X236696Y159257D01*
G37*
G36*
X191674Y133997D02*
X203483Y125972D01*
X214881Y142743D01*
X208896Y146811D01*
X205472Y147520D01*
X202037Y146865D01*
X199114Y144945D01*
X191674Y133997D01*
G37*
G36*
X204743Y125115D02*
X216553Y117090D01*
X223992Y128037D01*
X224702Y131462D01*
X224046Y134897D01*
X222126Y137819D01*
X216141Y141887D01*
X204743Y125115D01*
G37*
G36*
X185243Y112007D02*
X191228Y107940D01*
X202626Y124711D01*
X190817Y132737D01*
X183377Y121789D01*
X182668Y118365D01*
X183324Y114930D01*
X185243Y112007D01*
G37*
G36*
X198474Y103016D02*
X201898Y102307D01*
X205333Y102962D01*
X208256Y104882D01*
X215696Y115829D01*
X203887Y123855D01*
X192489Y107083D01*
X198474Y103016D01*
G37*
%LPD*%
G36*
X-60726Y656683D02*
X-62701Y656249D01*
X-64688Y656620D01*
X-66374Y657737D01*
X-68105Y659468D01*
X-69125Y660931D01*
X-69590Y662898D01*
X-69251Y664891D01*
X-68162Y666594D01*
X-66494Y667738D01*
X-64513Y668140D01*
X-61050Y668140D01*
X-59295Y667827D01*
X-57574Y666765D01*
X-56405Y665116D01*
X-55971Y663141D01*
X-56342Y661153D01*
X-57458Y659468D01*
X-59190Y657737D01*
X-60726Y656683D01*
G37*
G36*
X1113Y458456D02*
X-854Y457991D01*
X-2847Y458330D01*
X-4550Y459419D01*
X-5694Y461087D01*
X-6096Y463068D01*
X-6096Y509526D01*
X-5769Y511320D01*
X-4693Y513032D01*
X-3035Y514188D01*
X-1056Y514606D01*
X928Y514220D01*
X1226Y514096D01*
X3854Y514096D01*
X6281Y515101D01*
X73430Y582251D01*
X76410Y585230D01*
X80623Y592528D01*
X82804Y600668D01*
X82804Y639734D01*
X83175Y641640D01*
X84292Y643326D01*
X85459Y644493D01*
X87122Y648507D01*
X87122Y653274D01*
X87435Y655030D01*
X88497Y656750D01*
X90146Y657920D01*
X92121Y658354D01*
X94109Y657983D01*
X95794Y656866D01*
X99651Y653010D01*
X100283Y652240D01*
X103256Y647790D01*
X104014Y645959D01*
X105058Y640710D01*
X105156Y639719D01*
X105156Y467322D01*
X104829Y465528D01*
X103753Y463816D01*
X102095Y462660D01*
X100117Y462242D01*
X98132Y462628D01*
X95294Y463804D01*
X7886Y463804D01*
X5459Y462799D01*
X3491Y460831D01*
X2744Y459652D01*
X1113Y458456D01*
G37*
G36*
X-88992Y363725D02*
X-90966Y363292D01*
X-92954Y363662D01*
X-94639Y364779D01*
X-134148Y404288D01*
X-135234Y405898D01*
X-135636Y407880D01*
X-135636Y497919D01*
X-135538Y498910D01*
X-134494Y504159D01*
X-133736Y505990D01*
X-130763Y510440D01*
X-130131Y511210D01*
X-3070Y638270D01*
X-1460Y639356D01*
X522Y639758D01*
X2173Y639758D01*
X6187Y641421D01*
X9108Y644342D01*
X10644Y645395D01*
X12619Y645829D01*
X14607Y645458D01*
X16292Y644342D01*
X17308Y643326D01*
X18394Y641715D01*
X18796Y639734D01*
X18796Y608286D01*
X19972Y605448D01*
X20356Y603666D01*
X20017Y601673D01*
X18927Y599970D01*
X17260Y598826D01*
X15278Y598424D01*
X1084Y598424D01*
X-7056Y596243D01*
X-14354Y592030D01*
X-17333Y589050D01*
X-102119Y504265D01*
X-103124Y501837D01*
X-103124Y499210D01*
X-102119Y496783D01*
X-100261Y494925D01*
X-97834Y493920D01*
X-95206Y493920D01*
X-92779Y494925D01*
X-87377Y500327D01*
X-85333Y501573D01*
X-83323Y501794D01*
X-81387Y501213D01*
X-79830Y499923D01*
X-78900Y498128D01*
X-78744Y496112D01*
X-79386Y494195D01*
X-80623Y492052D01*
X-82804Y483912D01*
X-82804Y373346D01*
X-83175Y371440D01*
X-84292Y369754D01*
X-85459Y368587D01*
X-86354Y366427D01*
X-87342Y364895D01*
X-88992Y363725D01*
G37*
G36*
X-167108Y416442D02*
X-169083Y416008D01*
X-171071Y416379D01*
X-172756Y417496D01*
X-216927Y461666D01*
X-218068Y463414D01*
X-218412Y465407D01*
X-217952Y467375D01*
X-216761Y469009D01*
X-215027Y470048D01*
X-213025Y470329D01*
X-210948Y470202D01*
X-209228Y470794D01*
X-207866Y471999D01*
X-204239Y479435D01*
X-204225Y479453D01*
X-203403Y481150D01*
X-203397Y481161D01*
X-198533Y491133D01*
X-198498Y491268D01*
X-172110Y545707D01*
X-171131Y547083D01*
X-170040Y548174D01*
X-169232Y550125D01*
X-169232Y552235D01*
X-170163Y554484D01*
X-170913Y555606D01*
X-171603Y557272D01*
X-174815Y560485D01*
X-182028Y564002D01*
X-183933Y565613D01*
X-184758Y567458D01*
X-184798Y569480D01*
X-184047Y571357D01*
X-182623Y572792D01*
X-178277Y575696D01*
X-176446Y576454D01*
X-171197Y577498D01*
X-170206Y577596D01*
X-123588Y577596D01*
X-120366Y578459D01*
X-119294Y578626D01*
X-117296Y578319D01*
X-115576Y577257D01*
X-114406Y575608D01*
X-113972Y573633D01*
X-114343Y571646D01*
X-115459Y569960D01*
X-156354Y529066D01*
X-156354Y529066D01*
X-157690Y527730D01*
X-161903Y520432D01*
X-164084Y512292D01*
X-164084Y421088D01*
X-164397Y419332D01*
X-165459Y417612D01*
X-167108Y416442D01*
G37*
G36*
X-249016Y471444D02*
X-251038Y471436D01*
X-252903Y472217D01*
X-254315Y473664D01*
X-255097Y474875D01*
X-255853Y476878D01*
X-256574Y481696D01*
X-256184Y484528D01*
X-255006Y486171D01*
X-253280Y487224D01*
X-251280Y487521D01*
X-249323Y487014D01*
X-248955Y486834D01*
X-235927Y513545D01*
X-236641Y513893D01*
X-238254Y515133D01*
X-239247Y516894D01*
X-239475Y518903D01*
X-238900Y520841D01*
X-225940Y545244D01*
X-225940Y545244D01*
X-224850Y547296D01*
X-224350Y548063D01*
X-221298Y551925D01*
X-219929Y553130D01*
X-215710Y555666D01*
X-214004Y556310D01*
X-209162Y557194D01*
X-208250Y557276D01*
X-207046Y557276D01*
X-204966Y556831D01*
X-203323Y555652D01*
X-202270Y553926D01*
X-201973Y551926D01*
X-202480Y549969D01*
X-206973Y540758D01*
X-207063Y539283D01*
X-207009Y538864D01*
X-207564Y536919D01*
X-213075Y526285D01*
X-213993Y525031D01*
X-215318Y523706D01*
X-216126Y521755D01*
X-216126Y519645D01*
X-215318Y517694D01*
X-213826Y516202D01*
X-211875Y515394D01*
X-209765Y515394D01*
X-207814Y516202D01*
X-207305Y516711D01*
X-205606Y517833D01*
X-203618Y518198D01*
X-201644Y517758D01*
X-199999Y516584D01*
X-198941Y514860D01*
X-198640Y512861D01*
X-199142Y510903D01*
X-203558Y501793D01*
X-204643Y500314D01*
X-206361Y499247D01*
X-208358Y498934D01*
X-210320Y499426D01*
X-211934Y500643D01*
X-212041Y500764D01*
X-213676Y501562D01*
X-215491Y501673D01*
X-215716Y501595D01*
X-217559Y501322D01*
X-219524Y501798D01*
X-221148Y503002D01*
X-222173Y504745D01*
X-222251Y504969D01*
X-223456Y506332D01*
X-225091Y507129D01*
X-227595Y507282D01*
X-228013Y507220D01*
X-229978Y507696D01*
X-231602Y508900D01*
X-232627Y510643D01*
X-232770Y511058D01*
X-234243Y512723D01*
X-234558Y512877D01*
X-247585Y486166D01*
X-247109Y485934D01*
X-245661Y485570D01*
X-244029Y484377D01*
X-242991Y482641D01*
X-242713Y480639D01*
X-243238Y478686D01*
X-245501Y474150D01*
X-247158Y472240D01*
X-249016Y471444D01*
G37*
G36*
X-297508Y-53885D02*
X-319296Y-57995D01*
X-321993Y-57771D01*
X-323713Y-56708D01*
X-324883Y-55059D01*
X-325317Y-53084D01*
X-324946Y-51097D01*
X-323830Y-49411D01*
X-319867Y-45449D01*
X-316555Y-39711D01*
X-314840Y-33312D01*
X-314840Y-26688D01*
X-316555Y-20289D01*
X-319867Y-14551D01*
X-324551Y-9867D01*
X-330289Y-6555D01*
X-336688Y-4840D01*
X-343312Y-4840D01*
X-349711Y-6555D01*
X-355449Y-9867D01*
X-360133Y-14551D01*
X-363445Y-20289D01*
X-365160Y-26688D01*
X-365160Y-33312D01*
X-363445Y-39711D01*
X-360133Y-45449D01*
X-356572Y-49009D01*
X-355325Y-51058D01*
X-355106Y-53068D01*
X-355689Y-55004D01*
X-356980Y-56559D01*
X-358776Y-57488D01*
X-360792Y-57642D01*
X-372175Y-56226D01*
X-372946Y-56069D01*
X-396571Y-49303D01*
X-397308Y-49028D01*
X-419604Y-38693D01*
X-420290Y-38307D01*
X-440721Y-24651D01*
X-441340Y-24164D01*
X-459415Y-7515D01*
X-459951Y-6938D01*
X-475236Y12304D01*
X-475677Y12956D01*
X-487805Y34329D01*
X-488140Y35042D01*
X-496820Y58032D01*
X-497040Y58788D01*
X-502064Y82844D01*
X-502165Y83625D01*
X-503411Y108167D01*
X-503390Y108954D01*
X-500829Y133395D01*
X-500687Y134169D01*
X-494380Y157921D01*
X-494120Y158664D01*
X-484326Y180911D01*
X-484241Y181096D01*
X-483998Y181592D01*
X-483911Y181761D01*
X-482812Y183812D01*
X-482671Y184306D01*
X-374226Y406096D01*
X-372913Y407768D01*
X-371133Y408727D01*
X-369120Y408916D01*
X-367193Y408304D01*
X-365657Y406989D01*
X-364756Y405179D01*
X-363445Y400289D01*
X-360133Y394551D01*
X-355449Y389867D01*
X-349711Y386555D01*
X-343312Y384840D01*
X-336688Y384840D01*
X-330289Y386555D01*
X-324551Y389867D01*
X-319867Y394551D01*
X-316555Y400289D01*
X-314840Y406688D01*
X-314840Y413312D01*
X-316555Y419711D01*
X-319867Y425449D01*
X-324551Y430133D01*
X-330289Y433445D01*
X-336688Y435160D01*
X-343312Y435160D01*
X-349711Y433445D01*
X-350821Y432805D01*
X-353474Y432125D01*
X-355446Y432571D01*
X-357088Y433752D01*
X-358139Y435478D01*
X-358434Y437479D01*
X-357925Y439435D01*
X-309810Y537840D01*
X-308702Y539332D01*
X-306976Y540385D01*
X-304976Y540682D01*
X-304607Y540586D01*
X-303150Y540497D01*
X-302577Y540694D01*
X-302123Y541096D01*
X-299054Y547389D01*
X-298165Y548668D01*
X-296506Y549824D01*
X-294528Y550242D01*
X-292544Y549856D01*
X-291811Y549552D01*
X-290032Y548315D01*
X-288978Y546589D01*
X-288682Y544589D01*
X-289189Y542632D01*
X-292280Y536295D01*
X-292317Y535690D01*
X-292119Y535116D01*
X-291717Y534662D01*
X-283982Y530890D01*
X-283377Y530853D01*
X-282804Y531050D01*
X-282350Y531452D01*
X-279058Y538200D01*
X-277850Y539785D01*
X-276098Y540793D01*
X-274091Y541037D01*
X-272147Y540479D01*
X-255857Y532001D01*
X-254121Y531518D01*
X-252519Y530284D01*
X-251526Y528522D01*
X-251299Y526513D01*
X-251873Y524575D01*
X-260855Y507663D01*
X-262229Y506031D01*
X-264041Y505135D01*
X-266060Y505017D01*
X-267964Y505696D01*
X-269453Y507064D01*
X-270291Y508904D01*
X-270721Y510765D01*
X-272246Y512904D01*
X-274474Y514297D01*
X-277065Y514730D01*
X-279625Y514139D01*
X-281764Y512614D01*
X-285917Y505969D01*
X-286798Y504910D01*
X-288533Y503871D01*
X-288889Y503821D01*
X-290280Y503342D01*
X-290734Y502940D01*
X-295822Y492509D01*
X-295910Y491060D01*
X-295895Y490962D01*
X-296371Y488997D01*
X-297576Y487373D01*
X-299318Y486347D01*
X-299569Y486261D01*
X-300326Y485592D01*
X-302624Y480879D01*
X-285475Y472515D01*
X-283177Y477227D01*
X-283115Y478236D01*
X-283201Y478487D01*
X-283475Y480329D01*
X-282999Y482294D01*
X-281795Y483918D01*
X-281696Y483976D01*
X-280499Y485035D01*
X-279696Y486681D01*
X-278962Y487790D01*
X-277357Y489020D01*
X-275400Y489527D01*
X-273400Y489230D01*
X-271674Y488177D01*
X-270496Y486534D01*
X-270052Y484562D01*
X-269906Y477696D01*
X-267673Y469810D01*
X-263524Y462740D01*
X-253674Y452890D01*
X-252532Y451142D01*
X-252188Y449149D01*
X-252648Y447181D01*
X-253839Y445547D01*
X-255574Y444508D01*
X-257576Y444227D01*
X-257638Y444231D01*
X-257862Y444153D01*
X-259705Y443880D01*
X-261670Y444356D01*
X-263294Y445560D01*
X-264319Y447303D01*
X-264397Y447528D01*
X-265602Y448890D01*
X-267237Y449687D01*
X-269052Y449798D01*
X-270772Y449206D01*
X-272134Y448001D01*
X-276522Y439005D01*
X-276604Y438844D01*
X-284116Y424740D01*
X-285008Y423536D01*
X-286438Y422106D01*
X-287246Y420155D01*
X-287246Y418045D01*
X-286438Y416094D01*
X-284946Y414602D01*
X-282995Y413794D01*
X-282058Y413794D01*
X-279844Y413286D01*
X-278236Y412060D01*
X-277234Y410304D01*
X-276996Y408296D01*
X-277471Y402540D01*
X-275662Y396375D01*
X-271757Y391273D01*
X-269019Y389595D01*
X-268062Y389008D01*
X-264747Y386977D01*
X-263315Y385664D01*
X-263013Y385015D01*
X-261070Y382340D01*
X-259950Y381653D01*
X-256175Y379340D01*
X-247653Y376936D01*
X-184061Y376936D01*
X-183070Y376838D01*
X-177821Y375794D01*
X-175990Y375036D01*
X-171540Y372063D01*
X-170770Y371431D01*
X-145579Y346240D01*
X-144898Y345395D01*
X-144165Y343511D01*
X-144225Y341490D01*
X-145068Y339652D01*
X-146562Y338289D01*
X-148468Y337617D01*
X-150486Y337741D01*
X-153708Y338604D01*
X-212088Y338604D01*
X-213957Y338960D01*
X-215651Y340063D01*
X-216781Y341740D01*
X-217160Y342654D01*
X-219346Y344840D01*
X-222204Y346024D01*
X-249796Y346024D01*
X-252654Y344840D01*
X-254840Y342654D01*
X-255219Y341740D01*
X-256263Y340150D01*
X-257931Y339006D01*
X-259912Y338604D01*
X-280088Y338604D01*
X-281957Y338960D01*
X-283651Y340063D01*
X-284781Y341740D01*
X-285160Y342654D01*
X-287346Y344840D01*
X-290204Y346024D01*
X-317796Y346024D01*
X-320654Y344840D01*
X-322840Y342654D01*
X-324024Y339796D01*
X-324024Y324204D01*
X-322840Y321346D01*
X-320654Y319160D01*
X-317796Y317976D01*
X-290204Y317976D01*
X-287346Y319160D01*
X-285160Y321346D01*
X-284781Y322260D01*
X-283737Y323850D01*
X-282069Y324994D01*
X-280088Y325396D01*
X-259912Y325396D01*
X-258043Y325040D01*
X-256349Y323937D01*
X-255219Y322260D01*
X-254840Y321346D01*
X-252654Y319160D01*
X-249796Y317976D01*
X-222204Y317976D01*
X-219346Y319160D01*
X-217160Y321346D01*
X-216781Y322260D01*
X-215737Y323850D01*
X-214069Y324994D01*
X-212088Y325396D01*
X-157921Y325396D01*
X-156930Y325298D01*
X-151681Y324254D01*
X-149850Y323496D01*
X-145400Y320523D01*
X-144630Y319891D01*
X-88610Y263870D01*
X-87524Y262260D01*
X-87122Y260278D01*
X-87122Y258627D01*
X-85459Y254613D01*
X-82538Y251692D01*
X-81485Y250156D01*
X-81051Y248181D01*
X-81422Y246193D01*
X-82538Y244508D01*
X-85459Y241587D01*
X-87122Y237573D01*
X-87122Y235922D01*
X-87493Y234015D01*
X-88610Y232330D01*
X-122830Y198109D01*
X-123600Y197478D01*
X-128050Y194504D01*
X-129881Y193746D01*
X-135130Y192702D01*
X-136121Y192604D01*
X-138896Y192604D01*
X-140727Y192946D01*
X-142430Y194035D01*
X-143574Y195703D01*
X-143976Y197684D01*
X-143976Y199796D01*
X-145160Y202654D01*
X-147346Y204840D01*
X-148260Y205219D01*
X-149850Y206263D01*
X-150994Y207931D01*
X-151396Y209912D01*
X-151396Y230088D01*
X-151040Y231957D01*
X-149937Y233651D01*
X-148260Y234781D01*
X-147346Y235160D01*
X-145160Y237346D01*
X-143976Y240204D01*
X-143976Y267796D01*
X-145160Y270654D01*
X-147346Y272840D01*
X-150204Y274024D01*
X-165796Y274024D01*
X-168654Y272840D01*
X-170840Y270654D01*
X-172024Y267796D01*
X-172024Y240204D01*
X-170840Y237346D01*
X-168654Y235160D01*
X-167740Y234781D01*
X-166150Y233737D01*
X-165006Y232069D01*
X-164604Y230088D01*
X-164604Y209912D01*
X-164960Y208043D01*
X-166063Y206349D01*
X-167740Y205219D01*
X-168654Y204840D01*
X-170840Y202654D01*
X-172024Y199796D01*
X-172024Y172204D01*
X-170840Y169346D01*
X-168654Y167160D01*
X-165796Y165976D01*
X-150204Y165976D01*
X-147346Y167160D01*
X-145160Y169346D01*
X-143976Y172204D01*
X-143976Y174316D01*
X-143634Y176147D01*
X-142545Y177850D01*
X-140877Y178994D01*
X-138896Y179396D01*
X-131908Y179396D01*
X-128686Y180259D01*
X-127614Y180426D01*
X-125616Y180119D01*
X-123896Y179057D01*
X-122726Y177408D01*
X-122292Y175433D01*
X-122663Y173446D01*
X-123779Y171760D01*
X-153786Y141753D01*
X-154556Y141122D01*
X-159006Y138148D01*
X-160837Y137390D01*
X-166086Y136346D01*
X-167077Y136248D01*
X-210569Y136248D01*
X-212362Y136575D01*
X-214074Y137651D01*
X-215231Y139309D01*
X-215649Y141288D01*
X-215262Y143272D01*
X-214960Y144002D01*
X-214960Y151238D01*
X-257040Y151238D01*
X-257040Y144002D01*
X-256738Y143272D01*
X-256354Y141490D01*
X-256693Y139497D01*
X-257782Y137794D01*
X-259450Y136650D01*
X-261431Y136248D01*
X-278569Y136248D01*
X-280362Y136575D01*
X-282074Y137651D01*
X-283231Y139309D01*
X-283649Y141288D01*
X-283262Y143272D01*
X-282960Y144002D01*
X-282960Y151238D01*
X-325040Y151238D01*
X-325040Y144002D01*
X-324738Y143272D01*
X-324354Y141490D01*
X-324693Y139497D01*
X-325782Y137794D01*
X-327450Y136650D01*
X-329431Y136248D01*
X-347723Y136248D01*
X-348714Y136346D01*
X-353963Y137390D01*
X-355794Y138148D01*
X-360244Y141122D01*
X-361014Y141753D01*
X-369891Y150630D01*
X-370523Y151400D01*
X-373496Y155850D01*
X-374254Y157681D01*
X-374962Y161236D01*
X-374703Y164096D01*
X-373600Y165791D01*
X-371923Y166921D01*
X-371346Y167160D01*
X-369160Y169346D01*
X-367976Y172204D01*
X-367976Y199796D01*
X-369160Y202654D01*
X-371346Y204840D01*
X-372260Y205219D01*
X-373850Y206263D01*
X-374994Y207931D01*
X-375396Y209912D01*
X-375396Y230088D01*
X-375040Y231957D01*
X-373937Y233651D01*
X-372260Y234781D01*
X-371346Y235160D01*
X-369160Y237346D01*
X-367976Y240204D01*
X-367976Y267796D01*
X-369160Y270654D01*
X-371346Y272840D01*
X-374204Y274024D01*
X-389796Y274024D01*
X-392654Y272840D01*
X-394840Y270654D01*
X-396024Y267796D01*
X-396024Y240204D01*
X-394840Y237346D01*
X-392654Y235160D01*
X-391740Y234781D01*
X-390150Y233737D01*
X-389006Y232069D01*
X-388604Y230088D01*
X-388604Y209912D01*
X-388960Y208043D01*
X-390063Y206349D01*
X-391740Y205219D01*
X-392654Y204840D01*
X-394840Y202654D01*
X-396024Y199796D01*
X-396024Y172204D01*
X-394840Y169346D01*
X-392654Y167160D01*
X-391740Y166781D01*
X-390150Y165737D01*
X-389006Y164069D01*
X-388604Y162088D01*
X-388604Y159708D01*
X-386423Y151568D01*
X-382210Y144270D01*
X-379230Y141291D01*
X-368710Y130770D01*
X-368710Y130770D01*
X-367374Y129434D01*
X-360076Y125221D01*
X-351936Y123040D01*
X-328626Y123040D01*
X-326833Y122713D01*
X-325121Y121637D01*
X-323965Y119979D01*
X-323547Y118001D01*
X-323933Y116016D01*
X-324024Y115796D01*
X-324024Y100204D01*
X-322840Y97346D01*
X-320654Y95160D01*
X-317796Y93976D01*
X-290204Y93976D01*
X-287346Y95160D01*
X-285160Y97346D01*
X-284781Y98260D01*
X-283737Y99850D01*
X-282069Y100994D01*
X-280088Y101396D01*
X-259912Y101396D01*
X-258043Y101040D01*
X-256349Y99937D01*
X-255219Y98260D01*
X-254840Y97346D01*
X-252654Y95160D01*
X-249796Y93976D01*
X-222204Y93976D01*
X-219346Y95160D01*
X-217160Y97346D01*
X-216781Y98260D01*
X-215737Y99850D01*
X-214069Y100994D01*
X-212088Y101396D01*
X-159108Y101396D01*
X-150968Y103577D01*
X-143670Y107790D01*
X-142334Y109126D01*
X-142334Y109126D01*
X-94639Y156821D01*
X-93140Y157858D01*
X-91169Y158308D01*
X-89178Y157953D01*
X-87484Y156850D01*
X-86354Y155173D01*
X-85459Y153013D01*
X-82538Y150092D01*
X-81485Y148556D01*
X-81051Y146581D01*
X-81422Y144593D01*
X-82538Y142908D01*
X-85459Y139987D01*
X-87122Y135973D01*
X-87122Y131627D01*
X-85459Y127613D01*
X-83257Y125411D01*
X-82203Y123874D01*
X-81769Y121899D01*
X-82140Y119912D01*
X-83257Y118226D01*
X-86321Y115162D01*
X-88138Y110775D01*
X-88138Y109162D01*
X-64262Y109162D01*
X-64262Y110775D01*
X-66079Y115162D01*
X-69143Y118226D01*
X-70197Y119763D01*
X-70631Y121738D01*
X-70260Y123725D01*
X-69143Y125411D01*
X-66941Y127613D01*
X-65278Y131627D01*
X-65278Y135973D01*
X-66941Y139987D01*
X-69862Y142908D01*
X-70915Y144444D01*
X-71349Y146419D01*
X-70978Y148407D01*
X-69862Y150092D01*
X-66941Y153013D01*
X-65278Y157027D01*
X-65278Y161373D01*
X-66941Y165387D01*
X-69862Y168308D01*
X-70915Y169844D01*
X-71349Y171819D01*
X-70978Y173807D01*
X-69862Y175492D01*
X-66941Y178413D01*
X-65278Y182427D01*
X-65278Y186773D01*
X-66941Y190787D01*
X-69862Y193708D01*
X-70915Y195244D01*
X-71349Y197219D01*
X-70978Y199207D01*
X-69862Y200892D01*
X-66941Y203813D01*
X-65278Y207827D01*
X-65278Y212173D01*
X-66941Y216187D01*
X-69862Y219108D01*
X-70915Y220644D01*
X-71349Y222619D01*
X-70978Y224607D01*
X-69862Y226292D01*
X-66941Y229213D01*
X-65278Y233227D01*
X-65278Y237573D01*
X-66941Y241587D01*
X-69862Y244508D01*
X-70915Y246044D01*
X-71349Y248019D01*
X-70978Y250007D01*
X-69862Y251692D01*
X-66941Y254613D01*
X-65278Y258627D01*
X-65278Y262973D01*
X-66941Y266987D01*
X-69862Y269908D01*
X-70915Y271444D01*
X-71349Y273419D01*
X-70978Y275407D01*
X-69862Y277092D01*
X-66941Y280013D01*
X-65278Y284027D01*
X-65278Y288373D01*
X-66941Y292387D01*
X-69862Y295308D01*
X-70915Y296844D01*
X-71349Y298819D01*
X-70978Y300807D01*
X-69862Y302492D01*
X-66941Y305413D01*
X-65278Y309427D01*
X-65278Y313773D01*
X-66941Y317787D01*
X-69862Y320708D01*
X-70915Y322244D01*
X-71349Y324219D01*
X-70978Y326207D01*
X-69862Y327892D01*
X-66941Y330813D01*
X-65278Y334827D01*
X-65278Y339173D01*
X-66941Y343187D01*
X-69862Y346108D01*
X-70915Y347644D01*
X-71349Y349619D01*
X-70978Y351607D01*
X-69862Y353292D01*
X-66941Y356213D01*
X-65278Y360227D01*
X-65278Y364573D01*
X-66941Y368587D01*
X-68108Y369754D01*
X-69194Y371365D01*
X-69596Y373346D01*
X-69596Y479699D01*
X-69498Y480690D01*
X-68454Y485939D01*
X-67696Y487770D01*
X-64723Y492220D01*
X-64091Y492990D01*
X-26940Y530141D01*
X-26095Y530822D01*
X-24211Y531555D01*
X-22190Y531495D01*
X-20352Y530652D01*
X-18989Y529158D01*
X-18317Y527252D01*
X-18441Y525234D01*
X-19304Y522012D01*
X-19304Y330608D01*
X-17123Y322468D01*
X-12910Y315170D01*
X-9930Y312191D01*
X63790Y238470D01*
X64876Y236860D01*
X65278Y234878D01*
X65278Y233227D01*
X66941Y229213D01*
X69862Y226292D01*
X70915Y224756D01*
X71349Y222781D01*
X70978Y220793D01*
X69862Y219108D01*
X66941Y216187D01*
X65278Y212173D01*
X65278Y207827D01*
X66941Y203813D01*
X69862Y200892D01*
X70915Y199356D01*
X71349Y197381D01*
X70978Y195393D01*
X69862Y193708D01*
X66941Y190787D01*
X65278Y186773D01*
X65278Y182427D01*
X66941Y178413D01*
X69143Y176211D01*
X70197Y174674D01*
X70631Y172699D01*
X70260Y170712D01*
X69143Y169026D01*
X66079Y165962D01*
X64262Y161575D01*
X64262Y159962D01*
X76962Y159962D01*
X76962Y158438D01*
X64262Y158438D01*
X64262Y156825D01*
X66079Y152438D01*
X68425Y150092D01*
X69478Y148556D01*
X69912Y146581D01*
X69542Y144593D01*
X68425Y142908D01*
X66079Y140562D01*
X64262Y136175D01*
X64262Y134562D01*
X88138Y134562D01*
X88138Y136175D01*
X86321Y140562D01*
X83975Y142908D01*
X82922Y144444D01*
X82488Y146419D01*
X82858Y148407D01*
X83975Y150092D01*
X86321Y152438D01*
X86882Y153792D01*
X88324Y155752D01*
X90104Y156710D01*
X92117Y156899D01*
X94044Y156287D01*
X95580Y154973D01*
X96482Y153163D01*
X97177Y150568D01*
X101390Y143270D01*
X104370Y140291D01*
X167334Y77326D01*
X167334Y77326D01*
X168670Y75990D01*
X175968Y71777D01*
X184108Y69596D01*
X344190Y69596D01*
X352329Y71777D01*
X353513Y72460D01*
X355891Y73138D01*
X357884Y72799D01*
X359587Y71710D01*
X360730Y70042D01*
X361133Y68061D01*
X361133Y67904D01*
X364050Y60862D01*
X369439Y55472D01*
X376482Y52555D01*
X381643Y52555D01*
X383398Y52242D01*
X385119Y51180D01*
X386288Y49531D01*
X386722Y47556D01*
X386352Y45568D01*
X385235Y43883D01*
X373722Y32370D01*
X372176Y31312D01*
X370201Y30882D01*
X369560Y30873D01*
X367633Y30043D01*
X343512Y5240D01*
X342736Y3290D01*
X342766Y1192D01*
X343596Y-735D01*
X350477Y-7426D01*
X352426Y-8202D01*
X354524Y-8173D01*
X356451Y-7343D01*
X380571Y17461D01*
X381449Y19665D01*
X381722Y21122D01*
X382838Y22807D01*
X395475Y35444D01*
X396938Y36464D01*
X398905Y36929D01*
X400899Y36590D01*
X402602Y35501D01*
X403745Y33833D01*
X404147Y31852D01*
X404147Y26074D01*
X407064Y19032D01*
X412454Y13642D01*
X419496Y10725D01*
X427118Y10725D01*
X434161Y13642D01*
X439550Y19032D01*
X442467Y26074D01*
X442467Y33696D01*
X439550Y40738D01*
X434161Y46128D01*
X427118Y49045D01*
X419006Y49045D01*
X418246Y48881D01*
X416253Y49220D01*
X414550Y50310D01*
X413406Y51977D01*
X413004Y53959D01*
X413004Y63740D01*
X413375Y65647D01*
X414492Y67332D01*
X417879Y70720D01*
X419314Y71727D01*
X421279Y72204D01*
X423274Y71877D01*
X424984Y70798D01*
X426137Y69137D01*
X426795Y67609D01*
X433676Y60917D01*
X435626Y60141D01*
X437724Y60171D01*
X439651Y61001D01*
X463771Y85804D01*
X464648Y88008D01*
X464921Y89465D01*
X466038Y91151D01*
X468218Y93331D01*
X472432Y100629D01*
X474613Y108768D01*
X474613Y178613D01*
X474814Y180029D01*
X475753Y181820D01*
X477316Y183102D01*
X479255Y183674D01*
X481264Y183444D01*
X483024Y182448D01*
X484256Y180845D01*
X485110Y179098D01*
X485326Y178817D01*
X494757Y159918D01*
X495053Y159188D01*
X502026Y137247D01*
X502206Y136481D01*
X505705Y113726D01*
X505764Y112941D01*
X505705Y89918D01*
X505642Y89133D01*
X502026Y66396D01*
X501842Y65631D01*
X494757Y43726D01*
X494457Y42998D01*
X484072Y22450D01*
X483663Y21777D01*
X470228Y3082D01*
X469720Y2480D01*
X453557Y-13915D01*
X452963Y-14431D01*
X434461Y-28132D01*
X433794Y-28550D01*
X413397Y-39227D01*
X412673Y-39537D01*
X390871Y-46935D01*
X390108Y-47129D01*
X367425Y-51069D01*
X366641Y-51143D01*
X343622Y-51530D01*
X342836Y-51483D01*
X320034Y-48309D01*
X319265Y-48140D01*
X297226Y-41480D01*
X296492Y-41195D01*
X275748Y-31210D01*
X275067Y-30815D01*
X256376Y-17925D01*
X255751Y-17416D01*
X251918Y-13755D01*
X251155Y-12829D01*
X250421Y-10945D01*
X250481Y-8924D01*
X251325Y-7086D01*
X252818Y-5723D01*
X254725Y-5050D01*
X256504Y-5160D01*
X263312Y-5160D01*
X269711Y-3445D01*
X275449Y-133D01*
X280133Y4551D01*
X283445Y10289D01*
X285160Y16688D01*
X285160Y23312D01*
X283445Y29711D01*
X280133Y35449D01*
X275449Y40133D01*
X269711Y43445D01*
X263312Y45160D01*
X256688Y45160D01*
X250289Y43445D01*
X244551Y40133D01*
X239867Y35449D01*
X236555Y29711D01*
X234840Y23312D01*
X234840Y16688D01*
X236555Y10289D01*
X238786Y6424D01*
X239466Y3921D01*
X239079Y1937D01*
X237948Y261D01*
X236253Y-841D01*
X234262Y-1195D01*
X232291Y-744D01*
X219761Y4930D01*
X202887Y9356D01*
X196530Y9916D01*
X195532Y10160D01*
X193976Y10160D01*
X193530Y10180D01*
X191981Y10316D01*
X190965Y10160D01*
X-165565Y10160D01*
X-166581Y10316D01*
X-168130Y10180D01*
X-168576Y10160D01*
X-170132Y10160D01*
X-171130Y9916D01*
X-177487Y9356D01*
X-194361Y4930D01*
X-210253Y-2266D01*
X-224711Y-12028D01*
X-230708Y-17757D01*
X-231135Y-18122D01*
X-250610Y-32986D01*
X-251271Y-33414D01*
X-272875Y-45126D01*
X-273594Y-45446D01*
X-296748Y-53679D01*
X-297508Y-53885D01*
G37*
%LPC*%
G36*
X-304654Y472076D02*
X-298593Y469120D01*
X-295403Y475661D01*
X-303292Y479509D01*
X-305591Y474797D01*
X-305652Y473788D01*
X-305323Y472833D01*
X-304654Y472076D01*
G37*
G36*
X-291163Y465496D02*
X-290154Y465434D01*
X-289199Y465763D01*
X-288442Y466433D01*
X-286143Y471145D01*
X-294033Y474993D01*
X-297223Y468452D01*
X-291163Y465496D01*
G37*
G36*
X-303238Y288762D02*
X-282960Y288762D01*
X-282960Y295998D01*
X-284298Y299229D01*
X-286771Y301702D01*
X-290002Y303040D01*
X-303238Y303040D01*
X-303238Y288762D01*
G37*
G36*
X-235238Y288762D02*
X-214960Y288762D01*
X-214960Y295998D01*
X-216298Y299229D01*
X-218771Y301702D01*
X-222002Y303040D01*
X-235238Y303040D01*
X-235238Y288762D01*
G37*
G36*
X-257040Y288762D02*
X-236762Y288762D01*
X-236762Y303040D01*
X-249998Y303040D01*
X-253229Y301702D01*
X-255702Y299229D01*
X-257040Y295998D01*
X-257040Y288762D01*
G37*
G36*
X-325040Y288762D02*
X-304762Y288762D01*
X-304762Y303040D01*
X-317998Y303040D01*
X-321229Y301702D01*
X-323702Y299229D01*
X-325040Y295998D01*
X-325040Y288762D01*
G37*
G36*
X-337238Y254762D02*
X-322960Y254762D01*
X-322960Y267880D01*
X-322618Y269711D01*
X-321529Y271414D01*
X-319861Y272558D01*
X-317880Y272960D01*
X-304762Y272960D01*
X-304762Y287238D01*
X-325040Y287238D01*
X-325040Y280120D01*
X-325382Y278289D01*
X-326471Y276586D01*
X-328139Y275442D01*
X-330120Y275040D01*
X-337238Y275040D01*
X-337238Y254762D01*
G37*
G36*
X-303238Y272960D02*
X-290002Y272960D01*
X-286771Y274298D01*
X-284298Y276771D01*
X-282960Y280002D01*
X-282960Y287238D01*
X-303238Y287238D01*
X-303238Y272960D01*
G37*
G36*
X-249998Y272960D02*
X-236762Y272960D01*
X-236762Y287238D01*
X-257040Y287238D01*
X-257040Y280002D01*
X-255702Y276771D01*
X-253229Y274298D01*
X-249998Y272960D01*
G37*
G36*
X-217040Y254762D02*
X-202762Y254762D01*
X-202762Y275040D01*
X-209880Y275040D01*
X-211711Y275382D01*
X-213414Y276471D01*
X-214558Y278139D01*
X-214960Y280120D01*
X-214960Y287238D01*
X-235238Y287238D01*
X-235238Y272960D01*
X-222120Y272960D01*
X-220289Y272618D01*
X-218586Y271529D01*
X-217442Y269861D01*
X-217040Y267880D01*
X-217040Y254762D01*
G37*
G36*
X-353040Y254762D02*
X-338762Y254762D01*
X-338762Y275040D01*
X-345998Y275040D01*
X-349229Y273702D01*
X-351702Y271229D01*
X-353040Y267998D01*
X-353040Y254762D01*
G37*
G36*
X-201238Y254762D02*
X-186960Y254762D01*
X-186960Y267998D01*
X-188298Y271229D01*
X-190771Y273702D01*
X-194002Y275040D01*
X-201238Y275040D01*
X-201238Y254762D01*
G37*
G36*
X-201238Y232960D02*
X-194002Y232960D01*
X-190771Y234298D01*
X-188298Y236771D01*
X-186960Y240002D01*
X-186960Y253238D01*
X-201238Y253238D01*
X-201238Y232960D01*
G37*
G36*
X-337238Y232960D02*
X-330002Y232960D01*
X-326771Y234298D01*
X-324298Y236771D01*
X-322960Y240002D01*
X-322960Y253238D01*
X-337238Y253238D01*
X-337238Y232960D01*
G37*
G36*
X-345998Y232960D02*
X-338762Y232960D01*
X-338762Y253238D01*
X-353040Y253238D01*
X-353040Y240002D01*
X-351702Y236771D01*
X-349229Y234298D01*
X-345998Y232960D01*
G37*
G36*
X-209998Y232960D02*
X-202762Y232960D01*
X-202762Y253238D01*
X-217040Y253238D01*
X-217040Y240002D01*
X-215702Y236771D01*
X-213229Y234298D01*
X-209998Y232960D01*
G37*
G36*
X-201238Y186762D02*
X-186960Y186762D01*
X-186960Y199998D01*
X-188298Y203229D01*
X-190771Y205702D01*
X-194002Y207040D01*
X-201238Y207040D01*
X-201238Y186762D01*
G37*
G36*
X-217040Y186762D02*
X-202762Y186762D01*
X-202762Y207040D01*
X-209998Y207040D01*
X-213229Y205702D01*
X-215702Y203229D01*
X-217040Y199998D01*
X-217040Y186762D01*
G37*
G36*
X-353040Y186762D02*
X-338762Y186762D01*
X-338762Y207040D01*
X-345998Y207040D01*
X-349229Y205702D01*
X-351702Y203229D01*
X-353040Y199998D01*
X-353040Y186762D01*
G37*
G36*
X-337238Y186762D02*
X-322960Y186762D01*
X-322960Y199998D01*
X-324298Y203229D01*
X-326771Y205702D01*
X-330002Y207040D01*
X-337238Y207040D01*
X-337238Y186762D01*
G37*
G36*
X-325040Y152762D02*
X-304762Y152762D01*
X-304762Y167040D01*
X-317880Y167040D01*
X-319711Y167382D01*
X-321414Y168471D01*
X-322558Y170139D01*
X-322960Y172120D01*
X-322960Y185238D01*
X-337238Y185238D01*
X-337238Y164960D01*
X-330120Y164960D01*
X-328289Y164618D01*
X-326586Y163529D01*
X-325442Y161861D01*
X-325040Y159880D01*
X-325040Y152762D01*
G37*
G36*
X-345998Y164960D02*
X-338762Y164960D01*
X-338762Y185238D01*
X-353040Y185238D01*
X-353040Y172002D01*
X-351702Y168771D01*
X-349229Y166298D01*
X-345998Y164960D01*
G37*
G36*
X-235238Y152762D02*
X-214960Y152762D01*
X-214960Y159880D01*
X-214618Y161711D01*
X-213529Y163414D01*
X-211861Y164558D01*
X-209880Y164960D01*
X-202762Y164960D01*
X-202762Y185238D01*
X-217040Y185238D01*
X-217040Y172120D01*
X-217382Y170289D01*
X-218471Y168586D01*
X-220139Y167442D01*
X-222120Y167040D01*
X-235238Y167040D01*
X-235238Y152762D01*
G37*
G36*
X-201238Y164960D02*
X-194002Y164960D01*
X-190771Y166298D01*
X-188298Y168771D01*
X-186960Y172002D01*
X-186960Y185238D01*
X-201238Y185238D01*
X-201238Y164960D01*
G37*
G36*
X-257040Y152762D02*
X-236762Y152762D01*
X-236762Y167040D01*
X-249998Y167040D01*
X-253229Y165702D01*
X-255702Y163229D01*
X-257040Y159998D01*
X-257040Y152762D01*
G37*
G36*
X-303238Y152762D02*
X-282960Y152762D01*
X-282960Y159998D01*
X-284298Y163229D01*
X-286771Y165702D01*
X-290002Y167040D01*
X-303238Y167040D01*
X-303238Y152762D01*
G37*
G36*
X74027Y72078D02*
X78373Y72078D01*
X82387Y73741D01*
X85459Y76813D01*
X87122Y80827D01*
X87122Y85173D01*
X85459Y89187D01*
X82538Y92108D01*
X81485Y93644D01*
X81051Y95619D01*
X81422Y97607D01*
X82538Y99292D01*
X85459Y102213D01*
X87122Y106227D01*
X87122Y110573D01*
X85459Y114587D01*
X83257Y116790D01*
X82203Y118326D01*
X81769Y120301D01*
X82140Y122288D01*
X83257Y123974D01*
X86321Y127038D01*
X88138Y131425D01*
X88138Y133038D01*
X64262Y133038D01*
X64262Y131425D01*
X66079Y127038D01*
X69143Y123974D01*
X70197Y122437D01*
X70631Y120463D01*
X70260Y118475D01*
X69143Y116790D01*
X66941Y114587D01*
X65278Y110573D01*
X65278Y106227D01*
X66941Y102213D01*
X69862Y99292D01*
X70915Y97756D01*
X71349Y95781D01*
X70978Y93793D01*
X69862Y92108D01*
X66941Y89187D01*
X65278Y85173D01*
X65278Y80827D01*
X66941Y76813D01*
X70013Y73741D01*
X74027Y72078D01*
G37*
G36*
X-78373Y72078D02*
X-74027Y72078D01*
X-70013Y73741D01*
X-66941Y76813D01*
X-65278Y80827D01*
X-65278Y85173D01*
X-66941Y89187D01*
X-69143Y91390D01*
X-70197Y92926D01*
X-70631Y94901D01*
X-70260Y96888D01*
X-69143Y98574D01*
X-66079Y101638D01*
X-64262Y106025D01*
X-64262Y107638D01*
X-88138Y107638D01*
X-88138Y106025D01*
X-86321Y101638D01*
X-83257Y98574D01*
X-82203Y97037D01*
X-81769Y95063D01*
X-82140Y93075D01*
X-83257Y91390D01*
X-85459Y89187D01*
X-87122Y85173D01*
X-87122Y80827D01*
X-85459Y76813D01*
X-82387Y73741D01*
X-78373Y72078D01*
G37*
G36*
X303486Y-6604D02*
X310997Y-6604D01*
X313424Y-5599D01*
X329572Y10549D01*
X331117Y11606D01*
X333093Y12036D01*
X333733Y12045D01*
X335661Y12875D01*
X359781Y37679D01*
X360557Y39628D01*
X360528Y41726D01*
X359698Y43653D01*
X352817Y50344D01*
X350867Y51120D01*
X348769Y51091D01*
X346842Y50261D01*
X322722Y25457D01*
X321845Y23253D01*
X321571Y21796D01*
X320455Y20111D01*
X308436Y8092D01*
X306825Y7006D01*
X304844Y6604D01*
X303486Y6604D01*
X301059Y5599D01*
X299201Y3741D01*
X298196Y1314D01*
X298196Y-1314D01*
X299201Y-3741D01*
X301059Y-5599D01*
X303486Y-6604D01*
G37*
G36*
X377241Y-2368D02*
X385685Y-10579D01*
X400868Y5034D01*
X396754Y9034D01*
X393967Y10143D01*
X390968Y10102D01*
X388213Y8915D01*
X377241Y-2368D01*
G37*
G36*
X386777Y-11641D02*
X395221Y-19852D01*
X406193Y-8570D01*
X407302Y-5783D01*
X407260Y-2784D01*
X406074Y-29D01*
X401960Y3972D01*
X386777Y-11641D01*
G37*
G36*
X365326Y-23284D02*
X369440Y-27284D01*
X384622Y-11671D01*
X376179Y-3460D01*
X365207Y-14743D01*
X364098Y-17530D01*
X364140Y-20529D01*
X365326Y-23284D01*
G37*
G36*
X374646Y-32347D02*
X377433Y-33456D01*
X380432Y-33414D01*
X383187Y-32228D01*
X394159Y-20945D01*
X385715Y-12734D01*
X370532Y-28347D01*
X374646Y-32347D01*
G37*
%LPD*%
D10*
X76200Y83000D03*
X76200Y108400D03*
X76200Y133800D03*
X76200Y159200D03*
X76200Y184600D03*
X76200Y210000D03*
X76200Y235400D03*
X76200Y260800D03*
X76200Y286200D03*
X76200Y311600D03*
X76200Y337000D03*
X76200Y362400D03*
X-76200Y362400D03*
X-76200Y337000D03*
X-76200Y311600D03*
X-76200Y286200D03*
X-76200Y260800D03*
X-76200Y235400D03*
X-76200Y210000D03*
X-76200Y184600D03*
X-76200Y159200D03*
X-76200Y133800D03*
X-76200Y108400D03*
X-76200Y83000D03*
X-76200Y650680D03*
X-50800Y650680D03*
X-25400Y650680D03*
X0Y650680D03*
X25400Y650680D03*
X50800Y650680D03*
X76200Y650680D03*
D11*
X-344250Y266250D02*
X-344250Y241750D01*
X-344250Y266250D02*
X-331750Y266250D01*
X-331750Y241750D01*
X-344250Y241750D01*
X-344250Y253625D02*
X-331750Y253625D01*
X-331750Y265500D02*
X-344250Y265500D01*
X-344250Y198250D02*
X-344250Y173750D01*
X-344250Y198250D02*
X-331750Y198250D01*
X-331750Y173750D01*
X-344250Y173750D01*
X-344250Y185625D02*
X-331750Y185625D01*
X-331750Y197500D02*
X-344250Y197500D01*
X-388250Y198250D02*
X-388250Y173750D01*
X-388250Y198250D02*
X-375750Y198250D01*
X-375750Y173750D01*
X-388250Y173750D01*
X-388250Y185625D02*
X-375750Y185625D01*
X-375750Y197500D02*
X-388250Y197500D01*
X-388250Y241750D02*
X-388250Y266250D01*
X-375750Y266250D01*
X-375750Y241750D01*
X-388250Y241750D01*
X-388250Y253625D02*
X-375750Y253625D01*
X-375750Y265500D02*
X-388250Y265500D01*
X-248250Y294250D02*
X-223750Y294250D01*
X-223750Y281750D01*
X-248250Y281750D01*
X-248250Y294250D01*
X-248250Y293625D02*
X-223750Y293625D01*
X-291750Y294250D02*
X-316250Y294250D01*
X-291750Y294250D02*
X-291750Y281750D01*
X-316250Y281750D01*
X-316250Y294250D01*
X-316250Y293625D02*
X-291750Y293625D01*
X-291750Y338250D02*
X-316250Y338250D01*
X-291750Y338250D02*
X-291750Y325750D01*
X-316250Y325750D01*
X-316250Y338250D01*
X-316250Y337625D02*
X-291750Y337625D01*
X-248250Y338250D02*
X-223750Y338250D01*
X-223750Y325750D01*
X-248250Y325750D01*
X-248250Y338250D01*
X-248250Y337625D02*
X-223750Y337625D01*
X-195750Y198250D02*
X-195750Y173750D01*
X-208250Y173750D01*
X-208250Y198250D01*
X-195750Y198250D01*
X-195750Y185625D02*
X-208250Y185625D01*
X-208250Y197500D02*
X-195750Y197500D01*
X-195750Y241750D02*
X-195750Y266250D01*
X-195750Y241750D02*
X-208250Y241750D01*
X-208250Y266250D01*
X-195750Y266250D01*
X-195750Y253625D02*
X-208250Y253625D01*
X-208250Y265500D02*
X-195750Y265500D01*
X-151750Y266250D02*
X-151750Y241750D01*
X-164250Y241750D01*
X-164250Y266250D01*
X-151750Y266250D01*
X-151750Y253625D02*
X-164250Y253625D01*
X-164250Y265500D02*
X-151750Y265500D01*
X-151750Y198250D02*
X-151750Y173750D01*
X-164250Y173750D01*
X-164250Y198250D01*
X-151750Y198250D01*
X-151750Y185625D02*
X-164250Y185625D01*
X-164250Y197500D02*
X-151750Y197500D01*
X-291750Y145750D02*
X-316250Y145750D01*
X-316250Y158250D01*
X-291750Y158250D01*
X-291750Y145750D01*
X-291750Y157625D02*
X-316250Y157625D01*
X-248250Y145750D02*
X-223750Y145750D01*
X-248250Y145750D02*
X-248250Y158250D01*
X-223750Y158250D01*
X-223750Y145750D01*
X-223750Y157625D02*
X-248250Y157625D01*
X-248250Y101750D02*
X-223750Y101750D01*
X-248250Y101750D02*
X-248250Y114250D01*
X-223750Y114250D01*
X-223750Y101750D01*
X-223750Y113625D02*
X-248250Y113625D01*
X-291750Y101750D02*
X-316250Y101750D01*
X-316250Y114250D01*
X-291750Y114250D01*
X-291750Y101750D01*
X-291750Y113625D02*
X-316250Y113625D01*
X229853Y174537D02*
X243623Y194799D01*
X253961Y187773D01*
X240191Y167511D01*
X229853Y174537D01*
X233148Y179386D02*
X248261Y179386D01*
X248829Y191261D02*
X241219Y191261D01*
X205401Y138557D02*
X191631Y118295D01*
X205401Y138557D02*
X215739Y131531D01*
X201969Y111269D01*
X191631Y118295D01*
X194926Y123144D02*
X210039Y123144D01*
X210607Y135019D02*
X202997Y135019D01*
X169009Y163289D02*
X155239Y143027D01*
X169009Y163289D02*
X179347Y156263D01*
X165577Y136001D01*
X155239Y143027D01*
X158534Y147876D02*
X173647Y147876D01*
X174215Y159751D02*
X166605Y159751D01*
X193461Y199269D02*
X207231Y219531D01*
X217569Y212505D01*
X203799Y192243D01*
X193461Y199269D01*
X196756Y204118D02*
X211869Y204118D01*
X212437Y215993D02*
X204827Y215993D01*
X351062Y280824D02*
X373063Y291602D01*
X378562Y280378D01*
X356561Y269600D01*
X351062Y280824D01*
X352391Y281475D02*
X378025Y281475D01*
X311997Y261686D02*
X289996Y250908D01*
X311997Y261686D02*
X317496Y250462D01*
X295495Y239684D01*
X289996Y250908D01*
X291325Y251559D02*
X316959Y251559D01*
X292639Y301200D02*
X270638Y290422D01*
X292639Y301200D02*
X298138Y289976D01*
X276137Y279198D01*
X270638Y290422D01*
X271967Y291073D02*
X297601Y291073D01*
X331704Y320338D02*
X353705Y331116D01*
X359204Y319892D01*
X337203Y309114D01*
X331704Y320338D01*
X333033Y320989D02*
X358667Y320989D01*
D12*
X-203448Y491486D02*
X-211576Y474822D01*
X-222991Y480389D02*
X-214863Y497053D01*
X-226278Y502620D02*
X-234406Y485956D01*
X-245820Y491523D02*
X-237692Y508187D01*
X-268424Y445178D02*
X-276552Y428514D01*
X-265137Y422947D02*
X-257009Y439611D01*
X-245594Y434044D02*
X-253722Y417380D01*
X-242308Y411813D02*
X-234180Y428477D01*
D13*
X276173Y387166D02*
X289642Y393765D01*
X276173Y387166D02*
X269574Y400635D01*
X283043Y407234D01*
X289642Y393765D01*
X285893Y401416D02*
X271168Y401416D01*
X214582Y512890D02*
X228051Y519489D01*
X214582Y512890D02*
X207983Y526359D01*
X221452Y532958D01*
X228051Y519489D01*
X224302Y527140D02*
X209577Y527140D01*
D14*
X-203200Y615000D02*
X-203200Y655000D01*
X-177800Y655000D02*
X-177800Y615000D01*
X177800Y615000D02*
X177800Y655000D01*
X203200Y655000D02*
X203200Y615000D01*
X228600Y615000D02*
X228600Y655000D01*
X392572Y2583D02*
X399742Y-4389D01*
X378828Y-25895D01*
X371658Y-18923D01*
X392572Y2583D01*
X388066Y-16395D02*
X374116Y-16395D01*
X383355Y-6895D02*
X397305Y-6895D01*
X427739Y117636D02*
X420569Y124608D01*
X427739Y117636D02*
X406825Y96130D01*
X399655Y103102D01*
X420569Y124608D01*
X416063Y105630D02*
X402113Y105630D01*
X411352Y115130D02*
X425302Y115130D01*
D15*
X453881Y93958D02*
X459258Y88729D01*
X436601Y65430D01*
X431224Y70659D01*
X453881Y93958D01*
X443530Y72555D02*
X433068Y72555D01*
X439996Y79680D02*
X450458Y79680D01*
X446925Y86805D02*
X457387Y86805D01*
X453910Y93930D02*
X453854Y93930D01*
X355268Y40603D02*
X349891Y45832D01*
X355268Y40603D02*
X332611Y17304D01*
X327234Y22533D01*
X349891Y45832D01*
X339540Y24429D02*
X329078Y24429D01*
X336006Y31554D02*
X346468Y31554D01*
X342935Y38679D02*
X353397Y38679D01*
X349920Y45804D02*
X349864Y45804D01*
X370682Y25614D02*
X376059Y20385D01*
X353402Y-2914D01*
X348025Y2315D01*
X370682Y25614D01*
X360331Y4211D02*
X349869Y4211D01*
X356797Y11336D02*
X367259Y11336D01*
X363726Y18461D02*
X374188Y18461D01*
X370711Y25586D02*
X370655Y25586D01*
D16*
X142922Y271196D02*
X156864Y285533D01*
X166184Y276470D01*
X152242Y262133D01*
X142922Y271196D01*
X146118Y274483D02*
X164252Y274483D01*
X193816Y323530D02*
X207758Y337867D01*
X217078Y328804D01*
X203136Y314467D01*
X193816Y323530D01*
X197012Y326817D02*
X215146Y326817D01*
D17*
G36*
X-183780Y563161D02*
X-176591Y559654D01*
X-180536Y551565D01*
X-187725Y555072D01*
X-183780Y563161D01*
G37*
G36*
X-200857Y571490D02*
X-193668Y567983D01*
X-197613Y559894D01*
X-204802Y563401D01*
X-200857Y571490D01*
G37*
G36*
X-201524Y548451D02*
X-194335Y544944D01*
X-198280Y536855D01*
X-205469Y540362D01*
X-201524Y548451D01*
G37*
D18*
G36*
X-285682Y477886D02*
X-290504Y468001D01*
X-303086Y474138D01*
X-298264Y484023D01*
X-285682Y477886D01*
G37*
G36*
X-276914Y495862D02*
X-281736Y485977D01*
X-294318Y492114D01*
X-289496Y501999D01*
X-276914Y495862D01*
G37*
D19*
G36*
X-281286Y548515D02*
X-278217Y554806D01*
X-264736Y548231D01*
X-267805Y541940D01*
X-281286Y548515D01*
G37*
G36*
X-274710Y561997D02*
X-271641Y568288D01*
X-258160Y561713D01*
X-261229Y555422D01*
X-274710Y561997D01*
G37*
G36*
X-261559Y588961D02*
X-258490Y595252D01*
X-245009Y588677D01*
X-248078Y582386D01*
X-261559Y588961D01*
G37*
D20*
G36*
X-298977Y551023D02*
X-303361Y542036D01*
X-308753Y544667D01*
X-304369Y553654D01*
X-298977Y551023D01*
G37*
D21*
G36*
X-279203Y541380D02*
X-283587Y532393D01*
X-290777Y535900D01*
X-286393Y544887D01*
X-279203Y541380D01*
G37*
D20*
G36*
X-266975Y616635D02*
X-271359Y607648D01*
X-276751Y610279D01*
X-272367Y619266D01*
X-266975Y616635D01*
G37*
D21*
G36*
X-247202Y606992D02*
X-251586Y598005D01*
X-258776Y601512D01*
X-254392Y610499D01*
X-247202Y606992D01*
G37*
D22*
X63500Y678180D03*
X38100Y678180D03*
X12700Y678180D03*
X-12700Y678180D03*
X-38100Y678180D03*
X-63500Y678180D03*
D23*
X-218440Y538480D03*
X38100Y535940D03*
X93980Y513080D03*
X96520Y642620D03*
X142240Y642620D03*
D24*
X-63500Y678180D02*
X-76200Y650680D01*
D23*
X-91440Y386080D03*
X-177800Y482600D03*
X-152400Y563880D03*
X-58420Y566420D03*
X27940Y309880D03*
X27940Y259080D03*
X-33020Y436880D03*
X-63500Y436880D03*
X381000Y177800D03*
X203200Y558800D03*
X-355600Y76200D03*
X-101600Y137160D03*
X-279400Y365760D03*
X-279400Y467360D03*
D24*
X-109841Y591640D02*
X-50800Y650680D01*
X-109840Y591640D02*
X-110273Y591217D01*
X-110715Y590805D01*
X-111168Y590404D01*
X-111629Y590014D01*
X-112100Y589634D01*
X-112579Y589266D01*
X-113068Y588910D01*
X-113564Y588565D01*
X-114069Y588232D01*
X-114581Y587911D01*
X-115101Y587603D01*
X-115628Y587307D01*
X-116162Y587024D01*
X-116703Y586753D01*
X-117249Y586495D01*
X-117802Y586251D01*
X-118361Y586019D01*
X-118925Y585801D01*
X-119493Y585597D01*
X-120067Y585406D01*
X-120645Y585229D01*
X-121227Y585065D01*
X-121813Y584916D01*
X-122402Y584780D01*
X-122994Y584659D01*
X-123589Y584552D01*
X-124186Y584459D01*
X-124786Y584380D01*
X-125387Y584315D01*
X-125989Y584265D01*
X-126592Y584229D01*
X-127197Y584207D01*
X-127801Y584200D01*
X-170206Y584200D01*
X-170810Y584193D01*
X-171415Y584171D01*
X-172018Y584135D01*
X-172620Y584085D01*
X-173221Y584020D01*
X-173821Y583941D01*
X-174418Y583848D01*
X-175013Y583741D01*
X-175605Y583620D01*
X-176194Y583484D01*
X-176780Y583335D01*
X-177362Y583171D01*
X-177940Y582994D01*
X-178514Y582803D01*
X-179082Y582599D01*
X-179646Y582381D01*
X-180205Y582149D01*
X-180758Y581905D01*
X-181304Y581647D01*
X-181845Y581376D01*
X-182379Y581093D01*
X-182906Y580797D01*
X-183426Y580489D01*
X-183938Y580168D01*
X-184443Y579835D01*
X-184939Y579490D01*
X-185428Y579134D01*
X-185907Y578766D01*
X-186378Y578386D01*
X-186839Y577996D01*
X-187292Y577595D01*
X-187734Y577183D01*
X-188167Y576761D01*
X-199235Y565692D01*
X228600Y596900D02*
X228600Y635000D01*
D23*
X228600Y596900D03*
D12*
X-238244Y420145D02*
X-246380Y403860D01*
D23*
X-246380Y403860D03*
D12*
X-238244Y420145D02*
X-229356Y437912D01*
D24*
X-238622Y447178D01*
X-248782Y457338D01*
X-255956Y464512D01*
X-256391Y464958D01*
X-256814Y465413D01*
X-257227Y465879D01*
X-257627Y466355D01*
X-258016Y466841D01*
X-258393Y467336D01*
X-258757Y467840D01*
X-259110Y468353D01*
X-259449Y468874D01*
X-259776Y469404D01*
X-260089Y469941D01*
X-260389Y470486D01*
X-260676Y471038D01*
X-260950Y471597D01*
X-261209Y472162D01*
X-261455Y472734D01*
X-261686Y473311D01*
X-261903Y473894D01*
X-262106Y474482D01*
X-262295Y475075D01*
X-262469Y475672D01*
X-262628Y476274D01*
X-262772Y476879D01*
X-262902Y477487D01*
X-263016Y478099D01*
X-263116Y478713D01*
X-263201Y479329D01*
X-263270Y479947D01*
X-263324Y480567D01*
X-263363Y481188D01*
X-263387Y481810D01*
X-263396Y482432D01*
X-263389Y483054D01*
X-263368Y483675D01*
X-263330Y484296D01*
X-263278Y484916D01*
X-263211Y485535D01*
X-263128Y486151D01*
X-263031Y486766D01*
X-262918Y487377D01*
X-262790Y487986D01*
X-262648Y488592D01*
X-262491Y489194D01*
X-262319Y489792D01*
X-262132Y490385D01*
X-261931Y490974D01*
X-261716Y491558D01*
X-261486Y492136D01*
X-261243Y492708D01*
X-260985Y493274D01*
X-260714Y493834D01*
X-260428Y494387D01*
X-230683Y550394D01*
X-230682Y550394D02*
X-230389Y550930D01*
X-230083Y551459D01*
X-229765Y551981D01*
X-229434Y552494D01*
X-229091Y553000D01*
X-228735Y553497D01*
X-228368Y553985D01*
X-227989Y554465D01*
X-227599Y554935D01*
X-227198Y555396D01*
X-226785Y555847D01*
X-226362Y556287D01*
X-225929Y556718D01*
X-225485Y557138D01*
X-225031Y557547D01*
X-224568Y557945D01*
X-224095Y558332D01*
X-223613Y558708D01*
X-223122Y559071D01*
X-222622Y559423D01*
X-222114Y559763D01*
X-221598Y560090D01*
X-221074Y560405D01*
X-220543Y560707D01*
X-220005Y560996D01*
X-219460Y561272D01*
X-218908Y561536D01*
X-218351Y561785D01*
X-217787Y562021D01*
X-217218Y562244D01*
X-216644Y562453D01*
X-216065Y562648D01*
X-215481Y562829D01*
X-214893Y562996D01*
X-214302Y563149D01*
X-213707Y563287D01*
X-213108Y563411D01*
X-212507Y563521D01*
X-211904Y563616D01*
X-211298Y563696D01*
X-210690Y563762D01*
X-210082Y563814D01*
X-209472Y563851D01*
X-208861Y563873D01*
X-208250Y563880D01*
X-203610Y563880D01*
X-203458Y563882D01*
X-203306Y563887D01*
X-203155Y563897D01*
X-203003Y563910D01*
X-202853Y563927D01*
X-202702Y563947D01*
X-202552Y563971D01*
X-202403Y563999D01*
X-202254Y564030D01*
X-202106Y564065D01*
X-201960Y564104D01*
X-201814Y564146D01*
X-201669Y564192D01*
X-201525Y564242D01*
X-201383Y564295D01*
X-201242Y564351D01*
X-201102Y564411D01*
X-200964Y564474D01*
X-200828Y564541D01*
X-200693Y564611D01*
X-200560Y564684D01*
X-200429Y564760D01*
X-200299Y564840D01*
X-200172Y564923D01*
X-200047Y565009D01*
X-199924Y565098D01*
X-199803Y565190D01*
X-199684Y565285D01*
X-199568Y565382D01*
X-199454Y565483D01*
X-199343Y565586D01*
X-199234Y565692D01*
X-50800Y650680D02*
X-38100Y678180D01*
D12*
X-238622Y447178D02*
X-249658Y425712D01*
X-248782Y457338D02*
X-230342Y494288D01*
D23*
X-174538Y551180D03*
D12*
X-207512Y483154D01*
X-174538Y551180D02*
X-174540Y551334D01*
X-174546Y551488D01*
X-174555Y551642D01*
X-174569Y551796D01*
X-174586Y551949D01*
X-174607Y552102D01*
X-174632Y552254D01*
X-174661Y552405D01*
X-174693Y552556D01*
X-174729Y552706D01*
X-174769Y552855D01*
X-174813Y553002D01*
X-174860Y553149D01*
X-174911Y553295D01*
X-174965Y553439D01*
X-175024Y553582D01*
X-175085Y553723D01*
X-175150Y553863D01*
X-175219Y554001D01*
X-175291Y554137D01*
X-175366Y554272D01*
X-175445Y554404D01*
X-175527Y554535D01*
X-175612Y554663D01*
X-175701Y554789D01*
X-175792Y554913D01*
X-175887Y555035D01*
X-175985Y555154D01*
X-176085Y555271D01*
X-176189Y555386D01*
X-176295Y555497D01*
X-176404Y555606D01*
X-176515Y555712D01*
X-176630Y555816D01*
X-176747Y555916D01*
X-176866Y556014D01*
X-176988Y556109D01*
X-177112Y556200D01*
X-177238Y556289D01*
X-177366Y556374D01*
X-177497Y556456D01*
X-177630Y556535D01*
X-177764Y556610D01*
X-177900Y556682D01*
X-178038Y556751D01*
X-178178Y556816D01*
X-178319Y556877D01*
X-178462Y556936D01*
X-178606Y556990D01*
X-178752Y557041D01*
X-178899Y557088D01*
X-179046Y557132D01*
X-179195Y557172D01*
X-179345Y557208D01*
X-179496Y557240D01*
X-179647Y557269D01*
X-179799Y557294D01*
X-179952Y557315D01*
X-180105Y557332D01*
X-180259Y557346D01*
X-180413Y557355D01*
X-180567Y557361D01*
X-180721Y557363D01*
X-182158Y557363D01*
D24*
X-276860Y508000D02*
X-285616Y493988D01*
D23*
X-276860Y508000D03*
X-210820Y520700D03*
X2540Y520700D03*
D24*
X68761Y586921D01*
X68760Y586920D02*
X69183Y587353D01*
X69595Y587795D01*
X69996Y588248D01*
X70386Y588709D01*
X70766Y589180D01*
X71134Y589659D01*
X71490Y590148D01*
X71835Y590644D01*
X72168Y591149D01*
X72489Y591661D01*
X72797Y592181D01*
X73093Y592708D01*
X73376Y593242D01*
X73647Y593783D01*
X73905Y594329D01*
X74149Y594882D01*
X74381Y595441D01*
X74599Y596005D01*
X74803Y596573D01*
X74994Y597147D01*
X75171Y597725D01*
X75335Y598307D01*
X75484Y598893D01*
X75620Y599482D01*
X75741Y600074D01*
X75848Y600669D01*
X75941Y601266D01*
X76020Y601866D01*
X76085Y602467D01*
X76135Y603069D01*
X76171Y603672D01*
X76193Y604277D01*
X76200Y604881D01*
X76200Y650680D01*
D12*
X-199902Y542653D02*
X-199902Y541766D01*
X-210820Y520700D01*
D23*
X-254000Y538480D03*
D24*
X-273011Y548373D01*
D23*
X152400Y248920D03*
D24*
X152400Y271679D01*
X154553Y273833D01*
D23*
X83820Y403860D03*
D24*
X104321Y424361D01*
X104320Y424360D02*
X104743Y424793D01*
X105155Y425235D01*
X105556Y425688D01*
X105946Y426149D01*
X106326Y426620D01*
X106694Y427099D01*
X107050Y427588D01*
X107395Y428084D01*
X107728Y428589D01*
X108049Y429101D01*
X108357Y429621D01*
X108653Y430148D01*
X108936Y430682D01*
X109207Y431223D01*
X109465Y431769D01*
X109709Y432322D01*
X109941Y432881D01*
X110159Y433445D01*
X110363Y434013D01*
X110554Y434587D01*
X110731Y435165D01*
X110895Y435747D01*
X111044Y436333D01*
X111180Y436922D01*
X111301Y437514D01*
X111408Y438109D01*
X111501Y438706D01*
X111580Y439306D01*
X111645Y439907D01*
X111695Y440509D01*
X111731Y441112D01*
X111753Y441717D01*
X111760Y442321D01*
X111760Y639719D01*
X111753Y640323D01*
X111731Y640928D01*
X111695Y641531D01*
X111645Y642133D01*
X111580Y642734D01*
X111501Y643334D01*
X111408Y643931D01*
X111301Y644526D01*
X111180Y645118D01*
X111044Y645707D01*
X110895Y646293D01*
X110731Y646875D01*
X110554Y647453D01*
X110363Y648027D01*
X110159Y648595D01*
X109941Y649159D01*
X109709Y649718D01*
X109465Y650271D01*
X109207Y650817D01*
X108936Y651358D01*
X108653Y651892D01*
X108357Y652419D01*
X108049Y652939D01*
X107728Y653451D01*
X107395Y653956D01*
X107050Y654452D01*
X106694Y654941D01*
X106326Y655420D01*
X105946Y655891D01*
X105556Y656352D01*
X105155Y656805D01*
X104743Y657247D01*
X104321Y657680D01*
X96340Y665661D01*
X96340Y665660D02*
X95907Y666083D01*
X95465Y666495D01*
X95012Y666896D01*
X94551Y667286D01*
X94080Y667666D01*
X93601Y668034D01*
X93112Y668390D01*
X92616Y668735D01*
X92111Y669068D01*
X91599Y669389D01*
X91079Y669697D01*
X90552Y669993D01*
X90018Y670276D01*
X89477Y670547D01*
X88931Y670805D01*
X88378Y671049D01*
X87819Y671281D01*
X87255Y671499D01*
X86687Y671703D01*
X86113Y671894D01*
X85535Y672071D01*
X84953Y672235D01*
X84367Y672384D01*
X83778Y672520D01*
X83186Y672641D01*
X82591Y672748D01*
X81994Y672841D01*
X81394Y672920D01*
X80793Y672985D01*
X80191Y673035D01*
X79588Y673071D01*
X78983Y673093D01*
X78379Y673100D01*
X68580Y673100D01*
X63500Y678180D01*
X-76200Y184600D02*
X-145361Y115440D01*
X-145360Y115440D02*
X-145793Y115017D01*
X-146235Y114605D01*
X-146688Y114204D01*
X-147149Y113814D01*
X-147620Y113434D01*
X-148099Y113066D01*
X-148588Y112710D01*
X-149084Y112365D01*
X-149589Y112032D01*
X-150101Y111711D01*
X-150621Y111403D01*
X-151148Y111107D01*
X-151682Y110824D01*
X-152223Y110553D01*
X-152769Y110295D01*
X-153322Y110051D01*
X-153881Y109819D01*
X-154445Y109601D01*
X-155013Y109397D01*
X-155587Y109206D01*
X-156165Y109029D01*
X-156747Y108865D01*
X-157333Y108716D01*
X-157922Y108580D01*
X-158514Y108459D01*
X-159109Y108352D01*
X-159706Y108259D01*
X-160306Y108180D01*
X-160907Y108115D01*
X-161509Y108065D01*
X-162112Y108029D01*
X-162717Y108007D01*
X-163321Y108000D01*
X-236000Y108000D01*
X-304000Y108000D01*
X-149117Y137084D02*
X-76200Y210000D01*
X-149116Y137084D02*
X-149549Y136661D01*
X-149991Y136249D01*
X-150444Y135848D01*
X-150905Y135458D01*
X-151376Y135078D01*
X-151855Y134710D01*
X-152344Y134354D01*
X-152840Y134009D01*
X-153345Y133676D01*
X-153857Y133355D01*
X-154377Y133047D01*
X-154904Y132751D01*
X-155438Y132468D01*
X-155979Y132197D01*
X-156525Y131939D01*
X-157078Y131695D01*
X-157637Y131463D01*
X-158201Y131245D01*
X-158769Y131041D01*
X-159343Y130850D01*
X-159921Y130673D01*
X-160503Y130509D01*
X-161089Y130360D01*
X-161678Y130224D01*
X-162270Y130103D01*
X-162865Y129996D01*
X-163462Y129903D01*
X-164062Y129824D01*
X-164663Y129759D01*
X-165265Y129709D01*
X-165868Y129673D01*
X-166473Y129651D01*
X-167077Y129644D01*
X-347723Y129644D01*
X-348327Y129651D01*
X-348932Y129673D01*
X-349535Y129709D01*
X-350137Y129759D01*
X-350738Y129824D01*
X-351338Y129903D01*
X-351935Y129996D01*
X-352530Y130103D01*
X-353122Y130224D01*
X-353711Y130360D01*
X-354297Y130509D01*
X-354879Y130673D01*
X-355457Y130850D01*
X-356031Y131041D01*
X-356599Y131245D01*
X-357163Y131463D01*
X-357722Y131695D01*
X-358275Y131939D01*
X-358821Y132197D01*
X-359362Y132468D01*
X-359896Y132751D01*
X-360423Y133047D01*
X-360943Y133355D01*
X-361455Y133676D01*
X-361960Y134009D01*
X-362456Y134354D01*
X-362945Y134710D01*
X-363424Y135078D01*
X-363895Y135458D01*
X-364356Y135848D01*
X-364809Y136249D01*
X-365251Y136661D01*
X-365684Y137083D01*
X-365684Y137084D02*
X-374561Y145961D01*
X-374560Y145960D02*
X-374983Y146393D01*
X-375395Y146835D01*
X-375796Y147288D01*
X-376186Y147749D01*
X-376566Y148220D01*
X-376934Y148699D01*
X-377290Y149188D01*
X-377635Y149684D01*
X-377968Y150189D01*
X-378289Y150701D01*
X-378597Y151221D01*
X-378893Y151748D01*
X-379176Y152282D01*
X-379447Y152823D01*
X-379705Y153369D01*
X-379949Y153922D01*
X-380181Y154481D01*
X-380399Y155045D01*
X-380603Y155613D01*
X-380794Y156187D01*
X-380971Y156765D01*
X-381135Y157347D01*
X-381284Y157933D01*
X-381420Y158522D01*
X-381541Y159114D01*
X-381648Y159709D01*
X-381741Y160306D01*
X-381820Y160906D01*
X-381885Y161507D01*
X-381935Y162109D01*
X-381971Y162712D01*
X-381993Y163317D01*
X-382000Y163921D01*
X-382000Y186000D01*
X-382000Y254000D01*
X-158000Y254000D02*
X-158000Y186000D01*
X-118161Y193440D02*
X-76200Y235400D01*
X-118160Y193440D02*
X-118593Y193017D01*
X-119035Y192605D01*
X-119488Y192204D01*
X-119949Y191814D01*
X-120420Y191434D01*
X-120899Y191066D01*
X-121388Y190710D01*
X-121884Y190365D01*
X-122389Y190032D01*
X-122901Y189711D01*
X-123421Y189403D01*
X-123948Y189107D01*
X-124482Y188824D01*
X-125023Y188553D01*
X-125569Y188295D01*
X-126122Y188051D01*
X-126681Y187819D01*
X-127245Y187601D01*
X-127813Y187397D01*
X-128387Y187206D01*
X-128965Y187029D01*
X-129547Y186865D01*
X-130133Y186716D01*
X-130722Y186580D01*
X-131314Y186459D01*
X-131909Y186352D01*
X-132506Y186259D01*
X-133106Y186180D01*
X-133707Y186115D01*
X-134309Y186065D01*
X-134912Y186029D01*
X-135517Y186007D01*
X-136121Y186000D01*
X-158000Y186000D01*
X-236000Y332000D02*
X-304000Y332000D01*
X-139961Y324561D02*
X-76200Y260800D01*
X-139960Y324560D02*
X-140393Y324983D01*
X-140835Y325395D01*
X-141288Y325796D01*
X-141749Y326186D01*
X-142220Y326566D01*
X-142699Y326934D01*
X-143188Y327290D01*
X-143684Y327635D01*
X-144189Y327968D01*
X-144701Y328289D01*
X-145221Y328597D01*
X-145748Y328893D01*
X-146282Y329176D01*
X-146823Y329447D01*
X-147369Y329705D01*
X-147922Y329949D01*
X-148481Y330181D01*
X-149045Y330399D01*
X-149613Y330603D01*
X-150187Y330794D01*
X-150765Y330971D01*
X-151347Y331135D01*
X-151933Y331284D01*
X-152522Y331420D01*
X-153114Y331541D01*
X-153709Y331648D01*
X-154306Y331741D01*
X-154906Y331820D01*
X-155507Y331885D01*
X-156109Y331935D01*
X-156712Y331971D01*
X-157317Y331993D01*
X-157921Y332000D01*
X-236000Y332000D01*
X-125280Y335280D02*
X-76200Y286200D01*
X-125280Y335280D02*
X-166101Y376101D01*
X-166100Y376100D02*
X-166533Y376523D01*
X-166975Y376935D01*
X-167428Y377336D01*
X-167889Y377726D01*
X-168360Y378106D01*
X-168839Y378474D01*
X-169328Y378830D01*
X-169824Y379175D01*
X-170329Y379508D01*
X-170841Y379829D01*
X-171361Y380137D01*
X-171888Y380433D01*
X-172422Y380716D01*
X-172963Y380987D01*
X-173509Y381245D01*
X-174062Y381489D01*
X-174621Y381721D01*
X-175185Y381939D01*
X-175753Y382143D01*
X-176327Y382334D01*
X-176905Y382511D01*
X-177487Y382675D01*
X-178073Y382824D01*
X-178662Y382960D01*
X-179254Y383081D01*
X-179849Y383188D01*
X-180446Y383281D01*
X-181046Y383360D01*
X-181647Y383425D01*
X-182249Y383475D01*
X-182852Y383511D01*
X-183457Y383533D01*
X-184061Y383540D01*
X-243226Y383540D01*
X-243833Y383547D01*
X-244440Y383569D01*
X-245046Y383605D01*
X-245651Y383656D01*
X-246255Y383721D01*
X-246857Y383801D01*
X-247457Y383895D01*
X-248054Y384003D01*
X-248649Y384126D01*
X-249241Y384262D01*
X-249829Y384413D01*
X-250413Y384578D01*
X-250993Y384757D01*
X-251569Y384949D01*
X-252140Y385156D01*
X-252706Y385376D01*
X-253267Y385609D01*
X-253822Y385856D01*
X-254371Y386116D01*
X-254913Y386388D01*
X-255449Y386674D01*
X-255978Y386973D01*
X-256499Y387284D01*
D12*
X-266629Y393493D01*
X-266630Y393493D02*
X-266893Y393659D01*
X-267152Y393831D01*
X-267407Y394010D01*
X-267658Y394195D01*
X-267904Y394386D01*
X-268145Y394583D01*
X-268381Y394785D01*
X-268612Y394994D01*
X-268839Y395208D01*
X-269059Y395428D01*
X-269275Y395652D01*
X-269484Y395883D01*
X-269688Y396118D01*
X-269886Y396358D01*
X-270079Y396603D01*
X-270265Y396852D01*
X-270445Y397107D01*
X-270619Y397365D01*
X-270786Y397627D01*
X-270947Y397894D01*
X-271101Y398165D01*
X-271249Y398439D01*
X-271389Y398716D01*
X-271523Y398997D01*
X-271650Y399282D01*
X-271770Y399569D01*
X-271883Y399859D01*
X-271989Y400152D01*
X-272088Y400447D01*
X-272179Y400745D01*
X-272263Y401045D01*
X-272340Y401346D01*
X-272409Y401650D01*
X-272471Y401955D01*
X-272525Y402262D01*
X-272572Y402570D01*
X-272611Y402879D01*
X-272642Y403188D01*
X-272666Y403499D01*
X-272683Y403810D01*
X-272691Y404121D01*
X-272693Y404432D01*
X-272686Y404744D01*
X-272672Y405055D01*
X-272650Y405365D01*
X-272621Y405675D01*
X-272584Y405984D01*
X-272539Y406292D01*
X-272487Y406599D01*
X-272427Y406905D01*
X-272360Y407209D01*
X-272286Y407511D01*
X-272204Y407812D01*
X-272115Y408110D01*
X-272018Y408406D01*
X-271914Y408700D01*
X-271803Y408990D01*
X-271685Y409279D01*
X-271560Y409564D01*
X-271428Y409846D01*
X-261073Y431279D01*
D23*
X-157480Y416560D03*
X-125280Y335280D03*
D24*
X-150041Y526040D02*
X-25400Y650680D01*
X-150040Y526040D02*
X-150463Y525607D01*
X-150875Y525165D01*
X-151276Y524712D01*
X-151666Y524251D01*
X-152046Y523780D01*
X-152414Y523301D01*
X-152770Y522812D01*
X-153115Y522316D01*
X-153448Y521811D01*
X-153769Y521299D01*
X-154077Y520779D01*
X-154373Y520252D01*
X-154656Y519718D01*
X-154927Y519177D01*
X-155185Y518631D01*
X-155429Y518078D01*
X-155661Y517519D01*
X-155879Y516955D01*
X-156083Y516387D01*
X-156274Y515813D01*
X-156451Y515235D01*
X-156615Y514653D01*
X-156764Y514067D01*
X-156900Y513478D01*
X-157021Y512886D01*
X-157128Y512291D01*
X-157221Y511694D01*
X-157300Y511094D01*
X-157365Y510493D01*
X-157415Y509891D01*
X-157451Y509288D01*
X-157473Y508683D01*
X-157480Y508079D01*
X-157480Y416560D01*
X-25400Y650680D02*
X-12700Y678180D01*
D12*
X-218927Y488721D02*
X-230603Y466003D01*
D24*
X-96520Y500524D02*
X-12663Y584381D01*
X-12664Y584380D02*
X-12231Y584803D01*
X-11789Y585215D01*
X-11336Y585616D01*
X-10875Y586006D01*
X-10404Y586386D01*
X-9925Y586754D01*
X-9436Y587110D01*
X-8940Y587455D01*
X-8435Y587788D01*
X-7923Y588109D01*
X-7403Y588417D01*
X-6876Y588713D01*
X-6342Y588996D01*
X-5801Y589267D01*
X-5255Y589525D01*
X-4702Y589769D01*
X-4143Y590001D01*
X-3579Y590219D01*
X-3011Y590423D01*
X-2437Y590614D01*
X-1859Y590791D01*
X-1277Y590955D01*
X-691Y591104D01*
X-102Y591240D01*
X490Y591361D01*
X1085Y591468D01*
X1682Y591561D01*
X2282Y591640D01*
X2883Y591705D01*
X3485Y591755D01*
X4088Y591791D01*
X4693Y591813D01*
X5297Y591820D01*
X20756Y591820D01*
D12*
X21175Y591825D01*
X21594Y591840D01*
X22012Y591866D01*
X22430Y591901D01*
X22847Y591946D01*
X23262Y592002D01*
X23676Y592068D01*
X24088Y592143D01*
X24499Y592229D01*
X24907Y592324D01*
X25312Y592429D01*
X25715Y592544D01*
X26116Y592669D01*
X26513Y592803D01*
X26906Y592947D01*
X27296Y593100D01*
X27683Y593263D01*
X28065Y593435D01*
X28443Y593616D01*
X28816Y593807D01*
X29185Y594006D01*
X29549Y594214D01*
X29907Y594431D01*
X30261Y594656D01*
X30609Y594890D01*
X30951Y595132D01*
X31287Y595383D01*
X31617Y595641D01*
X31940Y595908D01*
X32257Y596182D01*
X32568Y596464D01*
X32871Y596753D01*
X33167Y597049D01*
X33456Y597352D01*
X33738Y597663D01*
X34012Y597980D01*
X34279Y598303D01*
X34537Y598633D01*
X34788Y598969D01*
X35030Y599311D01*
X35264Y599659D01*
X35489Y600013D01*
X35706Y600371D01*
X35914Y600735D01*
X36113Y601104D01*
X36304Y601477D01*
X36485Y601855D01*
X36657Y602237D01*
X36820Y602624D01*
X36973Y603014D01*
X37117Y603407D01*
X37251Y603804D01*
X37376Y604205D01*
X37491Y604608D01*
X37596Y605013D01*
X37691Y605421D01*
X37777Y605832D01*
X37852Y606244D01*
X37918Y606658D01*
X37974Y607073D01*
X38019Y607490D01*
X38054Y607908D01*
X38080Y608326D01*
X38095Y608745D01*
X38100Y609164D01*
X38100Y637540D01*
D23*
X38100Y637540D03*
D25*
X38100Y678180D01*
D23*
X-230603Y466003D03*
X-96520Y500524D03*
D24*
X-230603Y466003D02*
X-76200Y311600D01*
X-141660Y402460D02*
X-141720Y402522D01*
X-141777Y402587D01*
X-141831Y402655D01*
X-141882Y402724D01*
X-141930Y402796D01*
X-141975Y402870D01*
X-142016Y402946D01*
X-142054Y403023D01*
X-142089Y403102D01*
X-142121Y403183D01*
X-142148Y403265D01*
X-142173Y403348D01*
X-142193Y403431D01*
X-142210Y403516D01*
X-142223Y403602D01*
X-142232Y403687D01*
X-142238Y403774D01*
X-142240Y403860D01*
X-141660Y402460D02*
X-76200Y337000D01*
D12*
X-272488Y436846D02*
X-281940Y419100D01*
D23*
X-281940Y419100D03*
X-142240Y403860D03*
D24*
X-142240Y497919D01*
X-142233Y498523D01*
X-142211Y499128D01*
X-142175Y499731D01*
X-142125Y500333D01*
X-142060Y500934D01*
X-141981Y501534D01*
X-141888Y502131D01*
X-141781Y502726D01*
X-141660Y503318D01*
X-141524Y503907D01*
X-141375Y504493D01*
X-141211Y505075D01*
X-141034Y505653D01*
X-140843Y506227D01*
X-140639Y506795D01*
X-140421Y507359D01*
X-140189Y507918D01*
X-139945Y508471D01*
X-139687Y509017D01*
X-139416Y509558D01*
X-139133Y510092D01*
X-138837Y510619D01*
X-138529Y511139D01*
X-138208Y511651D01*
X-137875Y512156D01*
X-137530Y512652D01*
X-137174Y513141D01*
X-136806Y513620D01*
X-136426Y514091D01*
X-136036Y514552D01*
X-135635Y515005D01*
X-135223Y515447D01*
X-134801Y515880D01*
X0Y650680D01*
X12700Y678180D01*
D23*
X10160Y576580D03*
X-203200Y599440D03*
D24*
X-203200Y635000D01*
X-68761Y497660D02*
X10160Y576580D01*
X-68760Y497660D02*
X-69183Y497227D01*
X-69595Y496785D01*
X-69996Y496332D01*
X-70386Y495871D01*
X-70766Y495400D01*
X-71134Y494921D01*
X-71490Y494432D01*
X-71835Y493936D01*
X-72168Y493431D01*
X-72489Y492919D01*
X-72797Y492399D01*
X-73093Y491872D01*
X-73376Y491338D01*
X-73647Y490797D01*
X-73905Y490251D01*
X-74149Y489698D01*
X-74381Y489139D01*
X-74599Y488575D01*
X-74803Y488007D01*
X-74994Y487433D01*
X-75171Y486855D01*
X-75335Y486273D01*
X-75484Y485687D01*
X-75620Y485098D01*
X-75741Y484506D01*
X-75848Y483911D01*
X-75941Y483314D01*
X-76020Y482714D01*
X-76085Y482113D01*
X-76135Y481511D01*
X-76171Y480908D01*
X-76193Y480303D01*
X-76200Y479699D01*
X-76200Y362400D01*
D23*
X9200Y457200D03*
D24*
X93980Y457200D01*
D23*
X93980Y457200D03*
D24*
X-5261Y316861D02*
X76200Y235400D01*
X-5260Y316860D02*
X-5683Y317293D01*
X-6095Y317735D01*
X-6496Y318188D01*
X-6886Y318649D01*
X-7266Y319120D01*
X-7634Y319599D01*
X-7990Y320088D01*
X-8335Y320584D01*
X-8668Y321089D01*
X-8989Y321601D01*
X-9297Y322121D01*
X-9593Y322648D01*
X-9876Y323182D01*
X-10147Y323723D01*
X-10405Y324269D01*
X-10649Y324822D01*
X-10881Y325381D01*
X-11099Y325945D01*
X-11303Y326513D01*
X-11494Y327087D01*
X-11671Y327665D01*
X-11835Y328247D01*
X-11984Y328833D01*
X-12120Y329422D01*
X-12241Y330014D01*
X-12348Y330609D01*
X-12441Y331206D01*
X-12520Y331806D01*
X-12585Y332407D01*
X-12635Y333009D01*
X-12671Y333612D01*
X-12693Y334217D01*
X-12700Y334821D01*
X-12700Y517799D01*
X-12693Y518403D01*
X-12671Y519008D01*
X-12635Y519611D01*
X-12585Y520213D01*
X-12520Y520814D01*
X-12441Y521414D01*
X-12348Y522011D01*
X-12241Y522606D01*
X-12120Y523198D01*
X-11984Y523787D01*
X-11835Y524373D01*
X-11671Y524955D01*
X-11494Y525533D01*
X-11303Y526107D01*
X-11099Y526675D01*
X-10881Y527239D01*
X-10649Y527798D01*
X-10405Y528351D01*
X-10147Y528897D01*
X-9876Y529438D01*
X-9593Y529972D01*
X-9297Y530499D01*
X-8989Y531019D01*
X-8668Y531531D01*
X-8335Y532036D01*
X-7990Y532532D01*
X-7634Y533021D01*
X-7266Y533500D01*
X-6886Y533971D01*
X-6496Y534432D01*
X-6095Y534885D01*
X-5683Y535327D01*
X-5261Y535760D01*
X-3810Y537210D01*
X43361Y584381D01*
X43360Y584380D02*
X43783Y584813D01*
X44195Y585255D01*
X44596Y585708D01*
X44986Y586169D01*
X45366Y586640D01*
X45734Y587119D01*
X46090Y587608D01*
X46435Y588104D01*
X46768Y588609D01*
X47089Y589121D01*
X47397Y589641D01*
X47693Y590168D01*
X47976Y590702D01*
X48247Y591243D01*
X48505Y591789D01*
X48749Y592342D01*
X48981Y592901D01*
X49199Y593465D01*
X49403Y594033D01*
X49594Y594607D01*
X49771Y595185D01*
X49935Y595767D01*
X50084Y596353D01*
X50220Y596942D01*
X50341Y597534D01*
X50448Y598129D01*
X50541Y598726D01*
X50620Y599326D01*
X50685Y599927D01*
X50735Y600529D01*
X50771Y601132D01*
X50793Y601737D01*
X50800Y602341D01*
X50800Y650680D01*
X76200Y260800D02*
X94161Y242840D01*
X94160Y242840D02*
X94583Y242407D01*
X94995Y241965D01*
X95396Y241512D01*
X95786Y241051D01*
X96166Y240580D01*
X96534Y240101D01*
X96890Y239612D01*
X97235Y239116D01*
X97568Y238611D01*
X97889Y238099D01*
X98197Y237579D01*
X98493Y237052D01*
X98776Y236518D01*
X99047Y235977D01*
X99305Y235431D01*
X99549Y234878D01*
X99781Y234319D01*
X99999Y233755D01*
X100203Y233187D01*
X100394Y232613D01*
X100571Y232035D01*
X100735Y231453D01*
X100884Y230867D01*
X101020Y230278D01*
X101141Y229686D01*
X101248Y229091D01*
X101341Y228494D01*
X101420Y227894D01*
X101485Y227293D01*
X101535Y226691D01*
X101571Y226088D01*
X101593Y225483D01*
X101600Y224879D01*
X101600Y162921D01*
X101607Y162317D01*
X101629Y161712D01*
X101665Y161109D01*
X101715Y160507D01*
X101780Y159906D01*
X101859Y159306D01*
X101952Y158709D01*
X102059Y158114D01*
X102180Y157522D01*
X102316Y156933D01*
X102465Y156347D01*
X102629Y155765D01*
X102806Y155187D01*
X102997Y154613D01*
X103201Y154045D01*
X103419Y153481D01*
X103651Y152922D01*
X103895Y152369D01*
X104153Y151823D01*
X104424Y151282D01*
X104707Y150748D01*
X105003Y150221D01*
X105311Y149701D01*
X105632Y149189D01*
X105965Y148684D01*
X106310Y148188D01*
X106666Y147699D01*
X107034Y147220D01*
X107414Y146749D01*
X107804Y146288D01*
X108205Y145835D01*
X108617Y145393D01*
X109039Y144960D01*
X109040Y144961D02*
X170361Y83640D01*
X170360Y83640D02*
X170793Y83217D01*
X171235Y82805D01*
X171688Y82404D01*
X172149Y82014D01*
X172620Y81634D01*
X173099Y81266D01*
X173588Y80910D01*
X174084Y80565D01*
X174589Y80232D01*
X175101Y79911D01*
X175621Y79603D01*
X176148Y79307D01*
X176682Y79024D01*
X177223Y78753D01*
X177769Y78495D01*
X178322Y78251D01*
X178881Y78019D01*
X179445Y77801D01*
X180013Y77597D01*
X180587Y77406D01*
X181165Y77229D01*
X181747Y77065D01*
X182333Y76916D01*
X182922Y76780D01*
X183514Y76659D01*
X184109Y76552D01*
X184706Y76459D01*
X185306Y76380D01*
X185907Y76315D01*
X186509Y76265D01*
X187112Y76229D01*
X187717Y76207D01*
X188321Y76200D01*
X339976Y76200D01*
X340580Y76207D01*
X341185Y76229D01*
X341788Y76265D01*
X342390Y76315D01*
X342991Y76380D01*
X343591Y76459D01*
X344188Y76552D01*
X344783Y76659D01*
X345375Y76780D01*
X345964Y76916D01*
X346550Y77065D01*
X347132Y77229D01*
X347710Y77406D01*
X348284Y77597D01*
X348852Y77801D01*
X349416Y78019D01*
X349975Y78251D01*
X350528Y78495D01*
X351074Y78753D01*
X351615Y79024D01*
X352149Y79307D01*
X352676Y79603D01*
X353196Y79911D01*
X353708Y80232D01*
X354213Y80565D01*
X354709Y80910D01*
X355198Y81266D01*
X355677Y81634D01*
X356148Y82014D01*
X356609Y82404D01*
X357062Y82805D01*
X357504Y83217D01*
X357937Y83639D01*
X357937Y83640D02*
X377227Y102929D01*
X377226Y102929D02*
X377659Y103352D01*
X378101Y103764D01*
X378554Y104165D01*
X379015Y104555D01*
X379486Y104935D01*
X379965Y105303D01*
X380454Y105659D01*
X380950Y106004D01*
X381455Y106337D01*
X381967Y106658D01*
X382487Y106966D01*
X383014Y107262D01*
X383548Y107545D01*
X384089Y107816D01*
X384635Y108074D01*
X385188Y108318D01*
X385747Y108550D01*
X386311Y108768D01*
X386879Y108972D01*
X387453Y109163D01*
X388031Y109340D01*
X388613Y109504D01*
X389199Y109653D01*
X389788Y109789D01*
X390380Y109910D01*
X390975Y110017D01*
X391572Y110110D01*
X392172Y110189D01*
X392773Y110254D01*
X393375Y110304D01*
X393978Y110340D01*
X394583Y110362D01*
X395187Y110369D01*
X413697Y110369D01*
X119561Y268240D02*
X76200Y311600D01*
X119560Y268240D02*
X119983Y267807D01*
X120395Y267365D01*
X120796Y266912D01*
X121186Y266451D01*
X121566Y265980D01*
X121934Y265501D01*
X122290Y265012D01*
X122635Y264516D01*
X122968Y264011D01*
X123289Y263499D01*
X123597Y262979D01*
X123893Y262452D01*
X124176Y261918D01*
X124447Y261377D01*
X124705Y260831D01*
X124949Y260278D01*
X125181Y259719D01*
X125399Y259155D01*
X125603Y258587D01*
X125794Y258013D01*
X125971Y257435D01*
X126135Y256853D01*
X126284Y256267D01*
X126420Y255678D01*
X126541Y255086D01*
X126648Y254491D01*
X126741Y253894D01*
X126820Y253294D01*
X126885Y252693D01*
X126935Y252091D01*
X126971Y251488D01*
X126993Y250883D01*
X127000Y250279D01*
X127000Y200460D01*
X127000Y200459D02*
X127007Y199855D01*
X127029Y199250D01*
X127065Y198647D01*
X127115Y198045D01*
X127180Y197444D01*
X127259Y196844D01*
X127352Y196247D01*
X127459Y195652D01*
X127580Y195060D01*
X127716Y194471D01*
X127865Y193885D01*
X128029Y193303D01*
X128206Y192725D01*
X128397Y192151D01*
X128601Y191583D01*
X128819Y191019D01*
X129051Y190460D01*
X129295Y189907D01*
X129553Y189361D01*
X129824Y188820D01*
X130107Y188286D01*
X130403Y187759D01*
X130711Y187239D01*
X131032Y186727D01*
X131365Y186222D01*
X131710Y185726D01*
X132066Y185237D01*
X132434Y184758D01*
X132814Y184287D01*
X133204Y183826D01*
X133605Y183373D01*
X134017Y182931D01*
X134439Y182498D01*
X134440Y182499D02*
X167293Y149645D01*
X205515Y205887D01*
X284388Y290199D02*
X221347Y353241D01*
X221347Y353240D02*
X220914Y353663D01*
X220472Y354075D01*
X220019Y354476D01*
X219558Y354866D01*
X219087Y355246D01*
X218608Y355614D01*
X218119Y355970D01*
X217623Y356315D01*
X217118Y356648D01*
X216606Y356969D01*
X216086Y357277D01*
X215559Y357573D01*
X215025Y357856D01*
X214484Y358127D01*
X213938Y358385D01*
X213385Y358629D01*
X212826Y358861D01*
X212262Y359079D01*
X211694Y359283D01*
X211120Y359474D01*
X210542Y359651D01*
X209960Y359815D01*
X209374Y359964D01*
X208785Y360100D01*
X208193Y360221D01*
X207598Y360328D01*
X207001Y360421D01*
X206401Y360500D01*
X205800Y360565D01*
X205198Y360615D01*
X204595Y360651D01*
X203990Y360673D01*
X203386Y360680D01*
X110401Y360680D01*
X109797Y360673D01*
X109192Y360651D01*
X108589Y360615D01*
X107987Y360565D01*
X107386Y360500D01*
X106786Y360421D01*
X106189Y360328D01*
X105594Y360221D01*
X105002Y360100D01*
X104413Y359964D01*
X103827Y359815D01*
X103245Y359651D01*
X102667Y359474D01*
X102093Y359283D01*
X101525Y359079D01*
X100961Y358861D01*
X100402Y358629D01*
X99849Y358385D01*
X99303Y358127D01*
X98762Y357856D01*
X98228Y357573D01*
X97701Y357277D01*
X97181Y356969D01*
X96669Y356648D01*
X96164Y356315D01*
X95668Y355970D01*
X95179Y355614D01*
X94700Y355246D01*
X94229Y354866D01*
X93768Y354476D01*
X93315Y354075D01*
X92873Y353663D01*
X92440Y353241D01*
X92441Y353241D02*
X76200Y337000D01*
X284388Y290199D02*
X345454Y320115D01*
X170361Y456561D02*
X76200Y362400D01*
X170360Y456560D02*
X170783Y456993D01*
X171195Y457435D01*
X171596Y457888D01*
X171986Y458349D01*
X172366Y458820D01*
X172734Y459299D01*
X173090Y459788D01*
X173435Y460284D01*
X173768Y460789D01*
X174089Y461301D01*
X174397Y461821D01*
X174693Y462348D01*
X174976Y462882D01*
X175247Y463423D01*
X175505Y463969D01*
X175749Y464522D01*
X175981Y465081D01*
X176199Y465645D01*
X176403Y466213D01*
X176594Y466787D01*
X176771Y467365D01*
X176935Y467947D01*
X177084Y468533D01*
X177220Y469122D01*
X177341Y469714D01*
X177448Y470309D01*
X177541Y470906D01*
X177620Y471506D01*
X177685Y472107D01*
X177735Y472709D01*
X177771Y473312D01*
X177793Y473917D01*
X177800Y474521D01*
X177800Y635000D01*
X406400Y55708D02*
X362042Y11350D01*
X406400Y55708D02*
X406400Y68580D01*
X437061Y99241D01*
X437060Y99240D02*
X437483Y99673D01*
X437895Y100115D01*
X438296Y100568D01*
X438686Y101029D01*
X439066Y101500D01*
X439434Y101979D01*
X439790Y102468D01*
X440135Y102964D01*
X440468Y103469D01*
X440789Y103981D01*
X441097Y104501D01*
X441393Y105028D01*
X441676Y105562D01*
X441947Y106103D01*
X442205Y106649D01*
X442449Y107202D01*
X442681Y107761D01*
X442899Y108325D01*
X443103Y108893D01*
X443294Y109467D01*
X443471Y110045D01*
X443635Y110627D01*
X443784Y111213D01*
X443920Y111802D01*
X444041Y112394D01*
X444148Y112989D01*
X444241Y113586D01*
X444320Y114186D01*
X444385Y114787D01*
X444435Y115389D01*
X444471Y115992D01*
X444493Y116597D01*
X444500Y117201D01*
X444500Y197315D01*
X444493Y197923D01*
X444471Y198531D01*
X444434Y199138D01*
X444384Y199744D01*
X444318Y200349D01*
X444238Y200952D01*
X444144Y201553D01*
X444035Y202151D01*
X443912Y202747D01*
X443775Y203339D01*
X443624Y203928D01*
X443459Y204514D01*
X443279Y205095D01*
X443086Y205671D01*
X442879Y206243D01*
X442658Y206810D01*
X442424Y207372D01*
X442177Y207927D01*
X441916Y208477D01*
X441916Y208476D02*
X356559Y382962D01*
X356558Y382962D02*
X356281Y383512D01*
X355990Y384055D01*
X355686Y384591D01*
X355370Y385119D01*
X355040Y385640D01*
X354698Y386153D01*
X354344Y386657D01*
X353978Y387152D01*
X353599Y387638D01*
X353209Y388115D01*
X352808Y388583D01*
X352395Y389040D01*
X351971Y389487D01*
X351537Y389924D01*
X351092Y390351D01*
X350637Y390766D01*
X350172Y391170D01*
X349698Y391563D01*
X349214Y391944D01*
X348720Y392314D01*
X348218Y392671D01*
X347708Y393016D01*
X347189Y393348D01*
X346663Y393668D01*
X346128Y393975D01*
X345587Y394269D01*
X345038Y394550D01*
X344483Y394817D01*
X343922Y395071D01*
X343354Y395311D01*
X342781Y395537D01*
X342203Y395749D01*
X341620Y395948D01*
X341032Y396131D01*
X340439Y396301D01*
X339843Y396456D01*
X339243Y396597D01*
X338640Y396723D01*
X338034Y396835D01*
X337426Y396931D01*
X336815Y397013D01*
X336203Y397081D01*
X335589Y397133D01*
X334974Y397170D01*
X334358Y397193D01*
X333742Y397200D01*
X279608Y397200D01*
X279355Y522924D02*
X218017Y522924D01*
X279355Y522924D02*
X279959Y522917D01*
X280564Y522895D01*
X281167Y522859D01*
X281769Y522809D01*
X282370Y522744D01*
X282970Y522665D01*
X283567Y522572D01*
X284162Y522465D01*
X284754Y522344D01*
X285343Y522208D01*
X285929Y522059D01*
X286511Y521895D01*
X287089Y521718D01*
X287663Y521527D01*
X288231Y521323D01*
X288795Y521105D01*
X289354Y520873D01*
X289907Y520629D01*
X290453Y520371D01*
X290994Y520100D01*
X291528Y519817D01*
X292055Y519521D01*
X292575Y519213D01*
X293087Y518892D01*
X293592Y518559D01*
X294088Y518214D01*
X294577Y517858D01*
X295056Y517490D01*
X295527Y517110D01*
X295988Y516720D01*
X296441Y516319D01*
X296883Y515907D01*
X297316Y515485D01*
X297315Y515485D02*
X328738Y484062D01*
X329157Y483633D01*
X329566Y483194D01*
X329964Y482746D01*
X330352Y482288D01*
X330728Y481822D01*
X331094Y481347D01*
X331448Y480863D01*
X331790Y480371D01*
X332121Y479871D01*
X332440Y479364D01*
X332747Y478849D01*
X333042Y478327D01*
X333324Y477798D01*
X333594Y477263D01*
X365801Y411425D01*
X465425Y207778D01*
X465425Y207779D02*
X465686Y207229D01*
X465933Y206674D01*
X466167Y206112D01*
X466388Y205545D01*
X466595Y204973D01*
X466788Y204397D01*
X466968Y203816D01*
X467133Y203230D01*
X467284Y202641D01*
X467421Y202049D01*
X467544Y201453D01*
X467653Y200855D01*
X467747Y200254D01*
X467827Y199651D01*
X467893Y199046D01*
X467943Y198440D01*
X467980Y197833D01*
X468002Y197225D01*
X468009Y196617D01*
X468009Y112982D01*
X468002Y112378D01*
X467980Y111773D01*
X467944Y111170D01*
X467894Y110568D01*
X467829Y109967D01*
X467750Y109367D01*
X467657Y108770D01*
X467550Y108175D01*
X467429Y107583D01*
X467293Y106994D01*
X467144Y106408D01*
X466980Y105826D01*
X466803Y105248D01*
X466612Y104674D01*
X466408Y104106D01*
X466190Y103542D01*
X465958Y102983D01*
X465714Y102430D01*
X465456Y101884D01*
X465185Y101343D01*
X464902Y100809D01*
X464606Y100282D01*
X464298Y99762D01*
X463977Y99250D01*
X463644Y98745D01*
X463299Y98249D01*
X462943Y97760D01*
X462575Y97281D01*
X462195Y96810D01*
X461805Y96349D01*
X461404Y95896D01*
X460992Y95454D01*
X460570Y95021D01*
X460569Y95021D02*
X445241Y79694D01*
D23*
X25400Y609600D03*
D24*
X25400Y650680D01*
D23*
X304800Y0D03*
D24*
X309683Y0D01*
X341251Y31568D01*
X-246380Y551180D02*
X-266435Y561855D01*
D23*
X-246380Y551180D03*
X-63500Y678180D03*
X-38100Y678180D03*
X-12700Y678180D03*
X12700Y678180D03*
X38100Y678180D03*
X63500Y678180D03*
M02*
