M48
;GenerationSoftware,Autodesk,EAGLE,9.7.0*%
;CreationDate,2024-07-29T21:04:19Z*%
FMAT,2
ICI,OFF
METRIC,TZ,000.000
T5C0.350
T4C0.900
T3C1.016
T2C1.800
T1C3.000
%
G90
M71
T1
X-34000Y-3000
X26000Y57000
X-34000Y41000
X26000Y2000
T2
X42331Y2989
X38029Y7171
T3
X-7620Y65068
X-7620Y8300
X-7620Y10840
X-7620Y13380
X-7620Y15920
X-7620Y18460
X-7620Y21000
X-7620Y23540
X-7620Y26080
X-7620Y28620
X-7620Y31160
X-7620Y33700
X-7620Y36240
X7620Y65068
X7620Y33700
X7620Y31160
X7620Y28620
X7620Y26080
X7620Y23540
X7620Y21000
X7620Y18460
X7620Y15920
X7620Y13380
X7620Y10840
X7620Y8300
X-5080Y65068
X-2540Y65068
X0Y65068
X2540Y65068
X7620Y36240
X5080Y65068
T4
X-28545Y56279
X-27230Y58975
T5
X2540Y60960
X30480Y0
X-24638Y55118
X-6350Y67818
X-21844Y53848
X-1270Y67818
X1270Y67818
X3810Y67818
X6350Y67818
X9398Y45720
X920Y45720
X-20320Y59944
X1016Y57658
X-14224Y40386
X-28194Y41910
X-9652Y50052
X-23060Y46600
X3810Y63754
X-12528Y33528
X-15748Y41656
X8382Y40386
X15240Y24892
X-25400Y53848
X254Y52070
X-21082Y52070
X-27686Y50800
X-17454Y55118
X-24638Y40386
X22860Y59690
X-27940Y46736
X-27940Y36576
X-10160Y13716
X-35560Y7620
X20320Y55880
X38100Y17780
X-6350Y43688
X-3302Y43688
X2794Y25908
X2794Y30988
X-5842Y56642
X-15240Y56388
X-17780Y48260
X-9144Y38608
X14224Y64262
X9652Y64262
X9398Y51308
X3810Y53594
X-3810Y67818
M30