G04 EAGLE Gerber RS-274X export*
G75*
%MOMM*%
%FSLAX34Y34*%
%LPD*%
%IN*%
%IPPOS*%
%AMOC8*
5,1,8,0,0,1.08239X$1,22.5*%
G01*
G04 Define Apertures*
%ADD10C,0.254000*%
D10*
X-493000Y186311D02*
X-499576Y172649D01*
X-504936Y158466D01*
X-509040Y143870D01*
X-511856Y128972D01*
X-513363Y113885D01*
X-513550Y98724D01*
X-512414Y83604D01*
X-509964Y68641D01*
X-506220Y53949D01*
X-501210Y39639D01*
X-494972Y25819D01*
X-487552Y12596D01*
X-479009Y70D01*
X-469406Y-11663D01*
X-458818Y-22515D01*
X-447323Y-32403D01*
X-435011Y-41252D01*
X-421974Y-48994D01*
X-408313Y-55570D01*
X-394130Y-60930D01*
X-379533Y-65034D01*
X-364635Y-67850D01*
X-349548Y-69357D01*
X-334387Y-69543D01*
X-319268Y-68407D01*
X-304305Y-65958D01*
X-289612Y-62214D01*
X-275302Y-57204D01*
X-261483Y-50965D01*
X-248260Y-43546D01*
X-235734Y-35003D01*
X-224000Y-25400D01*
X-219576Y-21436D01*
X-213141Y-16493D01*
X-206300Y-12129D01*
X-199104Y-8378D01*
X-191609Y-5269D01*
X-183872Y-2824D01*
X-175951Y-1064D01*
X-167906Y0D01*
X193306Y0D01*
X199204Y-710D01*
X207164Y-2285D01*
X214957Y-4547D01*
X222522Y-7481D01*
X229804Y-11062D01*
X236745Y-15265D01*
X243294Y-20056D01*
X249400Y-25400D01*
X260881Y-33906D01*
X273059Y-41380D01*
X285842Y-47763D01*
X299133Y-53008D01*
X312831Y-57075D01*
X326831Y-59933D01*
X341027Y-61559D01*
X355310Y-61942D01*
X369573Y-61079D01*
X383706Y-58975D01*
X397602Y-55649D01*
X411155Y-51123D01*
X424262Y-45434D01*
X436823Y-38624D01*
X448743Y-30745D01*
X459931Y-21857D01*
X470302Y-12028D01*
X479776Y-1332D01*
X488283Y10149D01*
X495756Y22327D01*
X502140Y35110D01*
X507385Y48401D01*
X511451Y62099D01*
X514309Y76099D01*
X515935Y90295D01*
X516318Y104578D01*
X515455Y118841D01*
X513352Y132974D01*
X510025Y146870D01*
X505499Y160423D01*
X499810Y173530D01*
X493000Y186091D01*
X275805Y630075D01*
X268874Y638952D01*
X259947Y648654D01*
X250208Y657541D01*
X239731Y665546D01*
X228597Y672607D01*
X216890Y678671D01*
X204699Y683692D01*
X192117Y687631D01*
X179239Y690458D01*
X166164Y692152D01*
X152991Y692700D01*
X-153205Y692700D01*
X-164471Y692303D01*
X-177566Y690774D01*
X-190479Y688111D01*
X-203110Y684331D01*
X-215363Y679466D01*
X-227146Y673551D01*
X-238369Y666631D01*
X-248946Y658760D01*
X-258796Y649997D01*
X-267845Y640409D01*
X-276024Y630068D01*
X-493000Y186311D01*
M02*
