G04 EAGLE Gerber RS-274X export*
G75*
%MOMM*%
%FSLAX34Y34*%
%LPD*%
%INSolderpaste Top*%
%IPPOS*%
%AMOC8*
5,1,8,0,0,1.08239X$1,22.5*%
G01*
G04 Define Apertures*
%ADD10C,1.250000*%
%ADD11C,0.609600*%
%ADD12C,1.500000*%
%ADD13C,1.000000*%
%ADD14C,0.750000*%
%ADD15C,1.300000*%
%ADD16R,0.800000X0.900000*%
%ADD17R,1.100000X1.400000*%
%ADD18R,0.700000X1.500000*%
%ADD19R,1.000000X0.600000*%
%ADD20R,1.000000X0.800000*%
D10*
X-344250Y241750D02*
X-344250Y266250D01*
X-331750Y266250D01*
X-331750Y241750D01*
X-344250Y241750D01*
X-344250Y253625D02*
X-331750Y253625D01*
X-331750Y265500D02*
X-344250Y265500D01*
X-344250Y198250D02*
X-344250Y173750D01*
X-344250Y198250D02*
X-331750Y198250D01*
X-331750Y173750D01*
X-344250Y173750D01*
X-344250Y185625D02*
X-331750Y185625D01*
X-331750Y197500D02*
X-344250Y197500D01*
X-388250Y198250D02*
X-388250Y173750D01*
X-388250Y198250D02*
X-375750Y198250D01*
X-375750Y173750D01*
X-388250Y173750D01*
X-388250Y185625D02*
X-375750Y185625D01*
X-375750Y197500D02*
X-388250Y197500D01*
X-388250Y241750D02*
X-388250Y266250D01*
X-375750Y266250D01*
X-375750Y241750D01*
X-388250Y241750D01*
X-388250Y253625D02*
X-375750Y253625D01*
X-375750Y265500D02*
X-388250Y265500D01*
X-248250Y294250D02*
X-223750Y294250D01*
X-223750Y281750D01*
X-248250Y281750D01*
X-248250Y294250D01*
X-248250Y293625D02*
X-223750Y293625D01*
X-291750Y294250D02*
X-316250Y294250D01*
X-291750Y294250D02*
X-291750Y281750D01*
X-316250Y281750D01*
X-316250Y294250D01*
X-316250Y293625D02*
X-291750Y293625D01*
X-291750Y338250D02*
X-316250Y338250D01*
X-291750Y338250D02*
X-291750Y325750D01*
X-316250Y325750D01*
X-316250Y338250D01*
X-316250Y337625D02*
X-291750Y337625D01*
X-248250Y338250D02*
X-223750Y338250D01*
X-223750Y325750D01*
X-248250Y325750D01*
X-248250Y338250D01*
X-248250Y337625D02*
X-223750Y337625D01*
X-195750Y198250D02*
X-195750Y173750D01*
X-208250Y173750D01*
X-208250Y198250D01*
X-195750Y198250D01*
X-195750Y185625D02*
X-208250Y185625D01*
X-208250Y197500D02*
X-195750Y197500D01*
X-195750Y241750D02*
X-195750Y266250D01*
X-195750Y241750D02*
X-208250Y241750D01*
X-208250Y266250D01*
X-195750Y266250D01*
X-195750Y253625D02*
X-208250Y253625D01*
X-208250Y265500D02*
X-195750Y265500D01*
X-151750Y266250D02*
X-151750Y241750D01*
X-164250Y241750D01*
X-164250Y266250D01*
X-151750Y266250D01*
X-151750Y253625D02*
X-164250Y253625D01*
X-164250Y265500D02*
X-151750Y265500D01*
X-151750Y198250D02*
X-151750Y173750D01*
X-164250Y173750D01*
X-164250Y198250D01*
X-151750Y198250D01*
X-151750Y185625D02*
X-164250Y185625D01*
X-164250Y197500D02*
X-151750Y197500D01*
X-291750Y145750D02*
X-316250Y145750D01*
X-316250Y158250D01*
X-291750Y158250D01*
X-291750Y145750D01*
X-291750Y157625D02*
X-316250Y157625D01*
X-248250Y145750D02*
X-223750Y145750D01*
X-248250Y145750D02*
X-248250Y158250D01*
X-223750Y158250D01*
X-223750Y145750D01*
X-223750Y157625D02*
X-248250Y157625D01*
X-248250Y101750D02*
X-223750Y101750D01*
X-248250Y101750D02*
X-248250Y114250D01*
X-223750Y114250D01*
X-223750Y101750D01*
X-223750Y113625D02*
X-248250Y113625D01*
X-291750Y101750D02*
X-316250Y101750D01*
X-316250Y114250D01*
X-291750Y114250D01*
X-291750Y101750D01*
X-291750Y113625D02*
X-316250Y113625D01*
X229853Y174537D02*
X243623Y194799D01*
X253961Y187773D01*
X240191Y167511D01*
X229853Y174537D01*
X233148Y179386D02*
X248261Y179386D01*
X248829Y191261D02*
X241219Y191261D01*
X205401Y138557D02*
X191631Y118295D01*
X205401Y138557D02*
X215739Y131531D01*
X201969Y111269D01*
X191631Y118295D01*
X194926Y123144D02*
X210039Y123144D01*
X210607Y135019D02*
X202997Y135019D01*
X169009Y163289D02*
X155239Y143027D01*
X169009Y163289D02*
X179347Y156263D01*
X165577Y136001D01*
X155239Y143027D01*
X158534Y147876D02*
X173647Y147876D01*
X174215Y159751D02*
X166605Y159751D01*
X193461Y199269D02*
X207231Y219531D01*
X217569Y212505D01*
X203799Y192243D01*
X193461Y199269D01*
X196756Y204118D02*
X211869Y204118D01*
X212437Y215993D02*
X204827Y215993D01*
X351062Y280824D02*
X373063Y291602D01*
X378562Y280378D01*
X356561Y269600D01*
X351062Y280824D01*
X352391Y281475D02*
X378025Y281475D01*
X311997Y261686D02*
X289996Y250908D01*
X311997Y261686D02*
X317496Y250462D01*
X295495Y239684D01*
X289996Y250908D01*
X291325Y251559D02*
X316959Y251559D01*
X292639Y301200D02*
X270638Y290422D01*
X292639Y301200D02*
X298138Y289976D01*
X276137Y279198D01*
X270638Y290422D01*
X271967Y291073D02*
X297601Y291073D01*
X331704Y320338D02*
X353705Y331116D01*
X359204Y319892D01*
X337203Y309114D01*
X331704Y320338D01*
X333033Y320989D02*
X358667Y320989D01*
D11*
X-203448Y491486D02*
X-211576Y474822D01*
X-222991Y480389D02*
X-214863Y497053D01*
X-226278Y502620D02*
X-234406Y485956D01*
X-245820Y491523D02*
X-237692Y508187D01*
X-268424Y445178D02*
X-276552Y428514D01*
X-265137Y422947D02*
X-257009Y439611D01*
X-245594Y434044D02*
X-253722Y417380D01*
X-242308Y411813D02*
X-234180Y428477D01*
D12*
X276173Y387166D02*
X289642Y393765D01*
X276173Y387166D02*
X269574Y400635D01*
X283043Y407234D01*
X289642Y393765D01*
X285893Y401416D02*
X271168Y401416D01*
X214582Y512890D02*
X228051Y519489D01*
X214582Y512890D02*
X207983Y526359D01*
X221452Y532958D01*
X228051Y519489D01*
X224302Y527140D02*
X209577Y527140D01*
D13*
X392572Y2583D02*
X399742Y-4389D01*
X378828Y-25895D01*
X371658Y-18923D01*
X392572Y2583D01*
X388066Y-16395D02*
X374116Y-16395D01*
X383355Y-6895D02*
X397305Y-6895D01*
X427739Y117636D02*
X420569Y124608D01*
X427739Y117636D02*
X406825Y96130D01*
X399655Y103102D01*
X420569Y124608D01*
X416063Y105630D02*
X402113Y105630D01*
X411352Y115130D02*
X425302Y115130D01*
D14*
X453881Y93958D02*
X459258Y88729D01*
X436601Y65430D01*
X431224Y70659D01*
X453881Y93958D01*
X443530Y72555D02*
X433068Y72555D01*
X439996Y79680D02*
X450458Y79680D01*
X446925Y86805D02*
X457387Y86805D01*
X453910Y93930D02*
X453854Y93930D01*
X355268Y40603D02*
X349891Y45832D01*
X355268Y40603D02*
X332611Y17304D01*
X327234Y22533D01*
X349891Y45832D01*
X339540Y24429D02*
X329078Y24429D01*
X336006Y31554D02*
X346468Y31554D01*
X342935Y38679D02*
X353397Y38679D01*
X349920Y45804D02*
X349864Y45804D01*
X370682Y25614D02*
X376059Y20385D01*
X353402Y-2914D01*
X348025Y2315D01*
X370682Y25614D01*
X360331Y4211D02*
X349869Y4211D01*
X356797Y11336D02*
X367259Y11336D01*
X363726Y18461D02*
X374188Y18461D01*
X370711Y25586D02*
X370655Y25586D01*
D15*
X142922Y271196D02*
X156864Y285533D01*
X166184Y276470D01*
X152242Y262133D01*
X142922Y271196D01*
X146118Y274483D02*
X164252Y274483D01*
X193816Y323530D02*
X207758Y337867D01*
X217078Y328804D01*
X203136Y314467D01*
X193816Y323530D01*
X197012Y326817D02*
X215146Y326817D01*
D16*
G36*
X-183780Y563161D02*
X-176591Y559654D01*
X-180536Y551565D01*
X-187725Y555072D01*
X-183780Y563161D01*
G37*
G36*
X-200857Y571490D02*
X-193668Y567983D01*
X-197613Y559894D01*
X-204802Y563401D01*
X-200857Y571490D01*
G37*
G36*
X-201524Y548451D02*
X-194335Y544944D01*
X-198280Y536855D01*
X-205469Y540362D01*
X-201524Y548451D01*
G37*
D17*
G36*
X-285682Y477886D02*
X-290504Y468001D01*
X-303086Y474138D01*
X-298264Y484023D01*
X-285682Y477886D01*
G37*
G36*
X-276914Y495862D02*
X-281736Y485977D01*
X-294318Y492114D01*
X-289496Y501999D01*
X-276914Y495862D01*
G37*
D18*
G36*
X-281286Y548515D02*
X-278217Y554806D01*
X-264736Y548231D01*
X-267805Y541940D01*
X-281286Y548515D01*
G37*
G36*
X-274710Y561997D02*
X-271641Y568288D01*
X-258160Y561713D01*
X-261229Y555422D01*
X-274710Y561997D01*
G37*
G36*
X-261559Y588961D02*
X-258490Y595252D01*
X-245009Y588677D01*
X-248078Y582386D01*
X-261559Y588961D01*
G37*
D19*
G36*
X-298977Y551023D02*
X-303361Y542036D01*
X-308753Y544667D01*
X-304369Y553654D01*
X-298977Y551023D01*
G37*
D20*
G36*
X-279203Y541380D02*
X-283587Y532393D01*
X-290777Y535900D01*
X-286393Y544887D01*
X-279203Y541380D01*
G37*
D19*
G36*
X-266975Y616635D02*
X-271359Y607648D01*
X-276751Y610279D01*
X-272367Y619266D01*
X-266975Y616635D01*
G37*
D20*
G36*
X-247202Y606992D02*
X-251586Y598005D01*
X-258776Y601512D01*
X-254392Y610499D01*
X-247202Y606992D01*
G37*
M02*
