G04 EAGLE Gerber RS-274X export*
G75*
%MOMM*%
%FSLAX34Y34*%
%LPD*%
%INSoldermask Top*%
%IPPOS*%
%AMOC8*
5,1,8,0,0,1.08239X$1,22.5*%
G01*
G04 Define Apertures*
%ADD10C,3.203200*%
%ADD11C,2.082800*%
%ADD12C,1.459725*%
%ADD13C,0.812800*%
%ADD14C,1.697694*%
%ADD15C,1.203200*%
%ADD16C,2.003200*%
%ADD17C,1.211759*%
%ADD18C,0.953791*%
%ADD19C,1.513725*%
%ADD20R,1.003200X1.103200*%
%ADD21R,1.303200X1.603200*%
%ADD22R,0.903200X1.703200*%
%ADD23R,1.203200X0.803200*%
%ADD24R,1.203200X1.003200*%
%ADD25C,1.103200*%
%ADD26R,1.703200X1.703200*%
D10*
X-340000Y-30000D03*
X260000Y570000D03*
X-340000Y410000D03*
X260000Y20000D03*
D11*
X76200Y83000D03*
X76200Y108400D03*
X76200Y133800D03*
X76200Y159200D03*
X76200Y184600D03*
X76200Y210000D03*
X76200Y235400D03*
X76200Y260800D03*
X76200Y286200D03*
X76200Y311600D03*
X76200Y337000D03*
X76200Y362400D03*
X-76200Y362400D03*
X-76200Y337000D03*
X-76200Y311600D03*
X-76200Y286200D03*
X-76200Y260800D03*
X-76200Y235400D03*
X-76200Y210000D03*
X-76200Y184600D03*
X-76200Y159200D03*
X-76200Y133800D03*
X-76200Y108400D03*
X-76200Y83000D03*
X-76200Y650680D03*
X-50800Y650680D03*
X-25400Y650680D03*
X0Y650680D03*
X25400Y650680D03*
X50800Y650680D03*
X76200Y650680D03*
D12*
X-344218Y266218D02*
X-344218Y241782D01*
X-344218Y266218D02*
X-331782Y266218D01*
X-331782Y241782D01*
X-344218Y241782D01*
X-344218Y255649D02*
X-331782Y255649D01*
X-344218Y198218D02*
X-344218Y173782D01*
X-344218Y198218D02*
X-331782Y198218D01*
X-331782Y173782D01*
X-344218Y173782D01*
X-344218Y187649D02*
X-331782Y187649D01*
X-388218Y198218D02*
X-388218Y173782D01*
X-388218Y198218D02*
X-375782Y198218D01*
X-375782Y173782D01*
X-388218Y173782D01*
X-388218Y187649D02*
X-375782Y187649D01*
X-388218Y241782D02*
X-388218Y266218D01*
X-375782Y266218D01*
X-375782Y241782D01*
X-388218Y241782D01*
X-388218Y255649D02*
X-375782Y255649D01*
X-248218Y294218D02*
X-223782Y294218D01*
X-223782Y281782D01*
X-248218Y281782D01*
X-248218Y294218D01*
X-291782Y294218D02*
X-316218Y294218D01*
X-291782Y294218D02*
X-291782Y281782D01*
X-316218Y281782D01*
X-316218Y294218D01*
X-316218Y338218D02*
X-291782Y338218D01*
X-291782Y325782D01*
X-316218Y325782D01*
X-316218Y338218D01*
X-248218Y338218D02*
X-223782Y338218D01*
X-223782Y325782D01*
X-248218Y325782D01*
X-248218Y338218D01*
X-195782Y198218D02*
X-195782Y173782D01*
X-208218Y173782D01*
X-208218Y198218D01*
X-195782Y198218D01*
X-195782Y187649D02*
X-208218Y187649D01*
X-195782Y241782D02*
X-195782Y266218D01*
X-195782Y241782D02*
X-208218Y241782D01*
X-208218Y266218D01*
X-195782Y266218D01*
X-195782Y255649D02*
X-208218Y255649D01*
X-151782Y266218D02*
X-151782Y241782D01*
X-164218Y241782D01*
X-164218Y266218D01*
X-151782Y266218D01*
X-151782Y255649D02*
X-164218Y255649D01*
X-151782Y198218D02*
X-151782Y173782D01*
X-164218Y173782D01*
X-164218Y198218D01*
X-151782Y198218D01*
X-151782Y187649D02*
X-164218Y187649D01*
X-291782Y145782D02*
X-316218Y145782D01*
X-316218Y158218D01*
X-291782Y158218D01*
X-291782Y145782D01*
X-248218Y145782D02*
X-223782Y145782D01*
X-248218Y145782D02*
X-248218Y158218D01*
X-223782Y158218D01*
X-223782Y145782D01*
X-223782Y101782D02*
X-248218Y101782D01*
X-248218Y114218D01*
X-223782Y114218D01*
X-223782Y101782D01*
X-291782Y101782D02*
X-316218Y101782D01*
X-316218Y114218D01*
X-291782Y114218D01*
X-291782Y101782D01*
X229897Y174545D02*
X243631Y194755D01*
X253917Y187765D01*
X240183Y167555D01*
X229897Y174545D01*
X234570Y181422D02*
X249607Y181422D01*
X205409Y138513D02*
X191675Y118303D01*
X205409Y138513D02*
X215695Y131523D01*
X201961Y111313D01*
X191675Y118303D01*
X196348Y125180D02*
X211385Y125180D01*
X169017Y163245D02*
X155283Y143035D01*
X169017Y163245D02*
X179303Y156255D01*
X165569Y136045D01*
X155283Y143035D01*
X159956Y149912D02*
X174993Y149912D01*
X193505Y199277D02*
X207239Y219487D01*
X217525Y212497D01*
X203791Y192287D01*
X193505Y199277D01*
X198178Y206154D02*
X213215Y206154D01*
X351105Y280809D02*
X373048Y291560D01*
X378519Y280393D01*
X356576Y269642D01*
X351105Y280809D01*
X356616Y283509D02*
X376992Y283509D01*
X311982Y261644D02*
X290039Y250893D01*
X311982Y261644D02*
X317453Y250477D01*
X295510Y239726D01*
X290039Y250893D01*
X295550Y253593D02*
X315926Y253593D01*
X292624Y301158D02*
X270681Y290407D01*
X292624Y301158D02*
X298095Y289991D01*
X276152Y279240D01*
X270681Y290407D01*
X276192Y293107D02*
X296568Y293107D01*
X331747Y320323D02*
X353690Y331074D01*
X359161Y319907D01*
X337218Y309156D01*
X331747Y320323D01*
X337258Y323023D02*
X357634Y323023D01*
D13*
X-203448Y491486D02*
X-211576Y474822D01*
X-222991Y480389D02*
X-214863Y497053D01*
X-226278Y502620D02*
X-234406Y485956D01*
X-245820Y491523D02*
X-237692Y508187D01*
X-268424Y445178D02*
X-276552Y428514D01*
X-265137Y422947D02*
X-257009Y439611D01*
X-245594Y434044D02*
X-253722Y417380D01*
X-242308Y411813D02*
X-234180Y428477D01*
D14*
X276160Y387128D02*
X289680Y393752D01*
X276160Y387128D02*
X269536Y400648D01*
X283056Y407272D01*
X289680Y393752D01*
X285024Y403256D02*
X274859Y403256D01*
X214569Y512852D02*
X228089Y519476D01*
X214569Y512852D02*
X207945Y526372D01*
X221465Y532996D01*
X228089Y519476D01*
X223433Y528980D02*
X213268Y528980D01*
D15*
X-203200Y615000D02*
X-203200Y655000D01*
X-177800Y655000D02*
X-177800Y615000D01*
X177800Y615000D02*
X177800Y655000D01*
X203200Y655000D02*
X203200Y615000D01*
X228600Y615000D02*
X228600Y655000D01*
D16*
X423307Y29885D03*
X380293Y71715D03*
D17*
X392573Y2522D02*
X399681Y-4390D01*
X378827Y-25834D01*
X371719Y-18922D01*
X392573Y2522D01*
X390022Y-14322D02*
X376192Y-14322D01*
X387388Y-2810D02*
X398056Y-2810D01*
X427678Y117635D02*
X420570Y124547D01*
X427678Y117635D02*
X406824Y96191D01*
X399716Y103103D01*
X420570Y124547D01*
X418019Y107703D02*
X404189Y107703D01*
X415385Y119215D02*
X426053Y119215D01*
D18*
X453881Y93953D02*
X459254Y88729D01*
X436601Y65435D01*
X431228Y70659D01*
X453881Y93953D01*
X445413Y74496D02*
X434959Y74496D01*
X443771Y83557D02*
X454224Y83557D01*
X455254Y92618D02*
X452583Y92618D01*
X355264Y40603D02*
X349891Y45827D01*
X355264Y40603D02*
X332611Y17309D01*
X327238Y22533D01*
X349891Y45827D01*
X341423Y26370D02*
X330969Y26370D01*
X339781Y35431D02*
X350234Y35431D01*
X351264Y44492D02*
X348593Y44492D01*
X370682Y25609D02*
X376055Y20385D01*
X353402Y-2909D01*
X348029Y2315D01*
X370682Y25609D01*
X362214Y6152D02*
X351760Y6152D01*
X360572Y15213D02*
X371025Y15213D01*
X372055Y24274D02*
X369384Y24274D01*
D19*
X142995Y271197D02*
X156865Y285460D01*
X166111Y276469D01*
X152241Y262206D01*
X142995Y271197D01*
X148236Y276586D02*
X165991Y276586D01*
X193889Y323531D02*
X207759Y337794D01*
X217005Y328803D01*
X203135Y314540D01*
X193889Y323531D01*
X199130Y328920D02*
X216885Y328920D01*
D20*
G36*
X-184248Y564519D02*
X-175232Y560121D01*
X-180068Y550207D01*
X-189084Y554605D01*
X-184248Y564519D01*
G37*
G36*
X-201325Y572848D02*
X-192309Y568450D01*
X-197145Y558536D01*
X-206161Y562934D01*
X-201325Y572848D01*
G37*
G36*
X-201992Y549809D02*
X-192976Y545411D01*
X-197812Y535497D01*
X-206828Y539895D01*
X-201992Y549809D01*
G37*
D21*
G36*
X-284323Y478354D02*
X-290036Y466642D01*
X-304445Y473670D01*
X-298732Y485382D01*
X-284323Y478354D01*
G37*
G36*
X-275555Y496330D02*
X-281268Y484618D01*
X-295677Y491646D01*
X-289964Y503358D01*
X-275555Y496330D01*
G37*
D22*
G36*
X-282644Y548048D02*
X-278685Y556165D01*
X-263378Y548698D01*
X-267337Y540581D01*
X-282644Y548048D01*
G37*
G36*
X-276068Y561530D02*
X-272109Y569647D01*
X-256802Y562180D01*
X-260761Y554063D01*
X-276068Y561530D01*
G37*
G36*
X-262917Y588494D02*
X-258958Y596611D01*
X-243651Y589144D01*
X-247610Y581027D01*
X-262917Y588494D01*
G37*
D23*
G36*
X-297619Y551491D02*
X-302893Y540678D01*
X-310111Y544199D01*
X-304837Y555012D01*
X-297619Y551491D01*
G37*
D24*
G36*
X-277845Y541848D02*
X-283119Y531034D01*
X-292135Y535432D01*
X-286861Y546246D01*
X-277845Y541848D01*
G37*
D23*
G36*
X-265617Y617103D02*
X-270891Y606290D01*
X-278109Y609811D01*
X-272835Y620624D01*
X-265617Y617103D01*
G37*
D24*
G36*
X-245844Y607460D02*
X-251118Y596646D01*
X-260134Y601044D01*
X-254860Y611858D01*
X-245844Y607460D01*
G37*
D25*
X-285452Y562786D03*
X-272300Y589750D03*
D26*
X63500Y678180D03*
X38100Y678180D03*
X12700Y678180D03*
X-12700Y678180D03*
X-38100Y678180D03*
X-63500Y678180D03*
M02*
