G04 EAGLE Gerber RS-274X export*
G75*
%MOMM*%
%FSLAX34Y34*%
%LPD*%
%INSoldermask Bottom*%
%IPPOS*%
%AMOC8*
5,1,8,0,0,1.08239X$1,22.5*%
G01*
G04 Define Apertures*
%ADD10C,3.203200*%
%ADD11C,2.082800*%
%ADD12C,2.003200*%
%ADD13R,1.473200X0.838200*%
%ADD14C,1.103200*%
%ADD15R,2.203200X2.203200*%
G36*
X-61905Y492540D02*
X-61905Y497620D01*
X-58095Y497620D01*
X-58095Y492540D01*
X-61905Y492540D01*
G37*
G36*
X11105Y497620D02*
X11105Y492540D01*
X7295Y492540D01*
X7295Y497620D01*
X11105Y497620D01*
G37*
G36*
X72705Y497620D02*
X72705Y492540D01*
X68895Y492540D01*
X68895Y497620D01*
X72705Y497620D01*
G37*
G36*
X129225Y497620D02*
X129225Y492540D01*
X125415Y492540D01*
X125415Y497620D01*
X129225Y497620D01*
G37*
D10*
X-340000Y-30000D03*
X260000Y570000D03*
X-340000Y410000D03*
X260000Y20000D03*
D11*
X76200Y83000D03*
X76200Y108400D03*
X76200Y133800D03*
X76200Y159200D03*
X76200Y184600D03*
X76200Y210000D03*
X76200Y235400D03*
X76200Y260800D03*
X76200Y286200D03*
X76200Y311600D03*
X76200Y337000D03*
X76200Y362400D03*
X-76200Y362400D03*
X-76200Y337000D03*
X-76200Y311600D03*
X-76200Y286200D03*
X-76200Y260800D03*
X-76200Y235400D03*
X-76200Y210000D03*
X-76200Y184600D03*
X-76200Y159200D03*
X-76200Y133800D03*
X-76200Y108400D03*
X-76200Y83000D03*
X-76200Y650680D03*
X-50800Y650680D03*
X-25400Y650680D03*
X0Y650680D03*
X25400Y650680D03*
X50800Y650680D03*
X76200Y650680D03*
D12*
X423307Y29885D03*
X380293Y71715D03*
D13*
X127320Y479840D03*
X127320Y490000D03*
X127320Y500160D03*
X70800Y479840D03*
X70800Y490000D03*
X70800Y500160D03*
X9200Y479840D03*
X9200Y490000D03*
X9200Y500160D03*
X-60000Y500160D03*
X-60000Y490000D03*
D14*
X-285452Y562786D03*
X-272300Y589750D03*
D15*
X-228600Y558800D03*
X-203200Y558800D03*
X-152400Y381000D03*
X-152400Y355600D03*
X-152400Y330200D03*
X-152400Y304800D03*
X-152400Y279400D03*
X-177800Y381000D03*
X-177800Y304800D03*
X-177800Y355600D03*
X-406400Y152400D03*
X-177800Y330200D03*
X-203200Y381000D03*
X-406400Y203200D03*
X-203200Y355600D03*
X-406400Y177800D03*
X-203200Y330200D03*
X-330200Y355600D03*
X-355600Y355600D03*
X-304800Y254000D03*
X-330200Y330200D03*
X-355600Y330200D03*
X-304800Y228600D03*
X-330200Y304800D03*
X-355600Y304800D03*
X-381000Y304800D03*
X-330200Y279400D03*
X-355600Y279400D03*
X-381000Y279400D03*
X-330200Y254000D03*
X-355600Y254000D03*
X-381000Y254000D03*
X-330200Y228600D03*
X-355600Y228600D03*
X-381000Y228600D03*
X-330200Y203200D03*
X-355600Y203200D03*
X-381000Y203200D03*
X-330200Y177800D03*
X-355600Y177800D03*
X-381000Y177800D03*
X-330200Y152400D03*
X-355600Y152400D03*
X-381000Y152400D03*
X-330200Y127000D03*
X-355600Y127000D03*
X-381000Y127000D03*
X-177800Y457200D03*
X-203200Y457200D03*
X-203200Y431800D03*
X-152400Y457200D03*
X-127000Y457200D03*
X-304800Y127000D03*
X-228600Y127000D03*
X-254000Y127000D03*
X-279400Y127000D03*
X-203200Y152400D03*
X-177800Y127000D03*
X-203200Y127000D03*
X-228600Y152400D03*
X-254000Y152400D03*
X-279400Y152400D03*
X-304800Y203200D03*
X-304800Y177800D03*
X-304800Y152400D03*
X-279400Y177800D03*
X-279400Y203200D03*
X-279400Y228600D03*
X-228600Y177800D03*
X-254000Y177800D03*
X-254000Y203200D03*
X-177800Y635000D03*
X-254000Y457200D03*
X-254000Y482600D03*
X-101600Y457200D03*
X-127000Y635000D03*
X-152400Y635000D03*
X279400Y127000D03*
X254000Y127000D03*
X228600Y127000D03*
X203200Y127000D03*
X279400Y431800D03*
X279400Y457200D03*
X279400Y482600D03*
X254000Y457200D03*
X254000Y482600D03*
X228600Y482600D03*
X203200Y482600D03*
X330200Y177800D03*
X330200Y203200D03*
X330200Y228600D03*
X330200Y254000D03*
X330200Y279400D03*
X101600Y533400D03*
X76200Y533400D03*
X330200Y152400D03*
X152400Y558800D03*
X127000Y558800D03*
X101600Y558800D03*
X76200Y558800D03*
X254000Y330200D03*
X228600Y355600D03*
X203200Y381000D03*
X177800Y127000D03*
X279400Y406400D03*
X279400Y152400D03*
X254000Y152400D03*
X228600Y152400D03*
X203200Y152400D03*
X177800Y152400D03*
X279400Y177800D03*
X228600Y457200D03*
X254000Y431800D03*
X177800Y406400D03*
X330200Y127000D03*
X152400Y533400D03*
X127000Y533400D03*
X177800Y304800D03*
X203200Y330200D03*
X177800Y330200D03*
X228600Y330200D03*
X203200Y355600D03*
X177800Y355600D03*
X177800Y381000D03*
X228600Y279400D03*
X203200Y279400D03*
X177800Y279400D03*
X279400Y304800D03*
X254000Y304800D03*
X228600Y304800D03*
X203200Y304800D03*
X279400Y254000D03*
X254000Y254000D03*
X228600Y254000D03*
X203200Y254000D03*
X177800Y254000D03*
X279400Y279400D03*
X254000Y279400D03*
X203200Y203200D03*
X177800Y203200D03*
X279400Y228600D03*
X254000Y228600D03*
X228600Y228600D03*
X203200Y228600D03*
X203200Y101600D03*
X254000Y177800D03*
X228600Y177800D03*
X203200Y177800D03*
X228600Y101600D03*
X279400Y203200D03*
X254000Y203200D03*
X228600Y203200D03*
M02*
